SplineFontDB: 3.0
FontName: Neuton-SC-Regular
FullName: Neuton SC Regular
FamilyName: Neuton SC
Weight: Regular
Copyright: Copyright (c) 2010, 2011 Brian M Zick (http://21326.info/), \nwith Reserved Font Name 'Neuton SC'.\n\nThis Font Software is licensed under the SIL Open Font License, Version 1.1.\nThis license is available with a FAQ at: http://scripts.sil.org/OFL\n   WITHOUT WARRANTIES OR CONDITIONS OF ANY KIND, either express or implied.\n   See the License for the specific language governing permissions and\n   limitations under the License.
Version: 1.46
ItalicAngle: 0
UnderlinePosition: -361
UnderlineWidth: 0
Ascent: 1638
Descent: 410
LayerCount: 2
Layer: 0 1 "Back"  1
Layer: 1 1 "Fore"  0
FSType: 1
OS2Version: 1
OS2_WeightWidthSlopeOnly: 0
OS2_UseTypoMetrics: 0
CreationTime: 1305772905
ModificationTime: 1333038477
PfmFamily: 17
TTFWeight: 500
TTFWidth: 5
LineGap: 0
VLineGap: 0
OS2TypoAscent: 2106
OS2TypoAOffset: 0
OS2TypoDescent: -485
OS2TypoDOffset: 0
OS2TypoLinegap: 0
OS2WinAscent: 2106
OS2WinAOffset: 0
OS2WinDescent: 485
OS2WinDOffset: 0
HheadAscent: 2106
HheadAOffset: 0
HheadDescent: -485
HheadDOffset: 0
OS2SubXSize: 1095
OS2SubYSize: 1179
OS2SubXOff: 0
OS2SubYOff: 235
OS2SupXSize: 1095
OS2SupYSize: 1179
OS2SupXOff: 0
OS2SupYOff: 809
OS2StrikeYSize: 84
OS2StrikeYPos: 436
OS2Vendor: 'PfEd'
OS2CodePages: a00000b3.00000000
Lookup: 3 0 0 "'salt' Stylistic Alternates"  {"Alternate Substitution in Latin lookup 0-1"  } ['salt' ('DFLT' <'dflt' > 'latn' <'dflt' > ) ]
MarkAttachClasses: 1
DEI: 91125
TtTable: prep
PUSHW_1
 511
SCANCTRL
PUSHB_1
 4
SCANTYPE
EndTTInstrs

StartChar: A
Encoding: 65 65 0
Width: 1278
VWidth: 1691
Flags: MW
LayerCount: 2
Fore
SplineSet
406 534 m 1,0,-1
 758 534 l 1,1,-1
 592 1034 l 1,2,-1
 406 534 l 1,0,-1
-37 0 m 1,3,-1
 -28 74 l 1,4,-1
 121 129 l 1,5,-1
 559 1237 l 1,6,-1
 710 1268 l 1,7,-1
 1100 124 l 1,8,-1
 1237 80 l 1,9,-1
 1228 0 l 1,10,-1
 713 0 l 1,11,-1
 725 74 l 1,12,-1
 896 129 l 1,13,-1
 787 432 l 1,14,-1
 368 432 l 1,15,-1
 256 124 l 1,16,-1
 442 80 l 1,17,-1
 431 0 l 1,18,-1
 -37 0 l 1,3,-1
EndSplineSet
Colour: ffffff
EndChar

StartChar: AE
Encoding: 198 198 1
Width: 1684
VWidth: 0
Flags: MW
LayerCount: 2
Fore
SplineSet
510 568 m 1,0,-1
 817 568 l 1,1,-1
 817 1058 l 1,2,-1
 510 568 l 1,0,-1
-40 1 m 1,3,-1
 -31 76 l 1,4,-1
 105 131 l 1,5,-1
 738 1126 l 1,6,-1
 524 1168 l 1,7,-1
 534 1244 l 1,8,-1
 1596 1244 l 1,9,-1
 1564 927 l 1,10,-1
 1478 940 l 1,11,-1
 1436 1152 l 1,12,-1
 998 1152 l 1,13,-1
 998 679 l 1,14,-1
 1257 679 l 1,15,-1
 1299 802 l 1,16,-1
 1394 810 l 1,17,-1
 1360 424 l 1,18,-1
 1275 409 l 1,19,-1
 1241 586 l 1,20,-1
 998 586 l 1,21,-1
 998 96 l 1,22,-1
 1462 96 l 1,23,-1
 1563 329 l 1,24,-1
 1643 313 l 1,25,-1
 1613 0 l 1,26,-1
 642 0 l 1,27,-1
 650 74 l 1,28,-1
 817 121 l 1,29,-1
 817 472 l 1,30,-1
 458 472 l 1,31,-1
 240 126 l 1,32,-1
 428 83 l 1,33,-1
 415 1 l 1,34,-1
 -40 1 l 1,3,-1
EndSplineSet
Colour: ffffff
EndChar

StartChar: Aacute
Encoding: 193 193 2
Width: 1234
VWidth: 0
Flags: MW
LayerCount: 2
Fore
SplineSet
593 1385 m 1,0,-1
 716 1710 l 1,1,-1
 827 1670 l 1,2,-1
 643 1354 l 1,3,-1
 593 1385 l 1,0,-1
406 534 m 1,4,-1
 758 534 l 1,5,-1
 592 1034 l 1,6,-1
 406 534 l 1,4,-1
-37 0 m 1,7,-1
 -28 74 l 1,8,-1
 121 129 l 1,9,-1
 559 1237 l 1,10,-1
 710 1268 l 1,11,-1
 1100 124 l 1,12,-1
 1237 80 l 1,13,-1
 1228 0 l 1,14,-1
 713 0 l 1,15,-1
 725 74 l 1,16,-1
 896 129 l 1,17,-1
 787 432 l 1,18,-1
 368 432 l 1,19,-1
 256 124 l 1,20,-1
 442 80 l 1,21,-1
 431 0 l 1,22,-1
 -37 0 l 1,7,-1
EndSplineSet
Colour: ffffff
EndChar

StartChar: Acircumflex
Encoding: 194 194 3
Width: 1234
VWidth: 0
Flags: MW
LayerCount: 2
Fore
SplineSet
443 1392 m 1,0,-1
 611 1572 l 1,1,-1
 666 1585 l 1,2,-1
 844 1400 l 1,3,-1
 794 1364 l 1,4,-1
 632 1472 l 1,5,-1
 621 1472 l 1,6,-1
 480 1361 l 1,7,-1
 443 1392 l 1,0,-1
406 534 m 1,8,-1
 758 534 l 1,9,-1
 592 1034 l 1,10,-1
 406 534 l 1,8,-1
-37 0 m 1,11,-1
 -28 74 l 1,12,-1
 121 129 l 1,13,-1
 559 1237 l 1,14,-1
 710 1268 l 1,15,-1
 1100 124 l 1,16,-1
 1237 80 l 1,17,-1
 1228 0 l 1,18,-1
 713 0 l 1,19,-1
 725 74 l 1,20,-1
 896 129 l 1,21,-1
 787 432 l 1,22,-1
 368 432 l 1,23,-1
 256 124 l 1,24,-1
 442 80 l 1,25,-1
 431 0 l 1,26,-1
 -37 0 l 1,11,-1
EndSplineSet
Colour: ffffff
EndChar

StartChar: Adieresis
Encoding: 196 196 4
Width: 1234
VWidth: 0
Flags: MW
LayerCount: 2
Fore
SplineSet
690 1453 m 0,0,1
 690 1487 690 1487 715.5 1508.5 c 128,-1,2
 741 1530 741 1530 773 1530 c 0,3,4
 808 1530 808 1530 834.5 1508 c 128,-1,5
 861 1486 861 1486 861 1453 c 0,6,7
 861 1418 861 1418 834.5 1395.5 c 128,-1,8
 808 1373 808 1373 773 1373 c 0,9,10
 739 1373 739 1373 714.5 1395.5 c 128,-1,11
 690 1418 690 1418 690 1453 c 0,0,1
423 1453 m 0,12,13
 423 1487 423 1487 448.5 1508.5 c 128,-1,14
 474 1530 474 1530 506 1530 c 0,15,16
 540 1530 540 1530 566 1508 c 128,-1,17
 592 1486 592 1486 592 1453 c 0,18,19
 592 1418 592 1418 566.5 1395.5 c 128,-1,20
 541 1373 541 1373 506 1373 c 0,21,22
 472 1373 472 1373 447.5 1395.5 c 128,-1,23
 423 1418 423 1418 423 1453 c 0,12,13
406 534 m 1,24,-1
 758 534 l 1,25,-1
 592 1034 l 1,26,-1
 406 534 l 1,24,-1
-37 0 m 1,27,-1
 -28 74 l 1,28,-1
 121 129 l 1,29,-1
 559 1237 l 1,30,-1
 710 1268 l 1,31,-1
 1100 124 l 1,32,-1
 1237 80 l 1,33,-1
 1228 0 l 1,34,-1
 713 0 l 1,35,-1
 725 74 l 1,36,-1
 896 129 l 1,37,-1
 787 432 l 1,38,-1
 368 432 l 1,39,-1
 256 124 l 1,40,-1
 442 80 l 1,41,-1
 431 0 l 1,42,-1
 -37 0 l 1,27,-1
EndSplineSet
Colour: ffffff
EndChar

StartChar: Agrave
Encoding: 192 192 5
Width: 2048
VWidth: 0
Flags: M
LayerCount: 2
Fore
SplineSet
436 1664 m 1,0,-1
 552 1702 l 1,1,-1
 684 1368 l 1,2,-1
 627 1334 l 1,3,-1
 436 1664 l 1,0,-1
406 534 m 1,4,-1
 758 534 l 1,5,-1
 592 1034 l 1,6,-1
 406 534 l 1,4,-1
-37 0 m 1,7,-1
 -28 74 l 1,8,-1
 121 129 l 1,9,-1
 559 1237 l 1,10,-1
 710 1268 l 1,11,-1
 1100 124 l 1,12,-1
 1237 80 l 1,13,-1
 1228 0 l 1,14,-1
 713 0 l 1,15,-1
 725 74 l 1,16,-1
 896 129 l 1,17,-1
 787 432 l 1,18,-1
 368 432 l 1,19,-1
 256 124 l 1,20,-1
 442 80 l 1,21,-1
 431 0 l 1,22,-1
 -37 0 l 1,7,-1
EndSplineSet
Colour: ffffff
EndChar

StartChar: Aring
Encoding: 197 197 6
Width: 1234
VWidth: 0
Flags: MW
LayerCount: 2
Fore
SplineSet
552 1543 m 0,0,1
 552 1492 552 1492 577 1453.5 c 128,-1,2
 602 1415 602 1415 647 1415 c 0,3,4
 688 1415 688 1415 711 1445 c 128,-1,5
 734 1475 734 1475 734 1529 c 0,6,7
 734 1579 734 1579 707 1617.5 c 128,-1,8
 680 1656 680 1656 636 1656 c 0,9,10
 595 1656 595 1656 573.5 1623 c 128,-1,11
 552 1590 552 1590 552 1543 c 0,0,1
480 1532 m 0,12,13
 480 1601 480 1601 530 1652.5 c 128,-1,14
 580 1704 580 1704 649 1704 c 0,15,16
 720 1704 720 1704 762 1658.5 c 128,-1,17
 804 1613 804 1613 804 1542 c 0,18,19
 804 1472 804 1472 757 1419.5 c 128,-1,20
 710 1367 710 1367 636 1367 c 0,21,22
 566 1367 566 1367 523 1411.5 c 128,-1,23
 480 1456 480 1456 480 1532 c 0,12,13
406 534 m 1,24,-1
 758 534 l 1,25,-1
 592 1034 l 1,26,-1
 406 534 l 1,24,-1
-37 0 m 1,27,-1
 -28 74 l 1,28,-1
 121 129 l 1,29,-1
 559 1237 l 1,30,-1
 710 1268 l 1,31,-1
 1100 124 l 1,32,-1
 1237 80 l 1,33,-1
 1228 0 l 1,34,-1
 713 0 l 1,35,-1
 725 74 l 1,36,-1
 896 129 l 1,37,-1
 787 432 l 1,38,-1
 368 432 l 1,39,-1
 256 124 l 1,40,-1
 442 80 l 1,41,-1
 431 0 l 1,42,-1
 -37 0 l 1,27,-1
EndSplineSet
Colour: ffffff
EndChar

StartChar: Atilde
Encoding: 195 195 7
Width: 1234
VWidth: 0
Flags: MW
LayerCount: 2
Fore
SplineSet
406 1383 m 1,0,1
 407 1389 407 1389 410 1398.5 c 128,-1,2
 413 1408 413 1408 423.5 1432.5 c 128,-1,3
 434 1457 434 1457 447 1476 c 128,-1,4
 460 1495 460 1495 482 1510.5 c 128,-1,5
 504 1526 504 1526 529 1526 c 2,6,-1
 543 1526 l 1,7,-1
 764 1496 l 1,8,-1
 768 1496 l 2,9,10
 779 1496 779 1496 793.5 1506 c 128,-1,11
 808 1516 808 1516 816 1526 c 2,12,-1
 825 1536 l 1,13,-1
 872 1535 l 1,14,15
 870 1529 870 1529 867 1519.5 c 128,-1,16
 864 1510 864 1510 853 1485 c 128,-1,17
 842 1460 842 1460 828.5 1441 c 128,-1,18
 815 1422 815 1422 792 1406.5 c 128,-1,19
 769 1391 769 1391 743 1391 c 0,20,21
 734 1391 734 1391 730 1392 c 2,22,-1
 507 1423 l 1,23,-1
 504 1423 l 2,24,25
 492 1423 492 1423 477 1411.5 c 128,-1,26
 462 1400 462 1400 454 1388 c 2,27,-1
 445 1376 l 1,28,-1
 406 1383 l 1,0,1
406 534 m 1,29,-1
 758 534 l 1,30,-1
 592 1034 l 1,31,-1
 406 534 l 1,29,-1
-37 0 m 1,32,-1
 -28 74 l 1,33,-1
 121 129 l 1,34,-1
 559 1237 l 1,35,-1
 710 1268 l 1,36,-1
 1100 124 l 1,37,-1
 1237 80 l 1,38,-1
 1228 0 l 1,39,-1
 713 0 l 1,40,-1
 725 74 l 1,41,-1
 896 129 l 1,42,-1
 787 432 l 1,43,-1
 368 432 l 1,44,-1
 256 124 l 1,45,-1
 442 80 l 1,46,-1
 431 0 l 1,47,-1
 -37 0 l 1,32,-1
EndSplineSet
Colour: ffffff
EndChar

StartChar: B
Encoding: 66 66 8
Width: 1127
VWidth: 1691
Flags: MW
LayerCount: 2
Fore
SplineSet
420 688 m 1,0,-1
 678 688 l 1,1,2
 808 742 808 742 808 909 c 0,3,4
 808 959 808 959 793.5 1002.5 c 128,-1,5
 779 1046 779 1046 746 1085.5 c 128,-1,6
 713 1125 713 1125 650 1148 c 128,-1,7
 587 1171 587 1171 500 1171 c 0,8,9
 467 1171 467 1171 420 1164 c 1,10,-1
 420 688 l 1,0,-1
420 96 m 1,11,-1
 640 96 l 2,12,13
 764 96 764 96 834 169.5 c 128,-1,14
 904 243 904 243 904 347 c 0,15,16
 904 449 904 449 835 527 c 128,-1,17
 766 605 766 605 643 605 c 2,18,-1
 420 605 l 1,19,-1
 420 96 l 1,11,-1
50 0 m 1,20,-1
 61 74 l 1,21,-1
 228 121 l 1,22,-1
 228 1104 l 1,23,-1
 57 1134 l 1,24,-1
 67 1211 l 1,25,26
 385 1257 385 1257 559 1257 c 0,27,28
 671 1257 671 1257 757.5 1233 c 128,-1,29
 844 1209 844 1209 894.5 1168 c 128,-1,30
 945 1127 945 1127 970.5 1076.5 c 128,-1,31
 996 1026 996 1026 996 967 c 0,32,33
 996 910 996 910 978.5 858.5 c 128,-1,34
 961 807 961 807 912.5 756.5 c 128,-1,35
 864 706 864 706 790 679 c 1,36,-1
 790 672 l 1,37,38
 934 664 934 664 1017 576 c 128,-1,39
 1100 488 1100 488 1100 380 c 0,40,41
 1100 321 1100 321 1083.5 268 c 128,-1,42
 1067 215 1067 215 1028 165 c 128,-1,43
 989 115 989 115 929.5 79 c 128,-1,44
 870 43 870 43 777.5 21.5 c 128,-1,45
 685 0 685 0 568 0 c 2,46,-1
 50 0 l 1,20,-1
EndSplineSet
Colour: ffffff
EndChar

StartChar: C
Encoding: 67 67 9
Width: 1111
VWidth: 1691
Flags: MW
LayerCount: 2
Fore
SplineSet
61 589 m 0,0,1
 61 681 61 681 83.5 773.5 c 128,-1,2
 106 866 106 866 156.5 956 c 128,-1,3
 207 1046 207 1046 279.5 1115 c 128,-1,4
 352 1184 352 1184 462 1226.5 c 128,-1,5
 572 1269 572 1269 704 1269 c 0,6,7
 934 1269 934 1269 1066 1169 c 1,8,-1
 1035 837 l 1,9,-1
 947 850 l 1,10,-1
 905 1070 l 1,11,12
 824 1174 824 1174 647 1174 c 0,13,14
 487 1174 487 1174 381 1034 c 128,-1,15
 275 894 275 894 275 658 c 0,16,17
 275 528 275 528 312.5 422 c 128,-1,18
 350 316 350 316 413 249 c 128,-1,19
 476 182 476 182 557 146.5 c 128,-1,20
 638 111 638 111 728 111 c 0,21,22
 822 111 822 111 914.5 153.5 c 128,-1,23
 1007 196 1007 196 1078 261 c 1,24,-1
 1113 185 l 1,25,26
 1045 102 1045 102 920 39 c 128,-1,27
 795 -24 795 -24 651 -24 c 0,28,29
 534 -24 534 -24 429 16.5 c 128,-1,30
 324 57 324 57 241.5 132 c 128,-1,31
 159 207 159 207 110 325.5 c 128,-1,32
 61 444 61 444 61 589 c 0,0,1
EndSplineSet
Colour: ffffff
EndChar

StartChar: Ccedilla
Encoding: 199 199 10
Width: 2048
VWidth: 0
Flags: M
LayerCount: 2
Fore
SplineSet
61 589 m 0,0,1
 61 681 61 681 83.5 773.5 c 128,-1,2
 106 866 106 866 156.5 956 c 128,-1,3
 207 1046 207 1046 280 1115 c 128,-1,4
 353 1184 353 1184 463 1226.5 c 128,-1,5
 573 1269 573 1269 705 1269 c 0,6,7
 934 1269 934 1269 1066 1169 c 1,8,-1
 1035 837 l 1,9,-1
 947 850 l 1,10,-1
 906 1070 l 1,11,12
 825 1174 825 1174 647 1174 c 0,13,14
 487 1174 487 1174 381 1034 c 128,-1,15
 275 894 275 894 275 658 c 0,16,17
 275 528 275 528 312.5 422 c 128,-1,18
 350 316 350 316 413.5 249 c 128,-1,19
 477 182 477 182 558 146.5 c 128,-1,20
 639 111 639 111 729 111 c 0,21,22
 823 111 823 111 915 153.5 c 128,-1,23
 1007 196 1007 196 1078 261 c 1,24,-1
 1114 185 l 1,25,26
 1058 117 1058 117 959 59 c 128,-1,27
 860 1 860 1 743 -18 c 1,28,-1
 703 -76 l 1,29,30
 792 -155 792 -155 792 -227 c 0,31,32
 792 -330 792 -330 592 -389 c 1,33,-1
 572 -331 l 1,34,35
 613 -317 613 -317 635.5 -294.5 c 128,-1,36
 658 -272 658 -272 658 -248 c 0,37,38
 658 -207 658 -207 585 -138 c 1,39,-1
 663 -24 l 1,40,-1
 652 -24 l 2,41,42
 535 -24 535 -24 429.5 16.5 c 128,-1,43
 324 57 324 57 241.5 132 c 128,-1,44
 159 207 159 207 110 325.5 c 128,-1,45
 61 444 61 444 61 589 c 0,0,1
EndSplineSet
Colour: ffffff
EndChar

StartChar: D
Encoding: 68 68 11
Width: 1327
VWidth: 1691
Flags: MW
LayerCount: 2
Fore
SplineSet
424 104 m 1,0,-1
 569 104 l 2,1,2
 698 104 698 104 800 143.5 c 128,-1,3
 902 183 902 183 965 251.5 c 128,-1,4
 1028 320 1028 320 1060.5 408 c 128,-1,5
 1093 496 1093 496 1093 598 c 0,6,7
 1093 715 1093 715 1058.5 815 c 128,-1,8
 1024 915 1024 915 958 991.5 c 128,-1,9
 892 1068 892 1068 786 1111.5 c 128,-1,10
 680 1155 680 1155 546 1155 c 0,11,12
 464 1155 464 1155 424 1151 c 1,13,-1
 424 104 l 1,0,-1
47 0 m 1,14,-1
 61 74 l 1,15,-1
 233 129 l 1,16,-1
 233 1103 l 1,17,-1
 61 1133 l 1,18,-1
 70 1209 l 1,19,20
 381 1258 381 1258 583 1258 c 0,21,22
 746 1258 746 1258 873 1224 c 128,-1,23
 1000 1190 1000 1190 1080 1134 c 128,-1,24
 1160 1078 1160 1078 1211.5 998.5 c 128,-1,25
 1263 919 1263 919 1283.5 834.5 c 128,-1,26
 1304 750 1304 750 1304 653 c 0,27,28
 1304 549 1304 549 1274.5 453.5 c 128,-1,29
 1245 358 1245 358 1182.5 275 c 128,-1,30
 1120 192 1120 192 1031 131 c 128,-1,31
 942 70 942 70 816.5 35 c 128,-1,32
 691 0 691 0 541 0 c 2,33,-1
 47 0 l 1,14,-1
EndSplineSet
Colour: ffffff
EndChar

StartChar: E
Encoding: 69 69 12
Width: 1075
VWidth: 1691
Flags: MW
LayerCount: 2
Fore
SplineSet
50 1168 m 1,0,-1
 61 1244 l 1,1,-1
 1056 1244 l 1,2,-1
 1025 924 l 1,3,-1
 938 937 l 1,4,-1
 897 1152 l 1,5,-1
 426 1152 l 1,6,-1
 426 676 l 1,7,-1
 716 676 l 1,8,-1
 758 796 l 1,9,-1
 853 810 l 1,10,-1
 819 421 l 1,11,-1
 734 408 l 1,12,-1
 700 583 l 1,13,-1
 426 583 l 1,14,-1
 426 96 l 1,15,-1
 921 96 l 1,16,-1
 1019 326 l 1,17,-1
 1102 313 l 1,18,-1
 1072 0 l 1,19,-1
 57 0 l 1,20,-1
 65 74 l 1,21,-1
 232 121 l 1,22,-1
 232 1126 l 1,23,-1
 50 1168 l 1,0,-1
EndSplineSet
Colour: ffffff
EndChar

StartChar: Eacute
Encoding: 201 201 13
Width: 1142
VWidth: 0
Flags: MW
LayerCount: 2
Fore
SplineSet
517 1385 m 1,0,-1
 640 1710 l 1,1,-1
 751 1670 l 1,2,-1
 568 1354 l 1,3,-1
 517 1385 l 1,0,-1
50 1168 m 1,4,-1
 61 1244 l 1,5,-1
 1056 1244 l 1,6,-1
 1025 924 l 1,7,-1
 938 937 l 1,8,-1
 897 1152 l 1,9,-1
 426 1152 l 1,10,-1
 426 676 l 1,11,-1
 716 676 l 1,12,-1
 758 796 l 1,13,-1
 853 810 l 1,14,-1
 819 421 l 1,15,-1
 734 408 l 1,16,-1
 700 583 l 1,17,-1
 426 583 l 1,18,-1
 426 96 l 1,19,-1
 921 96 l 1,20,-1
 1019 326 l 1,21,-1
 1102 313 l 1,22,-1
 1072 0 l 1,23,-1
 57 0 l 1,24,-1
 65 74 l 1,25,-1
 232 121 l 1,26,-1
 232 1126 l 1,27,-1
 50 1168 l 1,4,-1
EndSplineSet
Colour: ffffff
EndChar

StartChar: Ecircumflex
Encoding: 202 202 14
Width: 1142
VWidth: 0
Flags: MW
LayerCount: 2
Fore
SplineSet
406 1387 m 1,0,-1
 574 1566 l 1,1,-1
 629 1581 l 1,2,-1
 807 1395 l 1,3,-1
 758 1358 l 1,4,-1
 595 1468 l 1,5,-1
 584 1468 l 1,6,-1
 445 1357 l 1,7,-1
 406 1387 l 1,0,-1
75 1168 m 1,8,-1
 86 1244 l 1,9,-1
 1081 1244 l 1,10,-1
 1050 924 l 1,11,-1
 963 937 l 1,12,-1
 922 1152 l 1,13,-1
 451 1152 l 1,14,-1
 451 676 l 1,15,-1
 741 676 l 1,16,-1
 783 796 l 1,17,-1
 878 810 l 1,18,-1
 844 421 l 1,19,-1
 759 408 l 1,20,-1
 725 583 l 1,21,-1
 451 583 l 1,22,-1
 451 96 l 1,23,-1
 946 96 l 1,24,-1
 1044 326 l 1,25,-1
 1127 313 l 1,26,-1
 1097 0 l 1,27,-1
 82 0 l 1,28,-1
 90 74 l 1,29,-1
 257 121 l 1,30,-1
 257 1126 l 1,31,-1
 75 1168 l 1,8,-1
EndSplineSet
Colour: ffffff
EndChar

StartChar: Edieresis
Encoding: 203 203 15
Width: 1142
VWidth: 0
Flags: MW
LayerCount: 2
Fore
SplineSet
647 1453 m 0,0,1
 647 1487 647 1487 672.5 1508.5 c 128,-1,2
 698 1530 698 1530 730 1530 c 0,3,4
 765 1530 765 1530 791.5 1508 c 128,-1,5
 818 1486 818 1486 818 1453 c 0,6,7
 818 1418 818 1418 791.5 1395.5 c 128,-1,8
 765 1373 765 1373 730 1373 c 0,9,10
 696 1373 696 1373 671.5 1395.5 c 128,-1,11
 647 1418 647 1418 647 1453 c 0,0,1
380 1453 m 0,12,13
 380 1487 380 1487 405.5 1508.5 c 128,-1,14
 431 1530 431 1530 463 1530 c 0,15,16
 497 1530 497 1530 523 1508 c 128,-1,17
 549 1486 549 1486 549 1453 c 0,18,19
 549 1418 549 1418 523.5 1395.5 c 128,-1,20
 498 1373 498 1373 463 1373 c 0,21,22
 429 1373 429 1373 404.5 1395.5 c 128,-1,23
 380 1418 380 1418 380 1453 c 0,12,13
50 1168 m 1,24,-1
 61 1244 l 1,25,-1
 1056 1244 l 1,26,-1
 1025 924 l 1,27,-1
 938 937 l 1,28,-1
 897 1152 l 1,29,-1
 426 1152 l 1,30,-1
 426 676 l 1,31,-1
 716 676 l 1,32,-1
 758 796 l 1,33,-1
 853 810 l 1,34,-1
 819 421 l 1,35,-1
 734 408 l 1,36,-1
 700 583 l 1,37,-1
 426 583 l 1,38,-1
 426 96 l 1,39,-1
 921 96 l 1,40,-1
 1019 326 l 1,41,-1
 1102 313 l 1,42,-1
 1072 0 l 1,43,-1
 57 0 l 1,44,-1
 65 74 l 1,45,-1
 232 121 l 1,46,-1
 232 1126 l 1,47,-1
 50 1168 l 1,24,-1
EndSplineSet
Colour: ffffff
EndChar

StartChar: Egrave
Encoding: 200 200 16
Width: 1142
VWidth: 0
Flags: MW
LayerCount: 2
Fore
SplineSet
443 1664 m 1,0,-1
 559 1702 l 1,1,-1
 691 1368 l 1,2,-1
 633 1334 l 1,3,-1
 443 1664 l 1,0,-1
50 1168 m 1,4,-1
 61 1244 l 1,5,-1
 1056 1244 l 1,6,-1
 1025 924 l 1,7,-1
 938 937 l 1,8,-1
 897 1152 l 1,9,-1
 426 1152 l 1,10,-1
 426 676 l 1,11,-1
 716 676 l 1,12,-1
 758 796 l 1,13,-1
 853 810 l 1,14,-1
 819 421 l 1,15,-1
 734 408 l 1,16,-1
 700 583 l 1,17,-1
 426 583 l 1,18,-1
 426 96 l 1,19,-1
 921 96 l 1,20,-1
 1019 326 l 1,21,-1
 1102 313 l 1,22,-1
 1072 0 l 1,23,-1
 57 0 l 1,24,-1
 65 74 l 1,25,-1
 232 121 l 1,26,-1
 232 1126 l 1,27,-1
 50 1168 l 1,4,-1
EndSplineSet
Colour: ffffff
EndChar

StartChar: Eth
Encoding: 208 208 17
Width: 1374
VWidth: 0
Flags: MW
LayerCount: 2
Fore
SplineSet
424 104 m 1,0,-1
 636 104 l 2,1,2
 755 104 755 104 847 144.5 c 128,-1,3
 939 185 939 185 993.5 255.5 c 128,-1,4
 1048 326 1048 326 1075.5 412.5 c 128,-1,5
 1103 499 1103 499 1103 598 c 0,6,7
 1103 715 1103 715 1067.5 815.5 c 128,-1,8
 1032 916 1032 916 964.5 992.5 c 128,-1,9
 897 1069 897 1069 789.5 1113 c 128,-1,10
 682 1157 682 1157 546 1157 c 0,11,12
 484 1157 484 1157 424 1151 c 1,13,-1
 424 672 l 1,14,-1
 682 693 l 1,15,-1
 670 602 l 1,16,-1
 424 581 l 1,17,-1
 424 104 l 1,0,-1
47 0 m 1,18,-1
 61 74 l 1,19,-1
 233 129 l 1,20,-1
 233 569 l 1,21,-1
 53 555 l 1,22,-1
 64 647 l 1,23,-1
 233 660 l 1,24,-1
 233 1104 l 1,25,-1
 61 1134 l 1,26,-1
 70 1211 l 1,27,28
 381 1260 381 1260 583 1260 c 0,29,30
 746 1260 746 1260 874.5 1226.5 c 128,-1,31
 1003 1193 1003 1193 1085 1137 c 128,-1,32
 1167 1081 1167 1081 1220 1002.5 c 128,-1,33
 1273 924 1273 924 1295 839.5 c 128,-1,34
 1317 755 1317 755 1317 658 c 0,35,36
 1317 559 1317 559 1286.5 464.5 c 128,-1,37
 1256 370 1256 370 1192.5 285.5 c 128,-1,38
 1129 201 1129 201 1040.5 137.5 c 128,-1,39
 952 74 952 74 828 37 c 128,-1,40
 704 0 704 0 560 0 c 2,41,-1
 47 0 l 1,18,-1
EndSplineSet
Colour: ffffff
EndChar

StartChar: Euro
Encoding: 8364 8364 18
Width: 1161
VWidth: 0
Flags: MW
LayerCount: 2
Back
SplineSet
-43.7471 649.094 m 1,0,-1
 -41.7129 732.52 l 1,1,-1
 956.344 732.52 l 1,2,-1
 940.065 649.094 l 1,3,-1
 -43.7471 649.094 l 1,0,-1
-35.6084 868.849 m 1,4,-1
 -33.5742 951.257 l 1,5,-1
 1014.33 951.257 l 1,6,-1
 998.057 868.849 l 1,7,-1
 -35.6084 868.849 l 1,4,-1
178.043 732.52 m 0,8,9
 178.043 876.313 178.043 876.313 203.925 1003.88 c 0
 229.807 1131.46 229.807 1131.46 284.6 1240.14 c 0
 339.393 1348.82 339.393 1348.82 418.944 1427.25 c 0
 498.494 1505.68 498.494 1505.68 611.694 1549.96 c 0
 724.894 1594.25 724.894 1594.25 861.727 1594.25 c 0,10,11
 985.429 1594.25 985.429 1594.25 1069.39 1566.44 c 0
 1153.36 1538.63 1153.36 1538.63 1245.28 1469.11 c 1,12,-1
 1204.59 1045.87 l 1,13,-1
 1149.65 1056.05 l 1,14,-1
 1112 1381.61 l 1,15,16
 1072.18 1449.07 1072.18 1449.07 1014.95 1480.96 c 0
 957.733 1512.85 957.733 1512.85 856.641 1512.85 c 0,17,18
 688.496 1512.85 688.496 1512.85 569.753 1422.47 c 0
 451.009 1332.08 451.009 1332.08 391.339 1166.44 c 0
 331.669 1000.8 331.669 1000.8 331.669 772.196 c 0,19,20
 331.669 594.07 331.669 594.07 368.45 456.973 c 0
 405.232 319.876 405.232 319.876 473.868 231.767 c 0
 542.503 143.657 542.503 143.657 638.407 98.7896 c 0
 734.31 53.9219 734.31 53.9219 854.604 53.9219 c 0,21,22
 920.693 53.9219 920.693 53.9219 996.807 94.5556 c 0
 1072.92 135.189 1072.92 135.189 1131.33 215.686 c 1,23,-1
 1170 542.268 l 1,24,-1
 1225.95 549.389 l 1,25,-1
 1265.63 129.209 l 1,26,27
 1146.61 44.6586 1146.61 44.6586 1041.61 6.55975 c 0
 936.614 -31.5391 936.614 -31.5391 790.509 -31.5391 c 0,28,29
 656.96 -31.5391 656.96 -31.5391 543.488 23.1771 c 0
 430.016 77.8933 430.016 77.8933 349.412 176.469 c 0
 268.807 275.045 268.807 275.045 223.425 418.273 c 0
 178.043 561.502 178.043 561.502 178.043 732.52 c 0,8,9
EndSplineSet
Fore
SplineSet
11 487 m 1,0,-1
 20 586 l 1,1,-1
 161 586 l 1,2,3
 205 746 205 746 331 846.5 c 128,-1,4
 457 947 457 947 638 947 c 0,5,6
 682 947 682 947 722.5 940 c 128,-1,7
 763 933 763 933 790 923.5 c 128,-1,8
 817 914 817 914 836.5 904 c 128,-1,9
 856 894 856 894 866 887 c 2,10,-1
 876 880 l 1,11,-1
 855 602 l 1,12,-1
 757 615 l 1,13,-1
 735 775 l 1,14,15
 697 852 697 852 568 852 c 0,16,17
 475 852 475 852 423.5 789 c 128,-1,18
 372 726 372 726 358 586 c 1,19,-1
 665 586 l 1,20,-1
 644 487 l 1,21,-1
 352 487 l 1,22,23
 352 475 352 475 352 463 c 0,24,25
 352 436 352 436 354 411 c 1,26,-1
 626 411 l 1,27,-1
 605 312 l 1,28,-1
 374 312 l 1,29,30
 407 211 407 211 478.5 157 c 128,-1,31
 550 103 550 103 635 103 c 0,32,33
 795 103 795 103 886 197 c 1,34,-1
 929 120 l 1,35,36
 919 101 919 101 893.5 78.5 c 128,-1,37
 868 56 868 56 827.5 32 c 128,-1,38
 787 8 787 8 723 -8 c 128,-1,39
 659 -24 659 -24 586 -24 c 0,40,41
 414 -24 414 -24 298.5 62 c 128,-1,42
 183 148 183 148 151 312 c 1,43,-1
 11 312 l 1,44,-1
 21 411 l 1,45,-1
 140 411 l 1,46,47
 140 421 140 421 140 432 c 0,48,49
 140 460 140 460 143 487 c 1,50,-1
 11 487 l 1,0,-1
EndSplineSet
Colour: ffffff
EndChar

StartChar: F
Encoding: 70 70 19
Width: 1028
VWidth: 1691
Flags: MW
LayerCount: 2
Fore
SplineSet
50 1168 m 1,0,-1
 61 1244 l 1,1,-1
 1054 1244 l 1,2,-1
 1013 922 l 1,3,-1
 925 936 l 1,4,-1
 891 1152 l 1,5,-1
 426 1152 l 1,6,-1
 426 670 l 1,7,-1
 713 670 l 1,8,-1
 755 790 l 1,9,-1
 845 804 l 1,10,-1
 818 412 l 1,11,-1
 730 398 l 1,12,-1
 700 578 l 1,13,-1
 426 578 l 1,14,-1
 423 122 l 1,15,-1
 661 83 l 1,16,-1
 648 0 l 1,17,-1
 57 0 l 1,18,-1
 65 74 l 1,19,-1
 232 121 l 1,20,-1
 232 1126 l 1,21,-1
 50 1168 l 1,0,-1
EndSplineSet
Colour: ffffff
EndChar

StartChar: G
Encoding: 71 71 20
Width: 1276
VWidth: 1691
Flags: MW
LayerCount: 2
Fore
SplineSet
61 578 m 0,0,1
 61 734 61 734 118.5 865 c 128,-1,2
 176 996 176 996 271 1081 c 128,-1,3
 366 1166 366 1166 487 1213 c 128,-1,4
 608 1260 608 1260 737 1260 c 0,5,6
 984 1260 984 1260 1139 1163 c 1,7,-1
 1115 841 l 1,8,-1
 1028 856 l 1,9,-1
 992 1047 l 1,10,11
 948 1092 948 1092 868.5 1126.5 c 128,-1,12
 789 1161 789 1161 677 1161 c 0,13,14
 593 1161 593 1161 522.5 1131.5 c 128,-1,15
 452 1102 452 1102 395.5 1042 c 128,-1,16
 339 982 339 982 307.5 881 c 128,-1,17
 276 780 276 780 276 647 c 0,18,19
 276 558 276 558 296.5 474 c 128,-1,20
 317 390 317 390 359 318 c 128,-1,21
 401 246 401 246 459.5 192 c 128,-1,22
 518 138 518 138 598 107.5 c 128,-1,23
 678 77 678 77 771 77 c 0,24,25
 870 77 870 77 943 119 c 1,26,-1
 943 434 l 1,27,-1
 707 472 l 1,28,-1
 719 555 l 1,29,-1
 1275 555 l 1,30,-1
 1263 480 l 1,31,-1
 1139 439 l 1,32,-1
 1139 79 l 1,33,34
 1042 21 1042 21 926.5 -5 c 128,-1,35
 811 -31 811 -31 658 -31 c 0,36,37
 511 -31 511 -31 395.5 16 c 128,-1,38
 280 63 280 63 208 146 c 128,-1,39
 136 229 136 229 98.5 338.5 c 128,-1,40
 61 448 61 448 61 578 c 0,0,1
EndSplineSet
Colour: ffffff
EndChar

StartChar: Germandbls
Encoding: 7838 7838 21
Width: 1283
VWidth: 0
Flags: MW
LayerCount: 2
Fore
SplineSet
26 0 m 1,0,-1
 34 73 l 1,1,-1
 198 119 l 1,2,-1
 198 751 l 2,3,4
 198 1005 198 1005 327.5 1127.5 c 128,-1,5
 457 1250 457 1250 689 1250 c 0,6,7
 767 1250 767 1250 843.5 1240 c 128,-1,8
 920 1230 920 1230 997 1207.5 c 128,-1,9
 1074 1185 1074 1185 1121.5 1139.5 c 128,-1,10
 1169 1094 1169 1094 1169 1032 c 0,11,12
 1169 978 1169 978 1140 948 c 128,-1,13
 1111 918 1111 918 1049 897 c 1,14,15
 1036 933 1036 933 1030 950 c 128,-1,16
 1024 967 1024 967 1010.5 998 c 128,-1,17
 997 1029 997 1029 984.5 1044.5 c 128,-1,18
 972 1060 972 1060 953.5 1078.5 c 128,-1,19
 935 1097 935 1097 912.5 1104.5 c 128,-1,20
 890 1112 890 1112 862 1112 c 0,21,22
 797 1112 797 1112 744 1056.5 c 128,-1,23
 691 1001 691 1001 691 928 c 0,24,25
 691 869 691 869 721 822 c 128,-1,26
 751 775 751 775 798.5 742.5 c 128,-1,27
 846 710 846 710 904 680 c 128,-1,28
 962 650 962 650 1019.5 617.5 c 128,-1,29
 1077 585 1077 585 1124.5 546.5 c 128,-1,30
 1172 508 1172 508 1202 449 c 128,-1,31
 1232 390 1232 390 1232 316 c 0,32,33
 1232 207 1232 207 1176.5 128.5 c 128,-1,34
 1121 50 1121 50 1031 13 c 128,-1,35
 941 -24 941 -24 826 -24 c 0,36,37
 717 -24 717 -24 626 15 c 128,-1,38
 535 54 535 54 494 121 c 1,39,-1
 507 376 l 1,40,-1
 602 361 l 1,41,-1
 637 184 l 1,42,43
 665 139 665 139 724 107.5 c 128,-1,44
 783 76 783 76 849 76 c 0,45,46
 1050 76 1050 76 1050 250 c 0,47,48
 1050 301 1050 301 1021 342.5 c 128,-1,49
 992 384 992 384 945 413 c 128,-1,50
 898 442 898 442 842 470 c 128,-1,51
 786 498 786 498 729.5 530 c 128,-1,52
 673 562 673 562 626 600 c 128,-1,53
 579 638 579 638 550 697 c 128,-1,54
 521 756 521 756 521 829 c 0,55,56
 521 950 521 950 588 1040.5 c 128,-1,57
 655 1131 655 1131 761 1155 c 1,58,-1
 763 1158 l 1,59,60
 735 1161 735 1161 676 1161 c 0,61,62
 387 1161 387 1161 387 774 c 2,63,-1
 389 0 l 1,64,-1
 26 0 l 1,0,-1
EndSplineSet
AlternateSubs2: "Alternate Substitution in Latin lookup 0-1" Germandbls.alt
Colour: ffffff
EndChar

StartChar: Germandbls.alt
Encoding: 65536 -1 22
Width: 1283
VWidth: 0
Flags: MW
LayerCount: 2
Back
SplineSet
453 122 m 5,0,-1
 466 389 l 1,1,-1
 568 375 l 1,2,-1
 607 187 l 1,3,4
 636 141 636 141 691.5 109 c 0
 747 77 747 77 813 77 c 0,5,6
 870 77 870 77 921.5 97.5 c 0
 973 118 973 118 1011.5 167.5 c 0
 1050 217 1050 217 1050 287 c 0,7,8
 1050 339 1050 339 1018.5 383.5 c 0
 987 428 987 428 936.5 461 c 0
 886 494 886 494 825 526 c 0
 764 558 764 558 702.5 594.5 c 0
 641 631 641 631 590.5 673.5 c 0
 540 716 540 716 508.5 778.5 c 0
 477 841 477 841 477 916 c 0,9,10
 477 1025 477 1025 534 1107 c 0
 591 1189 591 1189 678 1229 c 0
 765 1269 765 1269 866 1269 c 0,11,12
 1028 1269 1028 1269 1148 1169 c 1,13,14
 1126 887 l 1,15,-1
 1027 899 l 1,16,-1
 1002 1090 l 1,17,18
 986 1122 986 1122 936.5 1153.5 c 0
 887 1185 887 1185 832 1185 c 0,19,20
 752 1185 752 1185 701 1137 c 0
 650 1089 650 1089 650 995 c 0,21,22
 650 937 650 937 682 889.5 c 0
 714 842 714 842 765.5 807.5 c 0
 817 773 817 773 879.5 741 c 0
 942 709 942 709 1004.5 673 c 0
 1067 637 1067 637 1118.5 595.5 c 0
 1170 554 1170 554 1202 492 c 0
 1234 430 1234 430 1234 354 c 0,23,24
 1234 243 1234 243 1170 155 c 0
 1106 67 1106 67 1005 21.5 c 0
 904 -24 904 -24 789 -24 c 0,25,26
 685 -24 685 -24 594.5 17.5 c 0
 504 59 504 59 453 122 c 5,0,-1
EndSplineSet
Fore
SplineSet
25 0 m 1,0,-1
 33 73 l 1,1,-1
 198 119 l 1,2,-1
 198 678 l 2,3,4
 198 838 198 838 232 951 c 128,-1,5
 266 1064 266 1064 332.5 1128.5 c 128,-1,6
 399 1193 399 1193 485.5 1221.5 c 128,-1,7
 572 1250 572 1250 688 1250 c 0,8,9
 812 1250 812 1250 951.5 1238.5 c 128,-1,10
 1091 1227 1091 1227 1134 1213 c 1,11,-1
 1135 1142 l 1,12,-1
 835 751 l 1,13,14
 853 738 853 738 908.5 710 c 128,-1,15
 964 682 964 682 1013.5 651.5 c 128,-1,16
 1063 621 1063 621 1116 576.5 c 128,-1,17
 1169 532 1169 532 1200.5 469 c 128,-1,18
 1232 406 1232 406 1232 332 c 0,19,20
 1232 168 1232 168 1115.5 72 c 128,-1,21
 999 -24 999 -24 825 -24 c 0,22,23
 718 -24 718 -24 626 18.5 c 128,-1,24
 534 61 534 61 493 129 c 1,25,-1
 506 392 l 1,26,-1
 607 377 l 1,27,-1
 646 192 l 1,28,29
 676 144 676 144 730 110 c 128,-1,30
 784 76 784 76 848 76 c 0,31,32
 935 76 935 76 992 122 c 128,-1,33
 1049 168 1049 168 1049 266 c 0,34,35
 1049 306 1049 306 1026.5 345.5 c 128,-1,36
 1004 385 1004 385 972.5 415 c 128,-1,37
 941 445 941 445 889 480 c 128,-1,38
 837 515 837 515 797 537 c 128,-1,39
 757 559 757 559 697 591 c 128,-1,40
 637 623 637 623 609 639 c 1,41,-1
 586 687 l 1,42,-1
 906 1125 l 1,43,-1
 906 1130 l 1,44,45
 879 1142 879 1142 790.5 1151.5 c 128,-1,46
 702 1161 702 1161 675 1161 c 0,47,48
 574 1161 574 1161 512.5 1120 c 128,-1,49
 451 1079 451 1079 418.5 976.5 c 128,-1,50
 386 874 386 874 386 700 c 2,51,-1
 388 0 l 1,52,-1
 25 0 l 1,0,-1
EndSplineSet
Colour: ffffff
EndChar

StartChar: H
Encoding: 72 72 23
Width: 1416
VWidth: 1691
Flags: MW
LayerCount: 2
Fore
SplineSet
50 1168 m 1,0,-1
 61 1244 l 1,1,-1
 605 1244 l 1,2,-1
 595 1168 l 1,3,-1
 427 1130 l 1,4,-1
 427 692 l 1,5,-1
 1054 692 l 1,6,-1
 1054 1126 l 1,7,-1
 871 1168 l 1,8,-1
 882 1244 l 1,9,-1
 1428 1244 l 1,10,-1
 1416 1168 l 1,11,-1
 1249 1130 l 1,12,-1
 1249 114 l 1,13,-1
 1431 80 l 1,14,-1
 1421 0 l 1,15,-1
 878 0 l 1,16,-1
 888 74 l 1,17,-1
 1054 121 l 1,18,-1
 1054 589 l 1,19,-1
 427 589 l 1,20,-1
 427 114 l 1,21,-1
 611 80 l 1,22,-1
 598 0 l 1,23,-1
 57 0 l 1,24,-1
 65 74 l 1,25,-1
 232 121 l 1,26,-1
 232 1126 l 1,27,-1
 50 1168 l 1,0,-1
EndSplineSet
Colour: ffffff
EndChar

StartChar: I
Encoding: 73 73 24
Width: 601
VWidth: 1691
Flags: MW
LayerCount: 2
Fore
SplineSet
50 1168 m 1,0,-1
 61 1244 l 1,1,-1
 605 1244 l 1,2,-1
 595 1168 l 1,3,-1
 426 1130 l 1,4,-1
 426 114 l 1,5,-1
 607 80 l 1,6,-1
 597 0 l 1,7,-1
 57 0 l 1,8,-1
 65 74 l 1,9,-1
 232 121 l 1,10,-1
 232 1126 l 1,11,-1
 50 1168 l 1,0,-1
EndSplineSet
Colour: ffffff
EndChar

StartChar: Iacute
Encoding: 205 205 25
Width: 655
VWidth: 0
Flags: MW
LayerCount: 2
Fore
SplineSet
289 1385 m 1,0,-1
 412 1710 l 1,1,-1
 523 1670 l 1,2,-1
 341 1354 l 1,3,-1
 289 1385 l 1,0,-1
50 1168 m 1,4,-1
 61 1244 l 1,5,-1
 605 1244 l 1,6,-1
 595 1168 l 1,7,-1
 426 1130 l 1,8,-1
 426 114 l 1,9,-1
 607 80 l 1,10,-1
 597 0 l 1,11,-1
 57 0 l 1,12,-1
 65 74 l 1,13,-1
 232 121 l 1,14,-1
 232 1126 l 1,15,-1
 50 1168 l 1,4,-1
EndSplineSet
Colour: ffffff
EndChar

StartChar: Icircumflex
Encoding: 206 206 26
Width: 655
VWidth: 0
Flags: MW
LayerCount: 2
Fore
SplineSet
132 1392 m 1,0,-1
 299 1572 l 1,1,-1
 354 1585 l 1,2,-1
 532 1400 l 1,3,-1
 483 1364 l 1,4,-1
 319 1472 l 1,5,-1
 309 1472 l 1,6,-1
 169 1361 l 1,7,-1
 132 1392 l 1,0,-1
50 1168 m 1,8,-1
 61 1244 l 1,9,-1
 605 1244 l 1,10,-1
 595 1168 l 1,11,-1
 426 1130 l 1,12,-1
 426 114 l 1,13,-1
 607 80 l 1,14,-1
 597 0 l 1,15,-1
 57 0 l 1,16,-1
 65 74 l 1,17,-1
 232 121 l 1,18,-1
 232 1126 l 1,19,-1
 50 1168 l 1,8,-1
EndSplineSet
Colour: ffffff
EndChar

StartChar: Idieresis
Encoding: 207 207 27
Width: 655
VWidth: 0
Flags: MW
LayerCount: 2
Fore
SplineSet
377 1453 m 0,0,1
 377 1487 377 1487 403 1508.5 c 128,-1,2
 429 1530 429 1530 461 1530 c 0,3,4
 496 1530 496 1530 522.5 1508 c 128,-1,5
 549 1486 549 1486 549 1453 c 0,6,7
 549 1418 549 1418 522.5 1395.5 c 128,-1,8
 496 1373 496 1373 461 1373 c 0,9,10
 427 1373 427 1373 402 1395.5 c 128,-1,11
 377 1418 377 1418 377 1453 c 0,0,1
110 1453 m 0,12,13
 110 1487 110 1487 136 1508.5 c 128,-1,14
 162 1530 162 1530 194 1530 c 0,15,16
 228 1530 228 1530 253.5 1508 c 128,-1,17
 279 1486 279 1486 279 1453 c 0,18,19
 279 1418 279 1418 253.5 1395.5 c 128,-1,20
 228 1373 228 1373 194 1373 c 128,-1,21
 160 1373 160 1373 135 1395.5 c 128,-1,22
 110 1418 110 1418 110 1453 c 0,12,13
50 1168 m 1,23,-1
 61 1244 l 1,24,-1
 605 1244 l 1,25,-1
 595 1168 l 1,26,-1
 426 1130 l 1,27,-1
 426 114 l 1,28,-1
 607 80 l 1,29,-1
 597 0 l 1,30,-1
 57 0 l 1,31,-1
 65 74 l 1,32,-1
 232 121 l 1,33,-1
 232 1126 l 1,34,-1
 50 1168 l 1,23,-1
EndSplineSet
Colour: ffffff
EndChar

StartChar: Igrave
Encoding: 204 204 28
Width: 655
VWidth: 0
Flags: MW
LayerCount: 2
Fore
SplineSet
133 1664 m 1,0,-1
 249 1702 l 1,1,-1
 381 1368 l 1,2,-1
 323 1334 l 1,3,-1
 133 1664 l 1,0,-1
50 1168 m 1,4,-1
 61 1244 l 1,5,-1
 605 1244 l 1,6,-1
 595 1168 l 1,7,-1
 426 1130 l 1,8,-1
 426 114 l 1,9,-1
 607 80 l 1,10,-1
 597 0 l 1,11,-1
 57 0 l 1,12,-1
 65 74 l 1,13,-1
 232 121 l 1,14,-1
 232 1126 l 1,15,-1
 50 1168 l 1,4,-1
EndSplineSet
Colour: ffffff
EndChar

StartChar: J
Encoding: 74 74 29
Width: 592
VWidth: 1691
Flags: MW
LayerCount: 2
Fore
SplineSet
-4 -237 m 1,0,1
 117 -122 117 -122 174.5 -20.5 c 128,-1,2
 232 81 232 81 232 197 c 2,3,-1
 233 1126 l 1,4,-1
 52 1168 l 1,5,-1
 62 1244 l 1,6,-1
 607 1244 l 1,7,-1
 597 1168 l 1,8,-1
 427 1130 l 1,9,-1
 426 385 l 2,10,11
 426 281 426 281 418.5 203.5 c 128,-1,12
 411 126 411 126 391.5 60.5 c 128,-1,13
 372 -5 372 -5 346 -53 c 128,-1,14
 320 -101 320 -101 274.5 -149 c 128,-1,15
 229 -197 229 -197 178 -236 c 128,-1,16
 127 -275 127 -275 50 -326 c 1,17,-1
 -4 -237 l 1,0,1
EndSplineSet
Colour: ffffff
EndChar

StartChar: K
Encoding: 75 75 30
Width: 1228
VWidth: 1691
Flags: MW
LayerCount: 2
Fore
SplineSet
453 626 m 1,0,1
 476 649 476 649 529.5 709.5 c 128,-1,2
 583 770 583 770 605 798 c 2,3,-1
 851 1121 l 1,4,-1
 696 1168 l 1,5,-1
 704 1244 l 1,6,-1
 1197 1244 l 1,7,-1
 1185 1168 l 1,8,-1
 1008 1121 l 1,9,-1
 635 653 l 1,10,-1
 862 385 l 2,11,12
 991 232 991 232 1057.5 171.5 c 128,-1,13
 1124 111 1124 111 1213 83 c 1,14,-1
 1250 70 l 1,15,-1
 1240 1 l 1,16,17
 1177 -21 1177 -21 1109 -21 c 0,18,19
 994 -21 994 -21 899 52.5 c 128,-1,20
 804 126 804 126 706 261 c 2,21,-1
 454 605 l 1,22,-1
 453 626 l 1,0,1
47 1168 m 1,23,-1
 61 1244 l 1,24,-1
 611 1244 l 1,25,-1
 601 1168 l 1,26,-1
 429 1121 l 1,27,-1
 429 124 l 1,28,-1
 618 80 l 1,29,-1
 607 0 l 1,30,-1
 54 0 l 1,31,-1
 64 74 l 1,32,-1
 236 129 l 1,33,-1
 236 1117 l 1,34,-1
 47 1168 l 1,23,-1
EndSplineSet
Colour: ffffff
EndChar

StartChar: L
Encoding: 76 76 31
Width: 1065
VWidth: 1691
Flags: MW
LayerCount: 2
Fore
SplineSet
58 0 m 1,0,-1
 67 74 l 1,1,-1
 233 121 l 1,2,-1
 233 1117 l 1,3,-1
 45 1168 l 1,4,-1
 58 1244 l 1,5,-1
 608 1244 l 1,6,-1
 598 1168 l 1,7,-1
 427 1121 l 1,8,-1
 427 96 l 1,9,-1
 869 96 l 1,10,-1
 1000 344 l 1,11,-1
 1085 331 l 1,12,-1
 1048 0 l 1,13,-1
 58 0 l 1,0,-1
EndSplineSet
Colour: ffffff
EndChar

StartChar: M
Encoding: 77 77 32
Width: 1664
VWidth: 1691
Flags: MW
LayerCount: 2
Fore
SplineSet
24 0 m 1,0,-1
 35 74 l 1,1,-1
 202 121 l 1,2,-1
 275 1126 l 1,3,-1
 92 1168 l 1,4,-1
 102 1244 l 1,5,-1
 505 1244 l 1,6,-1
 583 1050 l 1,7,-1
 845 313 l 1,8,-1
 1152 1083 l 1,9,-1
 1223 1244 l 1,10,-1
 1618 1244 l 1,11,-1
 1608 1168 l 1,12,-1
 1440 1130 l 1,13,-1
 1492 114 l 1,14,-1
 1674 80 l 1,15,-1
 1664 0 l 1,16,-1
 1128 0 l 1,17,-1
 1139 74 l 1,18,-1
 1305 121 l 1,19,-1
 1249 1004 l 1,20,-1
 868 50 l 1,21,-1
 740 31 l 1,22,-1
 397 967 l 1,23,-1
 334 114 l 1,24,-1
 517 80 l 1,25,-1
 504 0 l 1,26,-1
 24 0 l 1,0,-1
EndSplineSet
Colour: ffffff
EndChar

StartChar: N
Encoding: 78 78 33
Width: 1337
VWidth: 1691
Flags: MW
LayerCount: 2
Fore
SplineSet
50 1168 m 1,0,-1
 61 1244 l 1,1,-1
 411 1244 l 1,2,-1
 1054 274 l 1,3,-1
 1054 1126 l 1,4,-1
 869 1168 l 1,5,-1
 881 1244 l 1,6,-1
 1356 1244 l 1,7,-1
 1343 1168 l 1,8,-1
 1176 1130 l 1,9,-1
 1176 1 l 1,10,-1
 1023 -30 l 1,11,-1
 360 961 l 1,12,-1
 360 114 l 1,13,-1
 543 80 l 1,14,-1
 532 0 l 1,15,-1
 57 0 l 1,16,-1
 65 74 l 1,17,-1
 232 121 l 1,18,-1
 232 1117 l 1,19,-1
 50 1168 l 1,0,-1
EndSplineSet
Colour: ffffff
EndChar

StartChar: Ntilde
Encoding: 209 209 34
Width: 2048
VWidth: 0
Flags: M
LayerCount: 2
Fore
SplineSet
445 1383 m 1,0,1
 446 1389 446 1389 449 1398.5 c 128,-1,2
 452 1408 452 1408 462 1432.5 c 128,-1,3
 472 1457 472 1457 484.5 1476 c 128,-1,4
 497 1495 497 1495 519 1510.5 c 128,-1,5
 541 1526 541 1526 566 1526 c 2,6,-1
 580 1526 l 1,7,-1
 802 1496 l 1,8,-1
 807 1496 l 2,9,10
 818 1496 818 1496 832 1506 c 128,-1,11
 846 1516 846 1516 854 1526 c 2,12,-1
 862 1536 l 1,13,-1
 910 1535 l 1,14,15
 908 1529 908 1529 905 1519.5 c 128,-1,16
 902 1510 902 1510 891 1485 c 128,-1,17
 880 1460 880 1460 866.5 1441 c 128,-1,18
 853 1422 853 1422 830 1406.5 c 128,-1,19
 807 1391 807 1391 781 1391 c 0,20,21
 772 1391 772 1391 768 1392 c 2,22,-1
 546 1423 l 1,23,-1
 543 1423 l 2,24,25
 531 1423 531 1423 516 1411.5 c 128,-1,26
 501 1400 501 1400 492 1388 c 2,27,-1
 483 1376 l 1,28,-1
 445 1383 l 1,0,1
50 1168 m 1,29,-1
 61 1244 l 1,30,-1
 412 1244 l 1,31,-1
 1054 271 l 1,32,-1
 1054 1126 l 1,33,-1
 869 1168 l 1,34,-1
 881 1244 l 1,35,-1
 1356 1244 l 1,36,-1
 1343 1168 l 1,37,-1
 1176 1130 l 1,38,-1
 1176 1 l 1,39,-1
 1023 -30 l 1,40,-1
 360 961 l 1,41,-1
 360 114 l 1,42,-1
 543 80 l 1,43,-1
 532 0 l 1,44,-1
 57 0 l 1,45,-1
 65 74 l 1,46,-1
 232 121 l 1,47,-1
 232 1117 l 1,48,-1
 50 1168 l 1,29,-1
EndSplineSet
Colour: ffffff
EndChar

StartChar: O
Encoding: 79 79 35
Width: 1322
VWidth: 1691
Flags: MW
LayerCount: 2
Fore
SplineSet
283 676 m 0,0,1
 283 585 283 585 297 501 c 128,-1,2
 311 417 311 417 342.5 339.5 c 128,-1,3
 374 262 374 262 419.5 204.5 c 128,-1,4
 465 147 465 147 533.5 113 c 128,-1,5
 602 79 602 79 686 79 c 0,6,7
 774 79 774 79 841.5 107.5 c 128,-1,8
 909 136 909 136 950 182.5 c 128,-1,9
 991 229 991 229 1017 295 c 128,-1,10
 1043 361 1043 361 1052.5 428 c 128,-1,11
 1062 495 1062 495 1062 573 c 0,12,13
 1062 661 1062 661 1048 745 c 128,-1,14
 1034 829 1034 829 1002 907.5 c 128,-1,15
 970 986 970 986 924.5 1045.5 c 128,-1,16
 879 1105 879 1105 810 1140.5 c 128,-1,17
 741 1176 741 1176 658 1176 c 0,18,19
 283 1176 283 1176 283 676 c 0,0,1
61 619 m 0,20,21
 61 911 61 911 236 1091.5 c 128,-1,22
 411 1272 411 1272 706 1272 c 0,23,24
 838 1272 838 1272 948.5 1219.5 c 128,-1,25
 1059 1167 1059 1167 1131.5 1077 c 128,-1,26
 1204 987 1204 987 1244 869 c 128,-1,27
 1284 751 1284 751 1284 619 c 0,28,29
 1284 489 1284 489 1240.5 372.5 c 128,-1,30
 1197 256 1197 256 1116.5 167 c 128,-1,31
 1036 78 1036 78 911.5 25.5 c 128,-1,32
 787 -27 787 -27 636 -27 c 0,33,34
 467 -27 467 -27 335 59 c 128,-1,35
 203 145 203 145 132 292 c 128,-1,36
 61 439 61 439 61 619 c 0,20,21
EndSplineSet
Colour: ffffff
EndChar

StartChar: Oacute
Encoding: 211 211 36
Width: 1342
VWidth: 0
Flags: MW
LayerCount: 2
Fore
SplineSet
574 1380 m 1,0,-1
 696 1705 l 1,1,-1
 808 1666 l 1,2,-1
 624 1348 l 1,3,-1
 574 1380 l 1,0,-1
295 676 m 0,4,5
 295 585 295 585 309 501 c 128,-1,6
 323 417 323 417 354.5 339.5 c 128,-1,7
 386 262 386 262 431.5 204.5 c 128,-1,8
 477 147 477 147 545.5 113 c 128,-1,9
 614 79 614 79 698 79 c 0,10,11
 786 79 786 79 853.5 107.5 c 128,-1,12
 921 136 921 136 961.5 182.5 c 128,-1,13
 1002 229 1002 229 1028 295 c 128,-1,14
 1054 361 1054 361 1063.5 428 c 128,-1,15
 1073 495 1073 495 1073 573 c 0,16,17
 1073 661 1073 661 1059 744.5 c 128,-1,18
 1045 828 1045 828 1013.5 907 c 128,-1,19
 982 986 982 986 936 1045.5 c 128,-1,20
 890 1105 890 1105 821.5 1140.5 c 128,-1,21
 753 1176 753 1176 670 1176 c 0,22,23
 295 1176 295 1176 295 676 c 0,4,5
73 619 m 0,24,25
 73 911 73 911 248 1091.5 c 128,-1,26
 423 1272 423 1272 718 1272 c 0,27,28
 850 1272 850 1272 960.5 1219.5 c 128,-1,29
 1071 1167 1071 1167 1143.5 1077 c 128,-1,30
 1216 987 1216 987 1256 869 c 128,-1,31
 1296 751 1296 751 1296 619 c 0,32,33
 1296 489 1296 489 1252.5 372.5 c 128,-1,34
 1209 256 1209 256 1129 167 c 128,-1,35
 1049 78 1049 78 924.5 25.5 c 128,-1,36
 800 -27 800 -27 649 -27 c 0,37,38
 480 -27 480 -27 347.5 59 c 128,-1,39
 215 145 215 145 144 292 c 128,-1,40
 73 439 73 439 73 619 c 0,24,25
EndSplineSet
Colour: ffffff
EndChar

StartChar: Ocircumflex
Encoding: 212 212 37
Width: 1342
VWidth: 0
Flags: MW
LayerCount: 2
Fore
SplineSet
484 1392 m 1,0,-1
 652 1572 l 1,1,-1
 707 1585 l 1,2,-1
 885 1400 l 1,3,-1
 836 1364 l 1,4,-1
 672 1472 l 1,5,-1
 662 1472 l 1,6,-1
 522 1361 l 1,7,-1
 484 1392 l 1,0,-1
283 676 m 0,8,9
 283 585 283 585 297 501 c 128,-1,10
 311 417 311 417 342.5 339.5 c 128,-1,11
 374 262 374 262 419.5 204.5 c 128,-1,12
 465 147 465 147 533.5 113 c 128,-1,13
 602 79 602 79 686 79 c 0,14,15
 774 79 774 79 841.5 107.5 c 128,-1,16
 909 136 909 136 950 182.5 c 128,-1,17
 991 229 991 229 1017 295 c 128,-1,18
 1043 361 1043 361 1052.5 428 c 128,-1,19
 1062 495 1062 495 1062 573 c 0,20,21
 1062 661 1062 661 1048 745 c 128,-1,22
 1034 829 1034 829 1002 907.5 c 128,-1,23
 970 986 970 986 924.5 1045.5 c 128,-1,24
 879 1105 879 1105 810 1140.5 c 128,-1,25
 741 1176 741 1176 658 1176 c 0,26,27
 283 1176 283 1176 283 676 c 0,8,9
61 619 m 0,28,29
 61 911 61 911 236 1091.5 c 128,-1,30
 411 1272 411 1272 706 1272 c 0,31,32
 838 1272 838 1272 948.5 1219.5 c 128,-1,33
 1059 1167 1059 1167 1131.5 1077 c 128,-1,34
 1204 987 1204 987 1244 869 c 128,-1,35
 1284 751 1284 751 1284 619 c 0,36,37
 1284 489 1284 489 1240.5 372.5 c 128,-1,38
 1197 256 1197 256 1116.5 167 c 128,-1,39
 1036 78 1036 78 911.5 25.5 c 128,-1,40
 787 -27 787 -27 636 -27 c 0,41,42
 467 -27 467 -27 335 59 c 128,-1,43
 203 145 203 145 132 292 c 128,-1,44
 61 439 61 439 61 619 c 0,28,29
EndSplineSet
Colour: ffffff
EndChar

StartChar: Odieresis
Encoding: 214 214 38
Width: 1342
VWidth: 0
Flags: MW
LayerCount: 2
Fore
SplineSet
730 1453 m 0,0,1
 730 1487 730 1487 756 1508.5 c 128,-1,2
 782 1530 782 1530 814 1530 c 0,3,4
 849 1530 849 1530 875.5 1508 c 128,-1,5
 902 1486 902 1486 902 1453 c 0,6,7
 902 1418 902 1418 875.5 1395.5 c 128,-1,8
 849 1373 849 1373 814 1373 c 0,9,10
 780 1373 780 1373 755 1395.5 c 128,-1,11
 730 1418 730 1418 730 1453 c 0,0,1
463 1453 m 0,12,13
 463 1487 463 1487 489 1508.5 c 128,-1,14
 515 1530 515 1530 547 1530 c 0,15,16
 581 1530 581 1530 606.5 1508 c 128,-1,17
 632 1486 632 1486 632 1453 c 0,18,19
 632 1418 632 1418 606.5 1395.5 c 128,-1,20
 581 1373 581 1373 547 1373 c 128,-1,21
 513 1373 513 1373 488 1395.5 c 128,-1,22
 463 1418 463 1418 463 1453 c 0,12,13
283 676 m 0,23,24
 283 585 283 585 297 501 c 128,-1,25
 311 417 311 417 342.5 339.5 c 128,-1,26
 374 262 374 262 419.5 204.5 c 128,-1,27
 465 147 465 147 533.5 113 c 128,-1,28
 602 79 602 79 686 79 c 0,29,30
 774 79 774 79 841.5 107.5 c 128,-1,31
 909 136 909 136 950 182.5 c 128,-1,32
 991 229 991 229 1017 295 c 128,-1,33
 1043 361 1043 361 1052.5 428 c 128,-1,34
 1062 495 1062 495 1062 573 c 0,35,36
 1062 661 1062 661 1048 745 c 128,-1,37
 1034 829 1034 829 1002 907.5 c 128,-1,38
 970 986 970 986 924.5 1045.5 c 128,-1,39
 879 1105 879 1105 810 1140.5 c 128,-1,40
 741 1176 741 1176 658 1176 c 0,41,42
 283 1176 283 1176 283 676 c 0,23,24
61 619 m 0,43,44
 61 911 61 911 236 1091.5 c 128,-1,45
 411 1272 411 1272 706 1272 c 0,46,47
 838 1272 838 1272 948.5 1219.5 c 128,-1,48
 1059 1167 1059 1167 1131.5 1077 c 128,-1,49
 1204 987 1204 987 1244 869 c 128,-1,50
 1284 751 1284 751 1284 619 c 0,51,52
 1284 489 1284 489 1240.5 372.5 c 128,-1,53
 1197 256 1197 256 1116.5 167 c 128,-1,54
 1036 78 1036 78 911.5 25.5 c 128,-1,55
 787 -27 787 -27 636 -27 c 0,56,57
 467 -27 467 -27 335 59 c 128,-1,58
 203 145 203 145 132 292 c 128,-1,59
 61 439 61 439 61 619 c 0,43,44
EndSplineSet
Colour: ffffff
EndChar

StartChar: Ograve
Encoding: 210 210 39
Width: 1342
VWidth: 0
Flags: MW
LayerCount: 2
Fore
SplineSet
527 1664 m 1,0,-1
 642 1702 l 1,1,-1
 774 1368 l 1,2,-1
 717 1334 l 1,3,-1
 527 1664 l 1,0,-1
283 676 m 0,4,5
 283 585 283 585 297 501 c 128,-1,6
 311 417 311 417 342.5 339.5 c 128,-1,7
 374 262 374 262 419.5 204.5 c 128,-1,8
 465 147 465 147 533.5 113 c 128,-1,9
 602 79 602 79 686 79 c 0,10,11
 774 79 774 79 841.5 107.5 c 128,-1,12
 909 136 909 136 950 182.5 c 128,-1,13
 991 229 991 229 1017 295 c 128,-1,14
 1043 361 1043 361 1052.5 428 c 128,-1,15
 1062 495 1062 495 1062 573 c 0,16,17
 1062 661 1062 661 1048 745 c 128,-1,18
 1034 829 1034 829 1002 907.5 c 128,-1,19
 970 986 970 986 924.5 1045.5 c 128,-1,20
 879 1105 879 1105 810 1140.5 c 128,-1,21
 741 1176 741 1176 658 1176 c 0,22,23
 283 1176 283 1176 283 676 c 0,4,5
61 619 m 0,24,25
 61 911 61 911 236 1091.5 c 128,-1,26
 411 1272 411 1272 706 1272 c 0,27,28
 838 1272 838 1272 948.5 1219.5 c 128,-1,29
 1059 1167 1059 1167 1131.5 1077 c 128,-1,30
 1204 987 1204 987 1244 869 c 128,-1,31
 1284 751 1284 751 1284 619 c 0,32,33
 1284 489 1284 489 1240.5 372.5 c 128,-1,34
 1197 256 1197 256 1116.5 167 c 128,-1,35
 1036 78 1036 78 911.5 25.5 c 128,-1,36
 787 -27 787 -27 636 -27 c 0,37,38
 467 -27 467 -27 335 59 c 128,-1,39
 203 145 203 145 132 292 c 128,-1,40
 61 439 61 439 61 619 c 0,24,25
EndSplineSet
Colour: ffffff
EndChar

StartChar: Oslash
Encoding: 216 216 40
Width: 1342
VWidth: 0
Flags: MW
LayerCount: 2
Fore
SplineSet
73 619 m 0,0,1
 73 911 73 911 248 1091.5 c 128,-1,2
 423 1272 423 1272 718 1272 c 0,3,4
 839 1272 839 1272 943 1227 c 1,5,-1
 984 1304 l 1,6,-1
 1136 1312 l 1,7,-1
 1054 1162 l 1,8,9
 1169 1074 1169 1074 1232.5 930.5 c 128,-1,10
 1296 787 1296 787 1296 619 c 0,11,12
 1296 489 1296 489 1252.5 372.5 c 128,-1,13
 1209 256 1209 256 1129 167 c 128,-1,14
 1049 78 1049 78 924.5 25.5 c 128,-1,15
 800 -27 800 -27 649 -27 c 0,16,17
 536 -27 536 -27 437 13 c 1,18,-1
 375 -102 l 1,19,-1
 228 -111 l 1,20,-1
 327 73 l 1,21,22
 207 159 207 159 140 302.5 c 128,-1,23
 73 446 73 446 73 619 c 0,0,1
484 152 m 1,24,25
 574 79 574 79 698 79 c 0,26,27
 786 79 786 79 853.5 107.5 c 128,-1,28
 921 136 921 136 961.5 182.5 c 128,-1,29
 1002 229 1002 229 1028 295 c 128,-1,30
 1054 361 1054 361 1063.5 428 c 128,-1,31
 1073 495 1073 495 1073 573 c 0,32,33
 1073 699 1073 699 1043 818.5 c 128,-1,34
 1013 938 1013 938 952 1023 c 1,35,-1
 484 152 l 1,24,25
427 210 m 1,36,-1
 897 1087 l 1,37,38
 802 1176 802 1176 670 1176 c 0,39,40
 295 1176 295 1176 295 676 c 0,41,42
 295 539 295 539 328 416 c 128,-1,43
 361 293 361 293 427 210 c 1,36,-1
EndSplineSet
Colour: ffffff
EndChar

StartChar: Otilde
Encoding: 213 213 41
Width: 1342
VWidth: 0
Flags: MW
LayerCount: 2
Fore
SplineSet
448 1383 m 1,0,1
 449 1389 449 1389 452 1398.5 c 128,-1,2
 455 1408 455 1408 465 1432.5 c 128,-1,3
 475 1457 475 1457 487.5 1476 c 128,-1,4
 500 1495 500 1495 521.5 1510.5 c 128,-1,5
 543 1526 543 1526 568 1526 c 2,6,-1
 581 1526 l 1,7,-1
 805 1496 l 1,8,-1
 810 1496 l 2,9,10
 821 1496 821 1496 835.5 1506 c 128,-1,11
 850 1516 850 1516 858 1526 c 2,12,-1
 866 1536 l 1,13,-1
 913 1535 l 1,14,15
 911 1529 911 1529 908 1519.5 c 128,-1,16
 905 1510 905 1510 893.5 1485 c 128,-1,17
 882 1460 882 1460 868.5 1441 c 128,-1,18
 855 1422 855 1422 832 1406.5 c 128,-1,19
 809 1391 809 1391 783 1391 c 0,20,21
 775 1391 775 1391 771 1392 c 2,22,-1
 547 1423 l 1,23,-1
 546 1423 l 2,24,25
 534 1423 534 1423 518.5 1411.5 c 128,-1,26
 503 1400 503 1400 494 1388 c 2,27,-1
 485 1376 l 1,28,-1
 448 1383 l 1,0,1
283 676 m 0,29,30
 283 585 283 585 297 501 c 128,-1,31
 311 417 311 417 342.5 339.5 c 128,-1,32
 374 262 374 262 419.5 204.5 c 128,-1,33
 465 147 465 147 533.5 113 c 128,-1,34
 602 79 602 79 686 79 c 0,35,36
 774 79 774 79 841.5 107.5 c 128,-1,37
 909 136 909 136 950 182.5 c 128,-1,38
 991 229 991 229 1017 295 c 128,-1,39
 1043 361 1043 361 1052.5 428 c 128,-1,40
 1062 495 1062 495 1062 573 c 0,41,42
 1062 661 1062 661 1048 745 c 128,-1,43
 1034 829 1034 829 1002 907.5 c 128,-1,44
 970 986 970 986 924.5 1045.5 c 128,-1,45
 879 1105 879 1105 810 1140.5 c 128,-1,46
 741 1176 741 1176 658 1176 c 0,47,48
 283 1176 283 1176 283 676 c 0,29,30
61 619 m 0,49,50
 61 911 61 911 236 1091.5 c 128,-1,51
 411 1272 411 1272 706 1272 c 0,52,53
 838 1272 838 1272 948.5 1219.5 c 128,-1,54
 1059 1167 1059 1167 1131.5 1077 c 128,-1,55
 1204 987 1204 987 1244 869 c 128,-1,56
 1284 751 1284 751 1284 619 c 0,57,58
 1284 489 1284 489 1240.5 372.5 c 128,-1,59
 1197 256 1197 256 1116.5 167 c 128,-1,60
 1036 78 1036 78 911.5 25.5 c 128,-1,61
 787 -27 787 -27 636 -27 c 0,62,63
 467 -27 467 -27 335 59 c 128,-1,64
 203 145 203 145 132 292 c 128,-1,65
 61 439 61 439 61 619 c 0,49,50
EndSplineSet
Colour: ffffff
EndChar

StartChar: P
Encoding: 80 80 42
Width: 1009
VWidth: 1691
Flags: MW
LayerCount: 2
Fore
SplineSet
50 0 m 1,0,-1
 61 74 l 1,1,-1
 228 121 l 1,2,-1
 228 1104 l 1,3,-1
 57 1134 l 1,4,-1
 67 1211 l 1,5,6
 366 1255 366 1255 543 1255 c 0,7,8
 1045 1255 1045 1255 1045 892 c 0,9,10
 1045 805 1045 805 1007 730 c 128,-1,11
 969 655 969 655 905.5 604 c 128,-1,12
 842 553 842 553 758.5 523.5 c 128,-1,13
 675 494 675 494 584 494 c 0,14,15
 577 494 577 494 484 497 c 1,16,-1
 466 580 l 1,17,-1
 519 581 l 1,18,19
 838 590 838 590 838 856 c 0,20,21
 838 995 838 995 760.5 1083.5 c 128,-1,22
 683 1172 683 1172 522 1172 c 1,23,-1
 420 1166 l 1,24,-1
 420 122 l 1,25,-1
 657 83 l 1,26,-1
 643 0 l 1,27,-1
 50 0 l 1,0,-1
EndSplineSet
Colour: ffffff
EndChar

StartChar: Q
Encoding: 81 81 43
Width: 1334
VWidth: 1691
Flags: MW
LayerCount: 2
Fore
SplineSet
263 679 m 0,0,1
 263 615 263 615 273 551 c 128,-1,2
 283 487 283 487 304.5 418.5 c 128,-1,3
 326 350 326 350 364 290.5 c 128,-1,4
 402 231 402 231 453.5 182 c 128,-1,5
 505 133 505 133 581 102.5 c 128,-1,6
 657 72 657 72 749 67 c 1,7,8
 828 87 828 87 888 123 c 128,-1,9
 948 159 948 159 986.5 205 c 128,-1,10
 1025 251 1025 251 1049 310 c 128,-1,11
 1073 369 1073 369 1082.5 430 c 128,-1,12
 1092 491 1092 491 1092 563 c 0,13,14
 1092 674 1092 674 1061.5 781.5 c 128,-1,15
 1031 889 1031 889 977.5 975.5 c 128,-1,16
 924 1062 924 1062 842 1115 c 128,-1,17
 760 1168 760 1168 664 1168 c 0,18,19
 475 1168 475 1168 369 1039.5 c 128,-1,20
 263 911 263 911 263 679 c 0,0,1
61 608 m 0,21,22
 61 800 61 800 142.5 950.5 c 128,-1,23
 224 1101 224 1101 375 1186.5 c 128,-1,24
 526 1272 526 1272 721 1272 c 0,25,26
 895 1272 895 1272 1028 1184 c 128,-1,27
 1161 1096 1161 1096 1230 951 c 128,-1,28
 1299 806 1299 806 1299 629 c 0,29,30
 1299 481 1299 481 1243 351 c 128,-1,31
 1187 221 1187 221 1076.5 125.5 c 128,-1,32
 966 30 966 30 818 -6 c 1,33,34
 842 -61 842 -61 870.5 -99 c 128,-1,35
 899 -137 899 -137 947.5 -172.5 c 128,-1,36
 996 -208 996 -208 1070.5 -233 c 128,-1,37
 1145 -258 1145 -258 1250 -275 c 1,38,39
 1250 -324 1250 -324 1241 -351 c 1,40,41
 1171 -385 1171 -385 1065 -385 c 0,42,43
 924 -385 924 -385 820 -286 c 128,-1,44
 716 -187 716 -187 703 -21 c 1,45,46
 683 -27 683 -27 638 -27 c 0,47,48
 469 -27 469 -27 336.5 56 c 128,-1,49
 204 139 204 139 132.5 283.5 c 128,-1,50
 61 428 61 428 61 608 c 0,21,22
EndSplineSet
Colour: ffffff
EndChar

StartChar: R
Encoding: 82 82 44
Width: 1213
VWidth: 1691
Flags: MW
LayerCount: 2
Fore
SplineSet
420 628 m 1,0,-1
 618 628 l 1,1,2
 702 656 702 656 760 722 c 128,-1,3
 818 788 818 788 818 887 c 0,4,5
 818 1013 818 1013 744 1091 c 128,-1,6
 670 1169 670 1169 540 1169 c 1,7,-1
 420 1164 l 1,8,-1
 420 628 l 1,0,-1
50 0 m 1,9,-1
 61 74 l 1,10,-1
 228 121 l 1,11,-1
 228 1100 l 1,12,-1
 57 1130 l 1,13,-1
 67 1207 l 1,14,15
 361 1253 361 1253 523 1253 c 0,16,17
 639 1253 639 1253 727.5 1237 c 128,-1,18
 816 1221 816 1221 884.5 1185.5 c 128,-1,19
 953 1150 953 1150 989 1089 c 128,-1,20
 1025 1028 1025 1028 1025 943 c 0,21,22
 1025 841 1025 841 949 744 c 128,-1,23
 873 647 873 647 738 599 c 1,24,-1
 738 598 l 1,25,-1
 918 349 l 2,26,27
 963 287 963 287 983 260.5 c 128,-1,28
 1003 234 1003 234 1035 195.5 c 128,-1,29
 1067 157 1067 157 1089.5 140 c 128,-1,30
 1112 123 1112 123 1143 105.5 c 128,-1,31
 1174 88 1174 88 1211 77 c 2,32,-1
 1244 67 l 1,33,-1
 1229 -1 l 1,34,35
 1172 -21 1172 -21 1109 -21 c 0,36,37
 998 -21 998 -21 911.5 51.5 c 128,-1,38
 825 124 825 124 753 253 c 2,39,-1
 594 537 l 1,40,-1
 420 537 l 1,41,-1
 420 126 l 1,42,-1
 608 83 l 1,43,-1
 598 0 l 1,44,-1
 50 0 l 1,9,-1
EndSplineSet
Colour: ffffff
EndChar

StartChar: S
Encoding: 83 83 45
Width: 863
VWidth: 1691
Flags: MW
LayerCount: 2
Fore
SplineSet
66 122 m 1,0,-1
 79 389 l 1,1,-1
 181 375 l 1,2,-1
 220 187 l 1,3,4
 249 141 249 141 304.5 109 c 128,-1,5
 360 77 360 77 426 77 c 0,6,7
 483 77 483 77 534.5 97.5 c 128,-1,8
 586 118 586 118 624.5 167.5 c 128,-1,9
 663 217 663 217 663 287 c 0,10,11
 663 339 663 339 631.5 383.5 c 128,-1,12
 600 428 600 428 549.5 461 c 128,-1,13
 499 494 499 494 437.5 526 c 128,-1,14
 376 558 376 558 315 594.5 c 128,-1,15
 254 631 254 631 203.5 673.5 c 128,-1,16
 153 716 153 716 121.5 778.5 c 128,-1,17
 90 841 90 841 90 916 c 0,18,19
 90 1025 90 1025 147 1107 c 128,-1,20
 204 1189 204 1189 291 1229 c 128,-1,21
 378 1269 378 1269 479 1269 c 0,22,23
 641 1269 641 1269 761 1169 c 1,24,-1
 739 887 l 1,25,-1
 640 899 l 1,26,-1
 615 1090 l 1,27,28
 599 1122 599 1122 549.5 1153.5 c 128,-1,29
 500 1185 500 1185 445 1185 c 0,30,31
 365 1185 365 1185 314 1137 c 128,-1,32
 263 1089 263 1089 263 995 c 0,33,34
 263 937 263 937 295 889.5 c 128,-1,35
 327 842 327 842 378.5 807.5 c 128,-1,36
 430 773 430 773 492.5 741 c 128,-1,37
 555 709 555 709 617.5 673 c 128,-1,38
 680 637 680 637 731.5 595.5 c 128,-1,39
 783 554 783 554 815 492 c 128,-1,40
 847 430 847 430 847 354 c 0,41,42
 847 243 847 243 783 155 c 128,-1,43
 719 67 719 67 618 21.5 c 128,-1,44
 517 -24 517 -24 402 -24 c 0,45,46
 298 -24 298 -24 207.5 17.5 c 128,-1,47
 117 59 117 59 66 122 c 1,0,-1
EndSplineSet
Colour: ffffff
EndChar

StartChar: T
Encoding: 84 84 46
Width: 1119
VWidth: 1691
Flags: MW
LayerCount: 2
Fore
SplineSet
23 1244 m 1,0,-1
 1134 1244 l 1,1,-1
 1100 906 l 1,2,-1
 1005 921 l 1,3,-1
 967 1152 l 1,4,-1
 662 1152 l 1,5,-1
 662 114 l 1,6,-1
 847 80 l 1,7,-1
 833 0 l 1,8,-1
 294 0 l 1,9,-1
 301 74 l 1,10,-1
 470 121 l 1,11,-1
 470 1152 l 1,12,-1
 175 1152 l 1,13,-1
 122 909 l 1,14,-1
 31 922 l 1,15,-1
 23 1244 l 1,0,-1
EndSplineSet
Colour: ffffff
EndChar

StartChar: Thorn
Encoding: 222 222 47
Width: 1084
VWidth: 0
Flags: MW
LayerCount: 2
Fore
SplineSet
50 1168 m 1,0,-1
 61 1244 l 1,1,-1
 604 1244 l 1,2,-1
 594 1168 l 1,3,-1
 423 1130 l 1,4,-1
 423 1020 l 1,5,6
 435 1020 435 1020 479.5 1022 c 128,-1,7
 524 1024 524 1024 547 1024 c 0,8,9
 1048 1024 1048 1024 1048 660 c 0,10,11
 1048 544 1048 544 987.5 452 c 128,-1,12
 927 360 927 360 826 310 c 128,-1,13
 725 260 725 260 604 260 c 0,14,15
 547 260 547 260 487 266 c 1,16,-1
 470 351 l 1,17,18
 652 341 652 341 746.5 410 c 128,-1,19
 841 479 841 479 841 624 c 0,20,21
 841 760 841 760 763 843 c 128,-1,22
 685 926 685 926 529 926 c 1,23,-1
 423 919 l 1,24,-1
 423 121 l 1,25,-1
 660 83 l 1,26,-1
 647 -1 l 1,27,-1
 54 -1 l 1,28,-1
 64 73 l 1,29,-1
 232 119 l 1,30,-1
 232 1126 l 1,31,-1
 50 1168 l 1,0,-1
EndSplineSet
Colour: ffffff
EndChar

StartChar: U
Encoding: 85 85 48
Width: 1369
VWidth: 1691
Flags: MW
LayerCount: 2
Fore
SplineSet
22 1168 m 1,0,-1
 35 1244 l 1,1,-1
 577 1244 l 1,2,-1
 568 1168 l 1,3,-1
 399 1130 l 1,4,-1
 399 510 l 2,5,6
 399 304 399 304 492.5 204.5 c 128,-1,7
 586 105 586 105 747 105 c 0,8,9
 903 105 903 105 987 198 c 128,-1,10
 1071 291 1071 291 1072 482 c 2,11,-1
 1075 1126 l 1,12,-1
 892 1168 l 1,13,-1
 902 1244 l 1,14,-1
 1380 1244 l 1,15,-1
 1369 1168 l 1,16,-1
 1203 1130 l 1,17,-1
 1198 515 l 2,18,19
 1196 241 1196 241 1075 107 c 128,-1,20
 954 -27 954 -27 697 -27 c 0,21,22
 620 -27 620 -27 556.5 -16.5 c 128,-1,23
 493 -6 493 -6 425.5 26.5 c 128,-1,24
 358 59 358 59 311.5 112 c 128,-1,25
 265 165 265 165 235.5 256 c 128,-1,26
 206 347 206 347 206 469 c 2,27,-1
 206 1126 l 1,28,-1
 22 1168 l 1,0,-1
EndSplineSet
Colour: ffffff
EndChar

StartChar: Uacute
Encoding: 218 218 49
Width: 1401
VWidth: 0
Flags: MW
LayerCount: 2
Fore
SplineSet
37 1168 m 1,0,-1
 50 1244 l 1,1,-1
 592 1244 l 1,2,-1
 583 1168 l 1,3,-1
 414 1130 l 1,4,-1
 414 510 l 2,5,6
 414 304 414 304 507.5 204.5 c 128,-1,7
 601 105 601 105 762 105 c 0,8,9
 918 105 918 105 1002 198 c 128,-1,10
 1086 291 1086 291 1087 482 c 2,11,-1
 1090 1126 l 1,12,-1
 907 1168 l 1,13,-1
 917 1244 l 1,14,-1
 1395 1244 l 1,15,-1
 1384 1168 l 1,16,-1
 1218 1130 l 1,17,-1
 1213 515 l 2,18,19
 1211 241 1211 241 1090 107 c 128,-1,20
 969 -27 969 -27 712 -27 c 0,21,22
 635 -27 635 -27 571.5 -16.5 c 128,-1,23
 508 -6 508 -6 440.5 26.5 c 128,-1,24
 373 59 373 59 326.5 112 c 128,-1,25
 280 165 280 165 250.5 256 c 128,-1,26
 221 347 221 347 221 469 c 2,27,-1
 221 1126 l 1,28,-1
 37 1168 l 1,0,-1
684 1348 m 1,29,-1
 633 1380 l 1,30,-1
 756 1705 l 1,31,-1
 867 1666 l 1,32,-1
 684 1348 l 1,29,-1
EndSplineSet
Colour: ffffff
EndChar

StartChar: Ucircumflex
Encoding: 219 219 50
Width: 1401
VWidth: 0
Flags: MW
LayerCount: 2
Fore
SplineSet
537 1392 m 1,0,-1
 704 1572 l 1,1,-1
 759 1585 l 1,2,-1
 937 1400 l 1,3,-1
 887 1364 l 1,4,-1
 724 1472 l 1,5,-1
 713 1472 l 1,6,-1
 574 1361 l 1,7,-1
 537 1392 l 1,0,-1
22 1168 m 1,8,-1
 35 1244 l 1,9,-1
 577 1244 l 1,10,-1
 568 1168 l 1,11,-1
 399 1130 l 1,12,-1
 399 510 l 2,13,14
 399 304 399 304 492.5 204.5 c 128,-1,15
 586 105 586 105 747 105 c 0,16,17
 903 105 903 105 987 198 c 128,-1,18
 1071 291 1071 291 1072 482 c 2,19,-1
 1075 1126 l 1,20,-1
 892 1168 l 1,21,-1
 902 1244 l 1,22,-1
 1380 1244 l 1,23,-1
 1369 1168 l 1,24,-1
 1203 1130 l 1,25,-1
 1198 515 l 2,26,27
 1196 241 1196 241 1075 107 c 128,-1,28
 954 -27 954 -27 697 -27 c 0,29,30
 620 -27 620 -27 556.5 -16.5 c 128,-1,31
 493 -6 493 -6 425.5 26.5 c 128,-1,32
 358 59 358 59 311.5 112 c 128,-1,33
 265 165 265 165 235.5 256 c 128,-1,34
 206 347 206 347 206 469 c 2,35,-1
 206 1126 l 1,36,-1
 22 1168 l 1,8,-1
EndSplineSet
Colour: ffffff
EndChar

StartChar: Udieresis
Encoding: 220 220 51
Width: 1401
VWidth: 0
Flags: MW
LayerCount: 2
Fore
SplineSet
782 1453 m 0,0,1
 782 1487 782 1487 808 1508.5 c 128,-1,2
 834 1530 834 1530 866 1530 c 0,3,4
 900 1530 900 1530 926.5 1508 c 128,-1,5
 953 1486 953 1486 953 1453 c 0,6,7
 953 1418 953 1418 927 1395.5 c 128,-1,8
 901 1373 901 1373 866 1373 c 0,9,10
 832 1373 832 1373 807 1395.5 c 128,-1,11
 782 1418 782 1418 782 1453 c 0,0,1
515 1453 m 0,12,13
 515 1487 515 1487 540.5 1508.5 c 128,-1,14
 566 1530 566 1530 598 1530 c 0,15,16
 632 1530 632 1530 658 1508 c 128,-1,17
 684 1486 684 1486 684 1453 c 0,18,19
 684 1418 684 1418 658.5 1395.5 c 128,-1,20
 633 1373 633 1373 598 1373 c 0,21,22
 564 1373 564 1373 539.5 1395.5 c 128,-1,23
 515 1418 515 1418 515 1453 c 0,12,13
22 1168 m 1,24,-1
 35 1244 l 1,25,-1
 577 1244 l 1,26,-1
 568 1168 l 1,27,-1
 399 1130 l 1,28,-1
 399 510 l 2,29,30
 399 304 399 304 492.5 204.5 c 128,-1,31
 586 105 586 105 747 105 c 0,32,33
 903 105 903 105 987 198 c 128,-1,34
 1071 291 1071 291 1072 482 c 2,35,-1
 1075 1126 l 1,36,-1
 892 1168 l 1,37,-1
 902 1244 l 1,38,-1
 1380 1244 l 1,39,-1
 1369 1168 l 1,40,-1
 1203 1130 l 1,41,-1
 1198 515 l 2,42,43
 1196 241 1196 241 1075 107 c 128,-1,44
 954 -27 954 -27 697 -27 c 0,45,46
 620 -27 620 -27 556.5 -16.5 c 128,-1,47
 493 -6 493 -6 425.5 26.5 c 128,-1,48
 358 59 358 59 311.5 112 c 128,-1,49
 265 165 265 165 235.5 256 c 128,-1,50
 206 347 206 347 206 469 c 2,51,-1
 206 1126 l 1,52,-1
 22 1168 l 1,24,-1
EndSplineSet
Colour: ffffff
EndChar

StartChar: Ugrave
Encoding: 217 217 52
Width: 2048
VWidth: 0
Flags: M
LayerCount: 2
Fore
SplineSet
475 1659 m 1,0,-1
 590 1697 l 1,1,-1
 722 1364 l 1,2,-1
 666 1329 l 1,3,-1
 475 1659 l 1,0,-1
37 1168 m 1,4,-1
 50 1244 l 1,5,-1
 592 1244 l 1,6,-1
 583 1168 l 1,7,-1
 414 1130 l 1,8,-1
 414 510 l 2,9,10
 414 304 414 304 507.5 204.5 c 128,-1,11
 601 105 601 105 762 105 c 0,12,13
 918 105 918 105 1002 198 c 128,-1,14
 1086 291 1086 291 1087 482 c 2,15,-1
 1090 1126 l 1,16,-1
 907 1168 l 1,17,-1
 917 1244 l 1,18,-1
 1395 1244 l 1,19,-1
 1384 1168 l 1,20,-1
 1218 1130 l 1,21,-1
 1213 515 l 2,22,23
 1211 241 1211 241 1090 107 c 128,-1,24
 969 -27 969 -27 712 -27 c 0,25,26
 635 -27 635 -27 571.5 -16.5 c 128,-1,27
 508 -6 508 -6 440.5 26.5 c 128,-1,28
 373 59 373 59 326.5 112 c 128,-1,29
 280 165 280 165 250.5 256 c 128,-1,30
 221 347 221 347 221 469 c 2,31,-1
 221 1126 l 1,32,-1
 37 1168 l 1,4,-1
EndSplineSet
Colour: ffffff
EndChar

StartChar: V
Encoding: 86 86 53
Width: 1284
VWidth: 1691
Flags: MW
LayerCount: 2
Fore
SplineSet
-21 1168 m 1,0,-1
 -11 1244 l 1,1,-1
 527 1244 l 1,2,-1
 517 1168 l 1,3,-1
 347 1130 l 1,4,-1
 660 251 l 1,5,-1
 980 1126 l 1,6,-1
 798 1168 l 1,7,-1
 805 1244 l 1,8,-1
 1260 1244 l 1,9,-1
 1253 1168 l 1,10,-1
 1121 1130 l 1,11,-1
 696 4 l 1,12,-1
 544 -24 l 1,13,-1
 126 1126 l 1,14,-1
 -21 1168 l 1,0,-1
EndSplineSet
Colour: ffffff
EndChar

StartChar: W
Encoding: 87 87 54
Width: 1844
VWidth: 1691
Flags: MW
LayerCount: 2
Fore
SplineSet
-11 1168 m 1,0,-1
 -2 1244 l 1,1,-1
 512 1244 l 1,2,-1
 497 1168 l 1,3,-1
 330 1130 l 1,4,-1
 572 271 l 1,5,-1
 853 1194 l 1,6,-1
 1029 1219 l 1,7,-1
 1277 287 l 1,8,-1
 1538 1126 l 1,9,-1
 1357 1168 l 1,10,-1
 1368 1244 l 1,11,-1
 1817 1244 l 1,12,-1
 1806 1168 l 1,13,-1
 1683 1130 l 1,14,-1
 1318 4 l 1,15,-1
 1164 -24 l 1,16,-1
 902 951 l 1,17,-1
 617 4 l 1,18,-1
 454 -24 l 1,19,-1
 129 1126 l 1,20,-1
 -11 1168 l 1,0,-1
EndSplineSet
Colour: ffffff
EndChar

StartChar: X
Encoding: 88 88 55
Width: 1202
VWidth: 1691
Flags: MW
LayerCount: 2
Fore
SplineSet
-1 0 m 1,0,-1
 11 76 l 1,1,-1
 138 121 l 1,2,-1
 504 615 l 1,3,-1
 165 1123 l 1,4,-1
 28 1166 l 1,5,-1
 40 1244 l 1,6,-1
 553 1244 l 1,7,-1
 543 1166 l 1,8,-1
 386 1121 l 1,9,-1
 633 750 l 1,10,-1
 904 1126 l 1,11,-1
 734 1166 l 1,12,-1
 747 1244 l 1,13,-1
 1182 1244 l 1,14,-1
 1174 1168 l 1,15,-1
 1047 1130 l 1,16,-1
 709 657 l 1,17,-1
 1050 114 l 1,18,-1
 1185 80 l 1,19,-1
 1172 0 l 1,20,-1
 669 0 l 1,21,-1
 682 74 l 1,22,-1
 842 121 l 1,23,-1
 580 529 l 1,24,-1
 288 117 l 1,25,-1
 454 83 l 1,26,-1
 439 0 l 1,27,-1
 -1 0 l 1,0,-1
EndSplineSet
Colour: ffffff
EndChar

StartChar: Y
Encoding: 89 89 56
Width: 1210
VWidth: 1691
Flags: MW
LayerCount: 2
Fore
SplineSet
-21 1168 m 1,0,-1
 -8 1244 l 1,1,-1
 500 1244 l 1,2,-1
 488 1168 l 1,3,-1
 330 1130 l 1,4,-1
 607 640 l 1,5,-1
 871 1126 l 1,6,-1
 688 1168 l 1,7,-1
 698 1244 l 1,8,-1
 1143 1244 l 1,9,-1
 1133 1168 l 1,10,-1
 1008 1130 l 1,11,-1
 663 529 l 1,12,-1
 663 114 l 1,13,-1
 826 80 l 1,14,-1
 816 0 l 1,15,-1
 310 0 l 1,16,-1
 320 74 l 1,17,-1
 470 121 l 1,18,-1
 470 504 l 1,19,-1
 117 1126 l 1,20,-1
 -21 1168 l 1,0,-1
EndSplineSet
Colour: ffffff
EndChar

StartChar: Yacute
Encoding: 221 221 57
Width: 1123
VWidth: 0
Flags: MW
LayerCount: 2
Fore
SplineSet
455 1380 m 1,0,-1
 578 1705 l 1,1,-1
 689 1666 l 1,2,-1
 506 1348 l 1,3,-1
 455 1380 l 1,0,-1
-73 1168 m 1,4,-1
 -60 1244 l 1,5,-1
 448 1244 l 1,6,-1
 436 1168 l 1,7,-1
 278 1130 l 1,8,-1
 555 640 l 1,9,-1
 819 1126 l 1,10,-1
 636 1168 l 1,11,-1
 646 1244 l 1,12,-1
 1091 1244 l 1,13,-1
 1081 1168 l 1,14,-1
 956 1130 l 1,15,-1
 611 529 l 1,16,-1
 611 114 l 1,17,-1
 774 80 l 1,18,-1
 764 0 l 1,19,-1
 258 0 l 1,20,-1
 268 74 l 1,21,-1
 418 121 l 1,22,-1
 418 504 l 1,23,-1
 65 1126 l 1,24,-1
 -73 1168 l 1,4,-1
EndSplineSet
Colour: ffffff
EndChar

StartChar: Z
Encoding: 90 90 58
Width: 1009
VWidth: 1691
Flags: MW
LayerCount: 2
Fore
SplineSet
47 104 m 1,0,-1
 792 1149 l 1,1,-1
 255 1149 l 1,2,-1
 178 903 l 1,3,-1
 88 921 l 1,4,-1
 98 1244 l 1,5,-1
 1026 1244 l 1,6,-1
 1026 1168 l 1,7,-1
 262 100 l 1,8,-1
 832 100 l 1,9,-1
 955 351 l 1,10,-1
 1048 335 l 1,11,-1
 991 0 l 1,12,-1
 55 0 l 1,13,-1
 47 104 l 1,0,-1
EndSplineSet
Colour: ffffff
EndChar

StartChar: a
Encoding: 97 97 59
Width: 1077
VWidth: 1691
Flags: MW
LayerCount: 2
Fore
SplineSet
37 0 m 1,0,-1
 46 74 l 1,1,-1
 165 129 l 1,2,-1
 489 917 l 1,3,-1
 640 948 l 1,4,-1
 934 124 l 1,5,-1
 1041 80 l 1,6,-1
 1032 0 l 1,7,-1
 587 0 l 1,8,-1
 599 74 l 1,9,-1
 730 121 l 1,10,-1
 665 310 l 1,11,-1
 368 310 l 1,12,-1
 300 124 l 1,13,-1
 446 80 l 1,14,-1
 435 0 l 1,15,-1
 37 0 l 1,0,-1
406 412 m 1,16,-1
 631 412 l 1,17,-1
 522 730 l 1,18,-1
 406 412 l 1,16,-1
EndSplineSet
Colour: ffffff
EndChar

StartChar: aacute
Encoding: 225 225 60
Width: 1077
VWidth: 0
Flags: MW
LayerCount: 2
Fore
SplineSet
514 1053 m 1,0,-1
 637 1378 l 1,1,-1
 748 1339 l 1,2,-1
 565 1021 l 1,3,-1
 514 1053 l 1,0,-1
37 0 m 1,4,-1
 46 74 l 1,5,-1
 165 129 l 1,6,-1
 489 917 l 1,7,-1
 640 948 l 1,8,-1
 934 124 l 1,9,-1
 1041 80 l 1,10,-1
 1032 0 l 1,11,-1
 587 0 l 1,12,-1
 599 74 l 1,13,-1
 730 121 l 1,14,-1
 665 310 l 1,15,-1
 368 310 l 1,16,-1
 300 124 l 1,17,-1
 446 80 l 1,18,-1
 435 0 l 1,19,-1
 37 0 l 1,4,-1
406 412 m 1,20,-1
 631 412 l 1,21,-1
 522 730 l 1,22,-1
 406 412 l 1,20,-1
EndSplineSet
Colour: ffffff
EndChar

StartChar: acircumflex
Encoding: 226 226 61
Width: 1077
VWidth: 0
Flags: MW
LayerCount: 2
Fore
SplineSet
368 1058 m 1,0,-1
 536 1237 l 1,1,-1
 591 1252 l 1,2,-1
 769 1066 l 1,3,-1
 720 1029 l 1,4,-1
 557 1139 l 1,5,-1
 546 1139 l 1,6,-1
 407 1028 l 1,7,-1
 368 1058 l 1,0,-1
37 0 m 1,8,-1
 46 74 l 1,9,-1
 165 129 l 1,10,-1
 489 917 l 1,11,-1
 640 948 l 1,12,-1
 934 124 l 1,13,-1
 1041 80 l 1,14,-1
 1032 0 l 1,15,-1
 587 0 l 1,16,-1
 599 74 l 1,17,-1
 730 121 l 1,18,-1
 665 310 l 1,19,-1
 368 310 l 1,20,-1
 300 124 l 1,21,-1
 446 80 l 1,22,-1
 435 0 l 1,23,-1
 37 0 l 1,8,-1
406 412 m 1,24,-1
 631 412 l 1,25,-1
 522 730 l 1,26,-1
 406 412 l 1,24,-1
EndSplineSet
Colour: ffffff
EndChar

StartChar: acute
Encoding: 180 180 62
Width: 520
VWidth: 0
Flags: MW
LayerCount: 2
Fore
SplineSet
172 1380 m 1,0,-1
 295 1705 l 1,1,-1
 406 1666 l 1,2,-1
 223 1348 l 1,3,-1
 172 1380 l 1,0,-1
EndSplineSet
Colour: ffffff
EndChar

StartChar: adieresis
Encoding: 228 228 63
Width: 1077
VWidth: 0
Flags: MW
LayerCount: 2
Fore
SplineSet
612 1109 m 0,0,1
 612 1142 612 1142 638.5 1164 c 128,-1,2
 665 1186 665 1186 697 1186 c 0,3,4
 731 1186 731 1186 757.5 1164 c 128,-1,5
 784 1142 784 1142 784 1109 c 0,6,7
 784 1074 784 1074 757.5 1050.5 c 128,-1,8
 731 1027 731 1027 697 1027 c 128,-1,9
 663 1027 663 1027 637.5 1050.5 c 128,-1,10
 612 1074 612 1074 612 1109 c 0,0,1
344 1109 m 0,11,12
 344 1142 344 1142 370.5 1164 c 128,-1,13
 397 1186 397 1186 429 1186 c 0,14,15
 463 1186 463 1186 489 1164 c 128,-1,16
 515 1142 515 1142 515 1109 c 0,17,18
 515 1073 515 1073 489 1050 c 128,-1,19
 463 1027 463 1027 429 1027 c 128,-1,20
 395 1027 395 1027 369.5 1050.5 c 128,-1,21
 344 1074 344 1074 344 1109 c 0,11,12
37 0 m 1,22,-1
 46 74 l 1,23,-1
 165 129 l 1,24,-1
 489 917 l 1,25,-1
 640 948 l 1,26,-1
 934 124 l 1,27,-1
 1041 80 l 1,28,-1
 1032 0 l 1,29,-1
 587 0 l 1,30,-1
 599 74 l 1,31,-1
 730 121 l 1,32,-1
 665 310 l 1,33,-1
 368 310 l 1,34,-1
 300 124 l 1,35,-1
 446 80 l 1,36,-1
 435 0 l 1,37,-1
 37 0 l 1,22,-1
406 412 m 1,38,-1
 631 412 l 1,39,-1
 522 730 l 1,40,-1
 406 412 l 1,38,-1
EndSplineSet
Colour: ffffff
EndChar

StartChar: ae
Encoding: 230 230 64
Width: 1452
VWidth: 0
Flags: MW
LayerCount: 2
Fore
SplineSet
522 423 m 1,0,-1
 733 423 l 1,1,-1
 733 754 l 1,2,-1
 522 423 l 1,0,-1
52 1 m 1,3,-1
 61 76 l 1,4,-1
 197 131 l 1,5,-1
 654 812 l 1,6,-1
 450 851 l 1,7,-1
 460 927 l 1,8,-1
 1373 927 l 1,9,-1
 1352 654 l 1,10,-1
 1253 667 l 1,11,-1
 1222 835 l 1,12,-1
 921 835 l 1,13,-1
 921 503 l 1,14,-1
 1098 503 l 1,15,-1
 1120 583 l 1,16,-1
 1218 597 l 1,17,-1
 1184 298 l 1,18,-1
 1093 285 l 1,19,-1
 1082 410 l 1,20,-1
 921 410 l 1,21,-1
 921 96 l 1,22,-1
 1256 96 l 1,23,-1
 1323 276 l 1,24,-1
 1417 263 l 1,25,-1
 1397 0 l 1,26,-1
 588 0 l 1,27,-1
 596 74 l 1,28,-1
 733 121 l 1,29,-1
 733 327 l 1,30,-1
 460 327 l 1,31,-1
 332 126 l 1,32,-1
 480 83 l 1,33,-1
 467 1 l 1,34,-1
 52 1 l 1,3,-1
EndSplineSet
Colour: ffffff
EndChar

StartChar: agrave
Encoding: 224 224 65
Width: 2048
VWidth: 0
Flags: M
LayerCount: 2
Fore
SplineSet
343 1350 m 1,0,-1
 458 1388 l 1,1,-1
 590 1055 l 1,2,-1
 534 1020 l 1,3,-1
 343 1350 l 1,0,-1
18 0 m 1,4,-1
 27 74 l 1,5,-1
 146 129 l 1,6,-1
 470 917 l 1,7,-1
 621 948 l 1,8,-1
 915 124 l 1,9,-1
 1022 80 l 1,10,-1
 1013 0 l 1,11,-1
 568 0 l 1,12,-1
 580 74 l 1,13,-1
 711 121 l 1,14,-1
 646 310 l 1,15,-1
 349 310 l 1,16,-1
 281 124 l 1,17,-1
 427 80 l 1,18,-1
 416 0 l 1,19,-1
 18 0 l 1,4,-1
387 412 m 1,20,-1
 612 412 l 1,21,-1
 503 730 l 1,22,-1
 387 412 l 1,20,-1
EndSplineSet
Colour: ffffff
EndChar

StartChar: ampersand
Encoding: 38 38 66
Width: 1281
VWidth: 0
Flags: MW
LayerCount: 2
Back
SplineSet
-73 711 m 1,0,-1
 -63 787 l 1,1,-1
 475 787 l 1,2,-1
 465 711 l 1,3,-1
 295 673 l 1,4,-1
 608 -206 l 1,5,-1
 928 669 l 1,6,-1
 746 711 l 1,7,-1
 753 787 l 1,8,-1
 1208 787 l 1,9,-1
 1201 711 l 1,10,-1
 1069 673 l 1,11,-1
 644 -453 l 1,12,-1
 492 -481 l 1,13,-1
 74 669 l 1,14,-1
 -73 711 l 1,0,-1
EndSplineSet
Fore
SplineSet
423 399 m 1,0,1
 335 322 335 322 335 216 c 0,2,3
 335 174 335 174 371 136.5 c 128,-1,4
 407 99 407 99 457 99 c 0,5,6
 552 99 552 99 629 168 c 1,7,-1
 423 399 l 1,0,1
690 102 m 1,8,9
 630 41 630 41 559 11 c 128,-1,10
 488 -19 488 -19 396 -19 c 0,11,12
 282 -19 282 -19 214.5 36.5 c 128,-1,13
 147 92 147 92 147 182 c 0,14,15
 147 222 147 222 160 258 c 128,-1,16
 173 294 173 294 191.5 320.5 c 128,-1,17
 210 347 210 347 241.5 375 c 128,-1,18
 273 403 273 403 299 421 c 128,-1,19
 325 439 325 439 365 464 c 1,20,-1
 326 507 l 1,21,22
 245 611 245 611 245 703 c 0,23,24
 245 797 245 797 324 872 c 128,-1,25
 403 947 403 947 507 947 c 0,26,27
 613 947 613 947 676.5 892.5 c 128,-1,28
 740 838 740 838 740 753 c 0,29,30
 740 705 740 705 726.5 665.5 c 128,-1,31
 713 626 713 626 685 595 c 128,-1,32
 657 564 657 564 630 542.5 c 128,-1,33
 603 521 603 521 562 495 c 1,34,-1
 736 303 l 1,35,36
 784 381 784 381 836 497 c 1,37,-1
 722 539 l 1,38,-1
 732 607 l 1,39,-1
 1106 607 l 1,40,-1
 1096 539 l 1,41,-1
 946 500 l 1,42,43
 841 308 841 308 796 238 c 1,44,45
 911 118 911 118 1043 81 c 1,46,-1
 1076 71 l 1,47,-1
 1062 2 l 1,48,49
 1005 -18 1005 -18 943 -18 c 0,50,51
 875 -18 875 -18 809 16.5 c 128,-1,52
 743 51 743 51 690 102 c 1,8,9
505 558 m 1,53,54
 594 632 594 632 594 720 c 0,55,56
 594 792 594 792 563.5 828 c 128,-1,57
 533 864 533 864 487 864 c 0,58,59
 455 864 455 864 431 830 c 128,-1,60
 407 796 407 796 407 752 c 0,61,62
 407 712 407 712 425 673 c 128,-1,63
 443 634 443 634 493 571 c 1,64,-1
 505 558 l 1,53,54
EndSplineSet
Colour: ffffff
EndChar

StartChar: aring
Encoding: 229 229 67
Width: 1077
VWidth: 0
Flags: MW
LayerCount: 2
Fore
SplineSet
474 1184 m 0,0,1
 474 1133 474 1133 499 1094.5 c 128,-1,2
 524 1056 524 1056 569 1056 c 0,3,4
 610 1056 610 1056 632.5 1086 c 128,-1,5
 655 1116 655 1116 655 1170 c 0,6,7
 655 1220 655 1220 629 1258 c 128,-1,8
 603 1296 603 1296 559 1296 c 0,9,10
 518 1296 518 1296 496 1263 c 128,-1,11
 474 1230 474 1230 474 1184 c 0,0,1
403 1173 m 0,12,13
 403 1243 403 1243 452 1294 c 128,-1,14
 501 1345 501 1345 570 1345 c 0,15,16
 641 1345 641 1345 683.5 1299 c 128,-1,17
 726 1253 726 1253 726 1182 c 0,18,19
 726 1112 726 1112 678.5 1059.5 c 128,-1,20
 631 1007 631 1007 557 1007 c 0,21,22
 488 1007 488 1007 445.5 1052 c 128,-1,23
 403 1097 403 1097 403 1173 c 0,12,13
37 0 m 1,24,-1
 46 74 l 1,25,-1
 165 129 l 1,26,-1
 489 917 l 1,27,-1
 640 948 l 1,28,-1
 934 124 l 1,29,-1
 1041 80 l 1,30,-1
 1032 0 l 1,31,-1
 587 0 l 1,32,-1
 599 74 l 1,33,-1
 730 121 l 1,34,-1
 665 310 l 1,35,-1
 368 310 l 1,36,-1
 300 124 l 1,37,-1
 446 80 l 1,38,-1
 435 0 l 1,39,-1
 37 0 l 1,24,-1
406 412 m 1,40,-1
 631 412 l 1,41,-1
 522 730 l 1,42,-1
 406 412 l 1,40,-1
EndSplineSet
Colour: ffffff
EndChar

StartChar: asciicircum
Encoding: 94 94 68
Width: 720
VWidth: 0
Flags: MW
LayerCount: 2
Fore
SplineSet
42 826 m 1,0,-1
 331 1237 l 1,1,-1
 386 1250 l 1,2,-1
 681 824 l 1,3,-1
 624 787 l 1,4,-1
 353 1073 l 1,5,-1
 343 1073 l 1,6,-1
 92 793 l 1,7,-1
 42 826 l 1,0,-1
EndSplineSet
Colour: ffffff
EndChar

StartChar: asciitilde
Encoding: 126 126 69
Width: 947
VWidth: 0
Flags: MW
LayerCount: 2
Fore
SplineSet
83 412 m 1,0,1
 85 421 85 421 90 435 c 128,-1,2
 95 449 95 449 112.5 485 c 128,-1,3
 130 521 130 521 150 547.5 c 128,-1,4
 170 574 170 574 203.5 594.5 c 128,-1,5
 237 615 237 615 274 611 c 2,6,-1
 724 566 l 2,7,8
 740 565 740 565 761 580.5 c 128,-1,9
 782 596 782 596 794 612 c 2,10,-1
 806 628 l 1,11,-1
 870 626 l 1,12,13
 867 617 867 617 862 602.5 c 128,-1,14
 857 588 857 588 839 551.5 c 128,-1,15
 821 515 821 515 800.5 488 c 128,-1,16
 780 461 780 461 745 440.5 c 128,-1,17
 710 420 710 420 672 424 c 2,18,-1
 222 469 l 2,19,20
 204 471 204 471 183 453.5 c 128,-1,21
 162 436 162 436 150 418 c 2,22,-1
 138 399 l 1,23,-1
 83 412 l 1,0,1
EndSplineSet
Colour: ffffff
EndChar

StartChar: asterisk
Encoding: 42 42 70
Width: 808
VWidth: 0
Flags: MW
LayerCount: 2
Fore
SplineSet
43 964 m 1,0,-1
 98 1091 l 1,1,-1
 365 977 l 1,2,-1
 328 1292 l 1,3,-1
 464 1279 l 1,4,-1
 438 988 l 1,5,-1
 727 1119 l 1,6,-1
 756 989 l 1,7,-1
 471 921 l 1,8,-1
 690 692 l 1,9,-1
 572 623 l 1,10,-1
 419 870 l 1,11,-1
 264 593 l 1,12,-1
 162 685 l 1,13,-1
 355 904 l 1,14,-1
 43 964 l 1,0,-1
EndSplineSet
Colour: ffffff
EndChar

StartChar: at
Encoding: 64 64 71
Width: 1367
VWidth: 0
Flags: MW
LayerCount: 2
Fore
SplineSet
516 368 m 0,0,1
 516 262 516 262 538 221.5 c 128,-1,2
 560 181 560 181 601 181 c 0,3,4
 677 181 677 181 739 254 c 1,5,-1
 792 692 l 1,6,7
 740 703 740 703 704 703 c 0,8,9
 649 703 649 703 604.5 651 c 128,-1,10
 560 599 560 599 538 523 c 128,-1,11
 516 447 516 447 516 368 c 0,0,1
54 325 m 0,12,13
 54 523 54 523 146.5 687 c 128,-1,14
 239 851 239 851 407.5 947.5 c 128,-1,15
 576 1044 576 1044 787 1044 c 0,16,17
 927 1044 927 1044 1045 988.5 c 128,-1,18
 1163 933 1163 933 1234.5 827.5 c 128,-1,19
 1306 722 1306 722 1306 589 c 0,20,21
 1306 454 1306 454 1245.5 335.5 c 128,-1,22
 1185 217 1185 217 1075 143.5 c 128,-1,23
 965 70 965 70 832 70 c 0,24,25
 783 70 783 70 759.5 101.5 c 128,-1,26
 736 133 736 133 738 187 c 1,27,-1
 728 187 l 1,28,29
 693 135 693 135 643 97 c 128,-1,30
 593 59 593 59 541 59 c 0,31,32
 460 59 460 59 410 130 c 128,-1,33
 360 201 360 201 360 326 c 0,34,35
 360 428 360 428 398.5 517.5 c 128,-1,36
 437 607 437 607 496.5 665 c 128,-1,37
 556 723 556 723 625 756 c 128,-1,38
 694 789 694 789 758 789 c 0,39,40
 854 789 854 789 924 773 c 1,41,-1
 943 751 l 1,42,-1
 902 385 l 2,43,44
 901 371 901 371 897.5 346.5 c 128,-1,45
 894 322 894 322 892 304.5 c 128,-1,46
 890 287 890 287 888 264.5 c 128,-1,47
 886 242 886 242 886.5 226.5 c 128,-1,48
 887 211 887 211 889 196.5 c 128,-1,49
 891 182 891 182 897.5 175 c 128,-1,50
 904 168 904 168 914 168 c 0,51,52
 1025 168 1025 168 1099 280.5 c 128,-1,53
 1173 393 1173 393 1173 549 c 0,54,55
 1173 739 1173 739 1053.5 847 c 128,-1,56
 934 955 934 955 751 955 c 0,57,58
 631 955 631 955 528 905 c 128,-1,59
 425 855 425 855 356 771 c 128,-1,60
 287 687 287 687 248 578 c 128,-1,61
 209 469 209 469 209 351 c 0,62,63
 209 127 209 127 346 -4 c 128,-1,64
 483 -135 483 -135 727 -135 c 0,65,66
 828 -135 828 -135 931.5 -96 c 128,-1,67
 1035 -57 1035 -57 1079 -19 c 1,68,-1
 1115 -83 l 1,69,70
 1111 -85 1111 -85 1069 -111 c 128,-1,71
 1027 -137 1027 -137 1011.5 -145.5 c 128,-1,72
 996 -154 996 -154 952 -174.5 c 128,-1,73
 908 -195 908 -195 875.5 -203.5 c 128,-1,74
 843 -212 843 -212 793 -220 c 128,-1,75
 743 -228 743 -228 691 -228 c 0,76,77
 596 -228 596 -228 507.5 -209.5 c 128,-1,78
 419 -191 419 -191 335.5 -148.5 c 128,-1,79
 252 -106 252 -106 190.5 -43.5 c 128,-1,80
 129 19 129 19 91.5 114 c 128,-1,81
 54 209 54 209 54 325 c 0,12,13
EndSplineSet
Colour: ffffff
EndChar

StartChar: atilde
Encoding: 227 227 72
Width: 1077
VWidth: 0
Flags: MW
LayerCount: 2
Fore
SplineSet
348 1032 m 1,0,1
 350 1038 350 1038 353 1048.5 c 128,-1,2
 356 1059 356 1059 368 1085 c 128,-1,3
 380 1111 380 1111 394.5 1130 c 128,-1,4
 409 1149 409 1149 433 1163 c 128,-1,5
 457 1177 457 1177 484 1174 c 2,6,-1
 710 1145 l 2,7,8
 721 1144 721 1144 735.5 1154 c 128,-1,9
 750 1164 750 1164 758 1174 c 2,10,-1
 766 1185 l 1,11,-1
 815 1183 l 1,12,13
 810.5 1169.5 l 130,-1,14
 806 1156 806 1156 792.5 1129.5 c 128,-1,15
 779 1103 779 1103 763.5 1084 c 128,-1,16
 748 1065 748 1065 723 1050.5 c 128,-1,17
 698 1036 698 1036 671 1040 c 2,18,-1
 446 1072 l 2,19,20
 434 1074 434 1074 419 1061.5 c 128,-1,21
 404 1049 404 1049 396 1036 c 2,22,-1
 387 1023 l 1,23,-1
 348 1032 l 1,0,1
37 0 m 1,24,-1
 46 74 l 1,25,-1
 165 129 l 1,26,-1
 489 917 l 1,27,-1
 640 948 l 1,28,-1
 934 124 l 1,29,-1
 1041 80 l 1,30,-1
 1032 0 l 1,31,-1
 587 0 l 1,32,-1
 599 74 l 1,33,-1
 730 121 l 1,34,-1
 665 310 l 1,35,-1
 368 310 l 1,36,-1
 300 124 l 1,37,-1
 446 80 l 1,38,-1
 435 0 l 1,39,-1
 37 0 l 1,24,-1
406 412 m 1,40,-1
 631 412 l 1,41,-1
 522 730 l 1,42,-1
 406 412 l 1,40,-1
EndSplineSet
Colour: ffffff
EndChar

StartChar: b
Encoding: 98 98 73
Width: 943
VWidth: 1691
Flags: MW
LayerCount: 2
Fore
SplineSet
377 525 m 1,0,-1
 543 525 l 1,1,2
 586 550 586 550 610.5 600 c 128,-1,3
 635 650 635 650 635 709 c 0,4,5
 635 777 635 777 587 824 c 128,-1,6
 539 871 539 871 427 871 c 0,7,8
 402 871 402 871 377 868 c 1,9,-1
 377 525 l 1,0,-1
377 96 m 1,10,-1
 507 96 l 2,11,12
 606 96 606 96 658.5 143.5 c 128,-1,13
 711 191 711 191 711 277 c 0,14,15
 711 346 711 346 658.5 394 c 128,-1,16
 606 442 606 442 510 442 c 2,17,-1
 377 442 l 1,18,-1
 377 96 l 1,10,-1
37 0 m 1,19,-1
 48 74 l 1,20,-1
 185 121 l 1,21,-1
 185 804 l 1,22,-1
 44 834 l 1,23,-1
 54 911 l 1,24,25
 332 957 332 957 486 957 c 0,26,27
 650 957 650 957 732.5 891 c 128,-1,28
 815 825 815 825 815 727 c 0,29,30
 815 661 815 661 773 603 c 128,-1,31
 731 545 731 545 637 516 c 1,32,-1
 637 509 l 1,33,34
 771 503 771 503 839 447.5 c 128,-1,35
 907 392 907 392 907 290 c 0,36,37
 907 233 907 233 884 183.5 c 128,-1,38
 861 134 861 134 812 91.5 c 128,-1,39
 763 49 763 49 674 24.5 c 128,-1,40
 585 0 585 0 465 0 c 2,41,-1
 37 0 l 1,19,-1
EndSplineSet
Colour: ffffff
EndChar

StartChar: backslash
Encoding: 92 92 74
Width: 677
VWidth: 0
Flags: MW
LayerCount: 2
Fore
SplineSet
37 1274 m 1,0,-1
 171 1266 l 1,1,-1
 632 -376 l 1,2,-1
 504 -368 l 1,3,-1
 37 1274 l 1,0,-1
EndSplineSet
Colour: ffffff
EndChar

StartChar: bar
Encoding: 124 124 75
Width: 331
VWidth: 0
Flags: MW
LayerCount: 2
Fore
SplineSet
109 -366 m 1,0,-1
 109 1260 l 1,1,-1
 224 1248 l 1,2,-1
 224 -380 l 1,3,-1
 109 -366 l 1,0,-1
EndSplineSet
Colour: ffffff
EndChar

StartChar: braceleft
Encoding: 123 123 76
Width: 551
VWidth: 0
Flags: MW
LayerCount: 2
Fore
SplineSet
4 389 m 1,0,-1
 4 488 l 1,1,-1
 53 497 l 2,2,3
 112 507 112 507 143.5 554.5 c 128,-1,4
 175 602 175 602 183.5 669.5 c 128,-1,5
 192 737 192 737 193 816 c 128,-1,6
 194 895 194 895 200 972.5 c 128,-1,7
 206 1050 206 1050 224 1113.5 c 128,-1,8
 242 1177 242 1177 292.5 1216 c 128,-1,9
 343 1255 343 1255 426 1255 c 2,10,-1
 527 1255 l 1,11,-1
 518 1155 l 1,12,-1
 436 1149 l 2,13,14
 390 1145 390 1145 377 1089.5 c 128,-1,15
 364 1034 364 1034 364 921 c 2,16,-1
 364 862 l 2,17,18
 364 797 364 797 362 754.5 c 128,-1,19
 360 712 360 712 350.5 654.5 c 128,-1,20
 341 597 341 597 324 560 c 128,-1,21
 307 523 307 523 274 490.5 c 128,-1,22
 241 458 241 458 194 445 c 1,23,-1
 194 438 l 1,24,25
 254 421 254 421 291.5 372.5 c 128,-1,26
 329 324 329 324 343 261.5 c 128,-1,27
 357 199 357 199 361.5 127 c 128,-1,28
 366 55 366 55 365.5 -14 c 128,-1,29
 365 -83 365 -83 369.5 -140 c 128,-1,30
 374 -197 374 -197 393 -233 c 128,-1,31
 412 -269 412 -269 449 -271 c 2,32,-1
 523 -277 l 1,33,-1
 531 -378 l 1,34,-1
 429 -378 l 2,35,36
 345 -378 345 -378 293.5 -338.5 c 128,-1,37
 242 -299 242 -299 223.5 -235.5 c 128,-1,38
 205 -172 205 -172 199 -94 c 128,-1,39
 193 -16 193 -16 192 63.5 c 128,-1,40
 191 143 191 143 183.5 210.5 c 128,-1,41
 176 278 176 278 145 325 c 128,-1,42
 114 372 114 372 56 381 c 2,43,-1
 4 389 l 1,0,-1
EndSplineSet
Colour: ffffff
EndChar

StartChar: braceright
Encoding: 125 125 77
Width: 553
VWidth: 0
Flags: MW
LayerCount: 2
Fore
SplineSet
22 -378 m 1,0,-1
 31 -277 l 1,1,-1
 105 -271 l 2,2,3
 142 -269 142 -269 161 -233 c 128,-1,4
 180 -197 180 -197 184.5 -140 c 128,-1,5
 189 -83 189 -83 188.5 -14 c 128,-1,6
 188 55 188 55 192.5 127 c 128,-1,7
 197 199 197 199 211 261.5 c 128,-1,8
 225 324 225 324 262.5 372.5 c 128,-1,9
 300 421 300 421 360 438 c 1,10,-1
 360 445 l 1,11,12
 300 459 300 459 262.5 505 c 128,-1,13
 225 551 225 551 212 613 c 128,-1,14
 199 675 199 675 195 746.5 c 128,-1,15
 191 818 191 818 192 887.5 c 128,-1,16
 193 957 193 957 190 1014.5 c 128,-1,17
 187 1072 187 1072 169.5 1109 c 128,-1,18
 152 1146 152 1146 117 1149 c 2,19,-1
 35 1155 l 1,20,-1
 28 1255 l 1,21,-1
 129 1255 l 2,22,23
 194 1255 194 1255 239.5 1230.5 c 128,-1,24
 285 1206 285 1206 307.5 1165 c 128,-1,25
 330 1124 330 1124 342 1070 c 128,-1,26
 354 1016 354 1016 356.5 955.5 c 128,-1,27
 359 895 359 895 359.5 834 c 128,-1,28
 360 773 360 773 365 716 c 128,-1,29
 370 659 370 659 382.5 613 c 128,-1,30
 395 567 395 567 424.5 536 c 128,-1,31
 454 505 454 505 500 497 c 2,32,-1
 549 488 l 1,33,-1
 549 389 l 1,34,-1
 497 381 l 2,35,36
 439 372 439 372 408.5 325 c 128,-1,37
 378 278 378 278 370 210.5 c 128,-1,38
 362 143 362 143 361.5 63.5 c 128,-1,39
 361 -16 361 -16 355.5 -94 c 128,-1,40
 350 -172 350 -172 331.5 -235.5 c 128,-1,41
 313 -299 313 -299 261.5 -338.5 c 128,-1,42
 210 -378 210 -378 126 -378 c 2,43,-1
 22 -378 l 1,0,-1
EndSplineSet
Colour: ffffff
EndChar

StartChar: bracketleft
Encoding: 91 91 78
Width: 474
VWidth: 0
Flags: MW
LayerCount: 2
Fore
SplineSet
109 -376 m 1,0,-1
 109 1255 l 1,1,-1
 463 1255 l 1,2,-1
 474 1166 l 1,3,-1
 260 1146 l 1,4,-1
 260 -260 l 1,5,-1
 476 -279 l 1,6,-1
 466 -375 l 1,7,-1
 109 -376 l 1,0,-1
EndSplineSet
Colour: ffffff
EndChar

StartChar: bracketright
Encoding: 93 93 79
Width: 474
VWidth: 0
Flags: MW
LayerCount: 2
Fore
SplineSet
0 -279 m 1,0,-1
 217 -260 l 1,1,-1
 217 1146 l 1,2,-1
 1 1166 l 1,3,-1
 13 1255 l 1,4,-1
 366 1255 l 1,5,-1
 368 -376 l 1,6,-1
 10 -375 l 1,7,-1
 0 -279 l 1,0,-1
EndSplineSet
Colour: ffffff
EndChar

StartChar: brokenbar
Encoding: 166 166 80
Width: 335
VWidth: 0
Flags: MW
LayerCount: 2
Back
SplineSet
177 -350 m 1,0,-1
 301 431 l 1,1,-1
 410 419 l 1,2,-1
 286 -363 l 1,3,-1
 177 -350 l 1,0,-1
319 540 m 1,4,-1
 431 1255 l 1,5,-1
 540 1244 l 1,6,-1
 423 528 l 1,7,-1
 319 540 l 1,4,-1
EndSplineSet
Fore
SplineSet
109 540 m 1,0,-1
 109 1260 l 1,1,-1
 227 1248 l 1,2,-1
 225 529 l 1,3,-1
 109 540 l 1,0,-1
109 -366 m 1,4,-1
 109 423 l 1,5,-1
 228 411 l 1,6,-1
 228 -380 l 1,7,-1
 109 -366 l 1,4,-1
EndSplineSet
Colour: ffffff
EndChar

StartChar: c
Encoding: 99 99 81
Width: 879
VWidth: 1691
Flags: MW
LayerCount: 2
Fore
SplineSet
39 439 m 0,0,1
 39 507 39 507 56 576 c 128,-1,2
 73 645 73 645 111 712.5 c 128,-1,3
 149 780 149 780 204 831.5 c 128,-1,4
 259 883 259 883 341.5 915 c 128,-1,5
 424 947 424 947 523 947 c 0,6,7
 702 947 702 947 805 880 c 1,8,-1
 784 602 l 1,9,-1
 686 615 l 1,10,-1
 664 775 l 1,11,12
 617 852 617 852 486 852 c 0,13,14
 370 852 370 852 301.5 757.5 c 128,-1,15
 233 663 233 663 233 498 c 0,16,17
 233 406 233 406 260 330 c 128,-1,18
 287 254 287 254 331.5 206.5 c 128,-1,19
 376 159 376 159 429.5 133.5 c 128,-1,20
 483 108 483 108 539 108 c 0,21,22
 632 108 632 108 689.5 129 c 128,-1,23
 747 150 747 150 809 191 c 1,24,-1
 844 115 l 1,25,26
 705 -24 705 -24 472 -24 c 0,27,28
 387 -24 387 -24 309.5 6.5 c 128,-1,29
 232 37 232 37 171.5 94 c 128,-1,30
 111 151 111 151 75 240.5 c 128,-1,31
 39 330 39 330 39 439 c 0,0,1
EndSplineSet
Colour: ffffff
EndChar

StartChar: ccedilla
Encoding: 231 231 82
Width: 879
VWidth: 0
Flags: M
LayerCount: 2
Fore
SplineSet
390 -335 m 1,0,1
 431 -321 431 -321 453.5 -298.5 c 128,-1,2
 476 -276 476 -276 476 -252 c 0,3,4
 476 -212 476 -212 402 -142 c 1,5,-1
 484 -24 l 1,6,7
 478 -24 478 -24 472 -24 c 0,8,9
 387 -24 387 -24 309.5 6.5 c 128,-1,10
 232 37 232 37 171.5 94 c 128,-1,11
 111 151 111 151 75 240.5 c 128,-1,12
 39 330 39 330 39 439 c 0,13,14
 39 507 39 507 56 576 c 128,-1,15
 73 645 73 645 111 712.5 c 128,-1,16
 149 780 149 780 204 831.5 c 128,-1,17
 259 883 259 883 341.5 915 c 128,-1,18
 424 947 424 947 523 947 c 0,19,20
 702 947 702 947 805 880 c 1,21,-1
 784 602 l 1,22,-1
 686 615 l 1,23,-1
 664 775 l 1,24,25
 617 852 617 852 486 852 c 0,26,27
 370 852 370 852 301.5 757.5 c 128,-1,28
 233 663 233 663 233 498 c 0,29,30
 233 406 233 406 260 330 c 128,-1,31
 287 254 287 254 331.5 206.5 c 128,-1,32
 376 159 376 159 429.5 133.5 c 128,-1,33
 483 108 483 108 539 108 c 0,34,35
 632 108 632 108 689.5 129 c 128,-1,36
 747 150 747 150 809 191 c 1,37,-1
 844 115 l 1,38,39
 732 3 732 3 562 -18 c 1,40,-1
 521 -80 l 1,41,42
 545 -102 545 -102 561.5 -119.5 c 128,-1,43
 578 -137 578 -137 594 -168.5 c 128,-1,44
 610 -200 610 -200 610 -231 c 0,45,46
 610 -334 610 -334 409 -393 c 1,47,-1
 390 -335 l 1,0,1
EndSplineSet
Colour: ffffff
EndChar

StartChar: cedilla
Encoding: 184 184 83
Width: 341
VWidth: 0
Flags: MW
LayerCount: 2
Fore
SplineSet
62 -331 m 1,0,1
 103 -317 103 -317 125.5 -294.5 c 128,-1,2
 148 -272 148 -272 148 -248 c 0,3,4
 148 -208 148 -208 74 -138 c 1,5,-1
 172 3 l 1,6,-1
 246 3 l 1,7,-1
 193 -76 l 1,8,9
 282 -155 282 -155 282 -227 c 0,10,11
 282 -330 282 -330 81 -389 c 1,12,-1
 62 -331 l 1,0,1
EndSplineSet
Colour: ffffff
EndChar

StartChar: cent
Encoding: 162 162 84
Width: 808
VWidth: 0
Flags: MW
LayerCount: 2
Fore
SplineSet
347 1154 m 1,0,-1
 493 1171 l 1,1,-1
 472 940 l 1,2,3
 587 939 587 939 647 894.5 c 128,-1,4
 707 850 707 850 707 787 c 0,5,6
 707 742 707 742 674.5 714.5 c 128,-1,7
 642 687 642 687 581 683 c 1,8,9
 568 714 568 714 555.5 737.5 c 128,-1,10
 543 761 543 761 523 788.5 c 128,-1,11
 503 816 503 816 476.5 831 c 128,-1,12
 450 846 450 846 419 846 c 0,13,14
 332 846 332 846 277 746.5 c 128,-1,15
 222 647 222 647 222 507 c 0,16,17
 222 441 222 441 240 371 c 128,-1,18
 258 301 258 301 292 236.5 c 128,-1,19
 326 172 326 172 385.5 131 c 128,-1,20
 445 90 445 90 519 90 c 0,21,22
 586 90 586 90 631 106 c 128,-1,23
 676 122 676 122 721 151 c 1,24,-1
 746 93 l 1,25,26
 709 48 709 48 634 13.5 c 128,-1,27
 559 -21 559 -21 476 -28 c 1,28,-1
 505 -250 l 1,29,-1
 357 -266 l 1,30,-1
 380 -26 l 1,31,32
 278 -12 278 -12 200.5 51.5 c 128,-1,33
 123 115 123 115 82 209.5 c 128,-1,34
 41 304 41 304 41 415 c 0,35,36
 41 508 41 508 68 594.5 c 128,-1,37
 95 681 95 681 140.5 747 c 128,-1,38
 186 813 186 813 246.5 860 c 128,-1,39
 307 907 307 907 375 927 c 1,40,-1
 347 1154 l 1,0,-1
EndSplineSet
Colour: ffffff
EndChar

StartChar: circumflex
Encoding: 710 710 85
Width: 584
VWidth: 0
Flags: MW
LayerCount: 2
Fore
SplineSet
90 1387 m 1,0,-1
 258 1566 l 1,1,-1
 313 1581 l 1,2,-1
 491 1395 l 1,3,-1
 442 1358 l 1,4,-1
 279 1468 l 1,5,-1
 268 1468 l 1,6,-1
 129 1357 l 1,7,-1
 90 1387 l 1,0,-1
EndSplineSet
Colour: ffffff
EndChar

StartChar: colon
Encoding: 58 58 86
Width: 422
VWidth: 0
Flags: MW
LayerCount: 2
Back
SplineSet
439 1235 m 21,0,-1
 571 1244 l 1,1,-1
 106 -355 l 1,2,-1
 -23 -363 l 1,3,-1
 439 1235 l 21,0,-1
EndSplineSet
Fore
SplineSet
99 747 m 0,0,1
 99 792 99 792 132.5 822.5 c 128,-1,2
 166 853 166 853 212 853 c 128,-1,3
 258 853 258 853 291.5 821 c 128,-1,4
 325 789 325 789 325 744 c 0,5,6
 325 696 325 696 291.5 662.5 c 128,-1,7
 258 629 258 629 212 629 c 128,-1,8
 166 629 166 629 132.5 664 c 128,-1,9
 99 699 99 699 99 747 c 0,0,1
99 119 m 0,10,11
 99 163 99 163 132.5 193.5 c 128,-1,12
 166 224 166 224 212 224 c 128,-1,13
 258 224 258 224 291.5 192.5 c 128,-1,14
 325 161 325 161 325 117 c 0,15,16
 325 69 325 69 291.5 35 c 128,-1,17
 258 1 258 1 212 1 c 128,-1,18
 166 1 166 1 132.5 36 c 128,-1,19
 99 71 99 71 99 119 c 0,10,11
EndSplineSet
Colour: ffffff
EndChar

StartChar: comma
Encoding: 44 44 87
Width: 434
VWidth: 0
Flags: MW
LayerCount: 2
Back
SplineSet
-18 -244 m 1,0,1
 78 -219 78 -219 135 -165.5 c 0
 192 -112 192 -112 192 -61 c 0,2,3
 192 -18 192 -18 167 9 c 0
 142 36 142 36 91 36 c 0,4,5
 85 36 85 36 61 30 c 1,6,7
 54 59 54 59 54 84 c 0,8,9
 54 141 54 141 103.5 179.5 c 0
 153 218 153 218 198 218 c 0,10,11
 260 218 260 218 302.5 176.5 c 0
 345 135 345 135 345 31 c 0,12,13
 345 -9 345 -9 327.5 -54.5 c 0
 310 -100 310 -100 272.5 -150.5 c 0
 235 -201 235 -201 162.5 -245.5 c 0
 90 -290 90 -290 -7 -314 c 1,14,-1
 -18 -244 l 1,0,1
EndSplineSet
Fore
SplineSet
54 -244 m 1,0,1
 146 -220 146 -220 191 -171.5 c 128,-1,2
 236 -123 236 -123 236 -70 c 0,3,4
 236 -27 236 -27 203.5 4.5 c 128,-1,5
 171 36 171 36 120 36 c 0,6,7
 110 36 110 36 90 34 c 1,8,9
 76 71 76 71 76 97 c 0,10,11
 76 152 76 152 115.5 185 c 128,-1,12
 155 218 155 218 198 218 c 0,13,14
 226 218 226 218 255 206 c 128,-1,15
 284 194 284 194 311 171 c 128,-1,16
 338 148 338 148 355 106 c 128,-1,17
 372 64 372 64 372 10 c 0,18,19
 372 -234 372 -234 77 -313 c 1,20,-1
 54 -244 l 1,0,1
EndSplineSet
Colour: ffffff
EndChar

StartChar: copyright
Encoding: 169 169 88
Width: 1377
VWidth: 0
Flags: MW
LayerCount: 2
Back
SplineSet
874 1191 m 0,0,1
 758 1191 758 1191 650 1145 c 0
 542 1099 542 1099 456.5 1015.5 c 0
 371 932 371 932 319.5 800 c 0
 268 668 268 668 268 509 c 0,2,3
 268 417 268 417 292 340 c 0
 316 263 316 263 365.5 200.5 c 0
 415 138 415 138 499 103 c 0
 583 68 583 68 694 68 c 0,4,5
 813 68 813 68 923 113.5 c 0
 1033 159 1033 159 1120 242 c 0
 1207 325 1207 325 1259 455.5 c 0
 1311 586 1311 586 1311 743 c 0,6,7
 1311 813 1311 813 1296 877 c 0
 1281 941 1281 941 1247 999 c 0
 1213 1057 1213 1057 1163 1099 c 0
 1113 1141 1113 1141 1039 1166 c 0
 965 1191 965 1191 874 1191 c 0,0,1
1425 765 m 0,8,9
 1425 614 1425 614 1383.5 484.5 c 0
 1342 355 1342 355 1270 262.5 c 0
 1198 170 1198 170 1102 104 c 0
 1006 38 1006 38 896.5 6 c 0
 787 -26 787 -26 670 -26 c 0,10,11
 538 -26 538 -26 436 17.5 c 0
 334 61 334 61 273.5 135 c 0
 213 209 213 209 182.5 299.5 c 0
 152 390 152 390 152 492 c 0,12,13
 152 633 152 633 192.5 759 c 0
 233 885 233 885 304 979 c 0
 375 1073 375 1073 468 1142 c 0
 561 1211 561 1211 669 1246.5 c 0
 777 1282 777 1282 888 1282 c 0,14,15
 998 1282 998 1282 1088.5 1253 c 0
 1179 1224 1179 1224 1240.5 1174.5 c 0
 1302 1125 1302 1125 1344.5 1058.5 c 0
 1387 992 1387 992 1406 918 c 0
 1425 844 1425 844 1425 765 c 0,8,9
EndSplineSet
Fore
SplineSet
176 657 m 0,0,1
 176 411 176 411 318.5 251.5 c 128,-1,2
 461 92 461 92 683 92 c 0,3,4
 790 92 790 92 886 133.5 c 128,-1,5
 982 175 982 175 1052 247 c 128,-1,6
 1122 319 1122 319 1163.5 421.5 c 128,-1,7
 1205 524 1205 524 1205 639 c 0,8,9
 1205 803 1205 803 1145.5 932.5 c 128,-1,10
 1086 1062 1086 1062 966.5 1139.5 c 128,-1,11
 847 1217 847 1217 684 1217 c 0,12,13
 543 1217 543 1217 425.5 1140.5 c 128,-1,14
 308 1064 308 1064 242 935.5 c 128,-1,15
 176 807 176 807 176 657 c 0,0,1
53 645 m 128,-1,17
 53 831 53 831 140 987 c 128,-1,18
 227 1143 227 1143 372 1231.5 c 128,-1,19
 517 1320 517 1320 684 1320 c 0,20,21
 877 1320 877 1320 1024.5 1232.5 c 128,-1,22
 1172 1145 1172 1145 1249.5 993 c 128,-1,23
 1327 841 1327 841 1327 649 c 0,24,25
 1327 517 1327 517 1276 395 c 128,-1,26
 1225 273 1225 273 1138.5 183 c 128,-1,27
 1052 93 1052 93 930.5 39 c 128,-1,28
 809 -15 809 -15 675 -15 c 0,29,30
 495 -15 495 -15 352.5 71.5 c 128,-1,31
 210 158 210 158 131.5 308.5 c 128,-1,16
 53 459 53 459 53 645 c 128,-1,17
344 644 m 0,32,33
 344 736 344 736 374.5 814.5 c 128,-1,34
 405 893 405 893 455.5 945 c 128,-1,35
 506 997 506 997 571 1026.5 c 128,-1,36
 636 1056 636 1056 706 1056 c 0,37,38
 806 1056 806 1056 858.5 1018.5 c 128,-1,39
 911 981 911 981 911 926 c 0,40,41
 911 888 911 888 883 864 c 128,-1,42
 855 840 855 840 803 837 c 1,43,44
 792 864 792 864 781.5 883.5 c 128,-1,45
 771 903 771 903 754 927 c 128,-1,46
 737 951 737 951 714.5 963.5 c 128,-1,47
 692 976 692 976 666 976 c 0,48,49
 590 976 590 976 544 906.5 c 128,-1,50
 498 837 498 837 498 722 c 0,51,52
 498 678 498 678 507 630.5 c 128,-1,53
 516 583 516 583 536.5 536 c 128,-1,54
 557 489 557 489 585.5 451.5 c 128,-1,55
 614 414 614 414 657 391 c 128,-1,56
 700 368 700 368 751 368 c 0,57,58
 808 368 808 368 846 381.5 c 128,-1,59
 884 395 884 395 922 419 c 1,60,-1
 944 370 l 1,61,62
 909 327 909 327 834.5 296.5 c 128,-1,63
 760 266 760 266 680 266 c 0,64,65
 581 266 581 266 503.5 318 c 128,-1,66
 426 370 426 370 385 456 c 128,-1,67
 344 542 344 542 344 644 c 0,32,33
EndSplineSet
Colour: ffffff
EndChar

StartChar: currency
Encoding: 164 164 89
Width: 763
VWidth: 0
Flags: MW
LayerCount: 2
Fore
SplineSet
225 494 m 0,0,1
 225 413 225 413 268.5 363 c 128,-1,2
 312 313 312 313 381 313 c 0,3,4
 453 313 453 313 497 361 c 128,-1,5
 541 409 541 409 541 487 c 0,6,7
 541 570 541 570 497 620 c 128,-1,8
 453 670 453 670 380 670 c 0,9,10
 311 670 311 670 268 621.5 c 128,-1,11
 225 573 225 573 225 494 c 0,0,1
37 746 m 1,12,-1
 120 827 l 1,13,-1
 230 709 l 1,14,15
 262 736 262 736 304.5 752 c 128,-1,16
 347 768 347 768 384 768 c 0,17,18
 474 768 474 768 541 718 c 1,19,-1
 652 830 l 1,20,-1
 725 742 l 1,21,-1
 611 636 l 1,22,23
 647 573 647 573 647 491 c 0,24,25
 647 401 647 401 604 342 c 1,26,-1
 728 223 l 1,27,-1
 644 143 l 1,28,-1
 531 264 l 1,29,30
 454 217 454 217 376 217 c 0,31,32
 309 217 309 217 242 257 c 1,33,-1
 133 136 l 1,34,-1
 50 221 l 1,35,-1
 165 332 l 1,36,37
 120 399 120 399 120 488 c 0,38,39
 120 567 120 567 159 628 c 1,40,-1
 37 746 l 1,12,-1
EndSplineSet
Colour: ffffff
EndChar

StartChar: d
Encoding: 100 100 90
Width: 1061
VWidth: 1691
Flags: MW
LayerCount: 2
Fore
SplineSet
383 104 m 1,0,-1
 438 104 l 2,1,2
 623 104 623 104 717 199.5 c 128,-1,3
 811 295 811 295 811 463 c 0,4,5
 811 649 811 649 719.5 745.5 c 128,-1,6
 628 842 628 842 445 842 c 0,7,8
 403 842 403 842 383 838 c 1,9,-1
 383 104 l 1,0,-1
36 0 m 1,10,-1
 50 74 l 1,11,-1
 192 129 l 1,12,-1
 192 790 l 1,13,-1
 40 820 l 1,14,-1
 49 896 l 1,15,16
 311 945 311 945 482 945 c 0,17,18
 604 945 604 945 699 920 c 128,-1,19
 794 895 794 895 854 854 c 128,-1,20
 914 813 914 813 952.5 754 c 128,-1,21
 991 695 991 695 1006.5 632.5 c 128,-1,22
 1022 570 1022 570 1022 498 c 0,23,24
 1022 397 1022 397 981.5 307 c 128,-1,25
 941 217 941 217 866 148.5 c 128,-1,26
 791 80 791 80 673 40 c 128,-1,27
 555 0 555 0 410 0 c 2,28,-1
 36 0 l 1,10,-1
EndSplineSet
Colour: ffffff
EndChar

StartChar: dagger
Encoding: 8224 8224 91
Width: 797
VWidth: 0
Flags: MW
LayerCount: 2
Fore
SplineSet
37 712 m 1,0,-1
 45 827 l 1,1,-1
 342 819 l 1,2,-1
 334 1255 l 1,3,-1
 467 1244 l 1,4,-1
 458 819 l 1,5,-1
 764 827 l 1,6,-1
 756 705 l 1,7,-1
 458 716 l 1,8,-1
 473 -363 l 1,9,-1
 328 -351 l 1,10,-1
 342 718 l 1,11,-1
 37 712 l 1,0,-1
EndSplineSet
Colour: ffffff
EndChar

StartChar: daggerdbl
Encoding: 8225 8225 92
Width: 829
VWidth: 0
Flags: MW
LayerCount: 2
Fore
SplineSet
52 712 m 1,0,-1
 59 827 l 1,1,-1
 354 819 l 1,2,-1
 347 1255 l 1,3,-1
 480 1244 l 1,4,-1
 470 819 l 1,5,-1
 774 827 l 1,6,-1
 768 705 l 1,7,-1
 470 716 l 1,8,-1
 461 429 l 1,9,-1
 464 174 l 1,10,-1
 777 181 l 1,11,-1
 771 64 l 1,12,-1
 464 73 l 1,13,-1
 473 -363 l 1,14,-1
 340 -352 l 1,15,-1
 350 73 l 1,16,-1
 62 64 l 1,17,-1
 70 187 l 1,18,-1
 350 175 l 1,19,-1
 357 498 l 1,20,-1
 354 718 l 1,21,-1
 52 712 l 1,0,-1
EndSplineSet
Colour: ffffff
EndChar

StartChar: degree
Encoding: 176 176 93
Width: 424
VWidth: 0
Flags: MW
LayerCount: 2
Fore
SplineSet
123 1129 m 0,0,1
 123 1078 123 1078 148.5 1036.5 c 128,-1,2
 174 995 174 995 219 995 c 0,3,4
 304 995 304 995 304 1105 c 0,5,6
 304 1156 304 1156 278.5 1196.5 c 128,-1,7
 253 1237 253 1237 209 1237 c 0,8,9
 167 1237 167 1237 145 1205.5 c 128,-1,10
 123 1174 123 1174 123 1129 c 0,0,1
32 1107 m 0,11,12
 32 1186 32 1186 88.5 1245 c 128,-1,13
 145 1304 145 1304 225 1304 c 0,14,15
 310 1304 310 1304 353 1258 c 128,-1,16
 396 1212 396 1212 396 1128 c 0,17,18
 396 1043 396 1043 339 985.5 c 128,-1,19
 282 928 282 928 201 928 c 0,20,21
 123 928 123 928 77.5 974.5 c 128,-1,22
 32 1021 32 1021 32 1107 c 0,11,12
EndSplineSet
Colour: ffffff
EndChar

StartChar: dieresis
Encoding: 168 168 94
Width: 623
VWidth: 0
Flags: MW
LayerCount: 2
Back
SplineSet
720 1542 m 0,0,1
 755 1542 755 1542 777 1520.5 c 0
 799 1499 799 1499 794 1465 c 0,2,3
 788 1429 788 1429 759 1406.5 c 0
 730 1384 730 1384 695 1384 c 0,4,5
 661 1384 661 1384 639 1406.5 c 0
 617 1429 617 1429 623 1465 c 0,6,7
 629 1499 629 1499 658 1520.5 c 0
 687 1542 687 1542 720 1542 c 0,0,1
453 1542 m 0,8,9
 488 1542 488 1542 509 1520.5 c 0
 530 1499 530 1499 525 1465 c 0,10,11
 519 1429 519 1429 491 1406.5 c 0
 463 1384 463 1384 428 1384 c 0,12,13
 394 1384 394 1384 371.5 1406.5 c 0
 349 1429 349 1429 355 1465 c 0,14,15
 361 1499 361 1499 390.5 1520.5 c 0
 420 1542 420 1542 453 1542 c 0,8,9
540 1255 m 0
EndSplineSet
Fore
SplineSet
360 1465 m 0,0,1
 360 1498 360 1498 386.5 1520 c 128,-1,2
 413 1542 413 1542 445 1542 c 0,3,4
 479 1542 479 1542 505.5 1520 c 128,-1,5
 532 1498 532 1498 532 1465 c 0,6,7
 532 1430 532 1430 505.5 1406.5 c 128,-1,8
 479 1383 479 1383 445 1383 c 128,-1,9
 411 1383 411 1383 385.5 1406.5 c 128,-1,10
 360 1430 360 1430 360 1465 c 0,0,1
92 1465 m 0,11,12
 92 1498 92 1498 118.5 1520 c 128,-1,13
 145 1542 145 1542 177 1542 c 0,14,15
 211 1542 211 1542 237 1520 c 128,-1,16
 263 1498 263 1498 263 1465 c 0,17,18
 263 1429 263 1429 237 1406 c 128,-1,19
 211 1383 211 1383 177 1383 c 128,-1,20
 143 1383 143 1383 117.5 1406.5 c 128,-1,21
 92 1430 92 1430 92 1465 c 0,11,12
EndSplineSet
Colour: ffffff
EndChar

StartChar: divide
Encoding: 247 247 95
Width: 932
VWidth: 0
Flags: MW
LayerCount: 2
Fore
SplineSet
341 790 m 0,0,1
 341 837 341 837 376 870 c 128,-1,2
 411 903 411 903 460 903 c 0,3,4
 510 903 510 903 545.5 870 c 128,-1,5
 581 837 581 837 581 789 c 0,6,7
 581 739 581 739 545 702.5 c 128,-1,8
 509 666 509 666 460 666 c 128,-1,9
 411 666 411 666 376 702.5 c 128,-1,10
 341 739 341 739 341 790 c 0,0,1
341 228 m 0,11,12
 341 275 341 275 376 308 c 128,-1,13
 411 341 411 341 460 341 c 0,14,15
 510 341 510 341 545.5 308 c 128,-1,16
 581 275 581 275 581 227 c 0,17,18
 581 177 581 177 545 140.5 c 128,-1,19
 509 104 509 104 460 104 c 128,-1,20
 411 104 411 104 376 140.5 c 128,-1,21
 341 177 341 177 341 228 c 0,11,12
55 454 m 1,22,-1
 67 560 l 1,23,-1
 879 560 l 1,24,-1
 868 454 l 1,25,-1
 55 454 l 1,22,-1
EndSplineSet
Colour: ffffff
EndChar

StartChar: dollar
Encoding: 36 36 96
Width: 859
VWidth: 0
Flags: MW
LayerCount: 2
Back
SplineSet
888 885 m 1,0,-1
 814 902 l 1,1,-1
 796 1093 l 2,2,3
 794 1107 794 1107 765 1132 c 0
 736 1157 736 1157 697 1171 c 1,4,-1
 628 730 l 1,5,6
 752.391 648.8 752.391 648.8 792.202 614.997 c 0
 918.16 508.049 918.16 508.049 910.035 380.038 c 0
 909.189 366.72 909.189 366.72 907 353 c 0,7,8
 885 209 885 209 768 111 c 0
 651 13 651 13 495 -15 c 1,9,-1
 479 -111 l 1,10,-1
 380 -111 l 1,11,-1
 395 -25 l 1,12,-1
 390 -25 l 2,13,14
 283 -25 283 -25 201.5 13.5 c 0
 120 52 120 52 71 122 c 1,15,-1
 126 390 l 1,16,-1
 206 377 l 1,17,-1
 228 187 l 1,18,19
 255 138 255 138 304 107 c 0
 353 76 353 76 411 74 c 1,20,-1
 484 527 l 1,21,22
 423 565 423 565 380.5 600 c 0
 338 635 338 635 297 685 c 0
 256 735 256 735 240 796.5 c 0
 224 858 224 858 235 930 c 0,23,24
 251 1031 251 1031 308 1105.5 c 0
 365 1180 365 1180 442 1218.5 c 0
 519 1257 519 1257 611 1267 c 1,25,-1
 624 1343 l 1,26,-1
 723 1343 l 1,27,-1
 712 1268 l 1,28,29
 867 1254 867 1254 951 1166 c 1,30,31
 888 885 l 1,0,-1
537 781 m 1,32,-1
 599 1182 l 1,33,34
 456 1165 456 1165 431 1002 c 0,35,36
 420 932 420 932 447.5 873.5 c 0
 475 815 475 815 537 781 c 1,32,-1
576 494 m 1,37,-1
 512 86 l 1,38,39
 586 104 586 104 640 154.5 c 0
 694 205 694 205 708 291 c 0,40,41
 724 395 724 395 576 494 c 1,37,-1
EndSplineSet
Fore
SplineSet
305 1041 m 1,0,-1
 437 1058 l 1,1,-1
 422 897 l 1,2,3
 508 887 508 887 562.5 845 c 128,-1,4
 617 803 617 803 617 734 c 0,5,6
 617 672 617 672 579.5 632.5 c 128,-1,7
 542 593 542 593 477 589 c 1,8,9
 467 701 467 701 424 758.5 c 128,-1,10
 381 816 381 816 321 816 c 0,11,12
 270 816 270 816 239.5 781 c 128,-1,13
 209 746 209 746 209 696 c 0,14,15
 209 658 209 658 233 625 c 128,-1,16
 257 592 257 592 296 566 c 128,-1,17
 335 540 335 540 381.5 514.5 c 128,-1,18
 428 489 428 489 475 460 c 128,-1,19
 522 431 522 431 561 398.5 c 128,-1,20
 600 366 600 366 624 320 c 128,-1,21
 648 274 648 274 648 220 c 0,22,23
 648 132 648 132 583 65.5 c 128,-1,24
 518 -1 518 -1 423 -24 c 1,25,26
 437 -179 l 1,27,-1
 298 -197 l 1,28,-1
 313 -33 l 1,29,30
 195 -27 195 -27 122.5 23.5 c 128,-1,31
 50 74 50 74 50 141 c 0,32,33
 50 193 50 193 85.5 230 c 128,-1,34
 121 267 121 267 182 271 c 1,35,36
 213 168 213 168 262.5 116 c 128,-1,37
 312 64 312 64 371 64 c 0,38,39
 429 64 429 64 466 88.5 c 128,-1,40
 503 113 503 113 503 165 c 0,41,42
 503 202 503 202 471 235.5 c 128,-1,43
 439 269 439 269 391.5 294.5 c 128,-1,44
 344 320 344 320 288.5 353 c 128,-1,45
 233 386 233 386 185.5 420 c 128,-1,46
 138 454 138 454 106 507.5 c 128,-1,47
 74 561 74 561 74 624 c 0,48,49
 74 665 74 665 89.5 708 c 128,-1,50
 105 751 105 751 134 790.5 c 128,-1,51
 163 830 163 830 211.5 858.5 c 128,-1,52
 260 887 260 887 320 896 c 1,53,-1
 305 1041 l 1,0,-1
EndSplineSet
Colour: ffffff
EndChar

StartChar: dotaccent
Encoding: 729 729 97
Width: 425
VWidth: 0
Flags: MW
LayerCount: 2
Fore
SplineSet
92 1479 m 0,0,1
 92 1526 92 1526 128 1559.5 c 128,-1,2
 164 1593 164 1593 211 1593 c 0,3,4
 261 1593 261 1593 297.5 1559.5 c 128,-1,5
 334 1526 334 1526 334 1478 c 0,6,7
 334 1428 334 1428 297.5 1391.5 c 128,-1,8
 261 1355 261 1355 211 1355 c 0,9,10
 162 1355 162 1355 127 1391.5 c 128,-1,11
 92 1428 92 1428 92 1479 c 0,0,1
EndSplineSet
Colour: ffffff
EndChar

StartChar: e
Encoding: 101 101 98
Width: 925
VWidth: 1691
Flags: MW
LayerCount: 2
Fore
SplineSet
37 851 m 1,0,-1
 48 927 l 1,1,-1
 845 927 l 1,2,-1
 824 654 l 1,3,-1
 725 667 l 1,4,-1
 694 835 l 1,5,-1
 383 835 l 1,6,-1
 383 503 l 1,7,-1
 560 503 l 1,8,-1
 582 583 l 1,9,-1
 680 597 l 1,10,-1
 646 298 l 1,11,-1
 555 285 l 1,12,-1
 544 410 l 1,13,-1
 383 410 l 1,14,-1
 383 96 l 1,15,-1
 728 96 l 1,16,-1
 795 276 l 1,17,-1
 889 263 l 1,18,-1
 869 0 l 1,19,-1
 44 0 l 1,20,-1
 52 74 l 1,21,-1
 189 121 l 1,22,-1
 189 809 l 1,23,-1
 37 851 l 1,0,-1
EndSplineSet
Colour: ffffff
EndChar

StartChar: eacute
Encoding: 233 233 99
Width: 802
VWidth: 0
Flags: MW
LayerCount: 2
Fore
SplineSet
413 1051 m 1,0,-1
 536 1376 l 1,1,-1
 647 1337 l 1,2,-1
 464 1019 l 1,3,-1
 413 1051 l 1,0,-1
29 851 m 1,4,-1
 40 927 l 1,5,-1
 837 927 l 1,6,-1
 816 654 l 1,7,-1
 717 667 l 1,8,-1
 686 835 l 1,9,-1
 375 835 l 1,10,-1
 375 503 l 1,11,-1
 552 503 l 1,12,-1
 574 583 l 1,13,-1
 672 597 l 1,14,-1
 638 298 l 1,15,-1
 547 285 l 1,16,-1
 536 410 l 1,17,-1
 375 410 l 1,18,-1
 375 96 l 1,19,-1
 720 96 l 1,20,-1
 787 276 l 1,21,-1
 881 263 l 1,22,-1
 861 0 l 1,23,-1
 36 0 l 1,24,-1
 44 74 l 1,25,-1
 181 121 l 1,26,-1
 181 809 l 1,27,-1
 29 851 l 1,4,-1
EndSplineSet
Colour: ffffff
EndChar

StartChar: ecircumflex
Encoding: 234 234 100
Width: 925
VWidth: 0
Flags: MW
LayerCount: 2
Fore
SplineSet
285 1056 m 1,0,-1
 453 1235 l 1,1,-1
 508 1250 l 1,2,-1
 686 1064 l 1,3,-1
 637 1027 l 1,4,-1
 474 1137 l 1,5,-1
 463 1137 l 1,6,-1
 324 1026 l 1,7,-1
 285 1056 l 1,0,-1
37 851 m 1,8,-1
 48 927 l 1,9,-1
 845 927 l 1,10,-1
 824 654 l 1,11,-1
 725 667 l 1,12,-1
 694 835 l 1,13,-1
 383 835 l 1,14,-1
 383 503 l 1,15,-1
 560 503 l 1,16,-1
 582 583 l 1,17,-1
 680 597 l 1,18,-1
 646 298 l 1,19,-1
 555 285 l 1,20,-1
 544 410 l 1,21,-1
 383 410 l 1,22,-1
 383 96 l 1,23,-1
 728 96 l 1,24,-1
 795 276 l 1,25,-1
 889 263 l 1,26,-1
 869 0 l 1,27,-1
 44 0 l 1,28,-1
 52 74 l 1,29,-1
 189 121 l 1,30,-1
 189 809 l 1,31,-1
 37 851 l 1,8,-1
EndSplineSet
Colour: ffffff
EndChar

StartChar: edieresis
Encoding: 235 235 101
Width: 925
VWidth: 0
Flags: MW
LayerCount: 2
Fore
SplineSet
524 1106 m 0,0,1
 524 1139 524 1139 550.5 1161 c 128,-1,2
 577 1183 577 1183 609 1183 c 0,3,4
 643 1183 643 1183 669.5 1161 c 128,-1,5
 696 1139 696 1139 696 1106 c 0,6,7
 696 1071 696 1071 669.5 1047.5 c 128,-1,8
 643 1024 643 1024 609 1024 c 128,-1,9
 575 1024 575 1024 549.5 1047.5 c 128,-1,10
 524 1071 524 1071 524 1106 c 0,0,1
256 1106 m 0,11,12
 256 1139 256 1139 282.5 1161 c 128,-1,13
 309 1183 309 1183 341 1183 c 0,14,15
 375 1183 375 1183 401 1161 c 128,-1,16
 427 1139 427 1139 427 1106 c 0,17,18
 427 1070 427 1070 401 1047 c 128,-1,19
 375 1024 375 1024 341 1024 c 128,-1,20
 307 1024 307 1024 281.5 1047.5 c 128,-1,21
 256 1071 256 1071 256 1106 c 0,11,12
37 851 m 1,22,-1
 48 927 l 1,23,-1
 845 927 l 1,24,-1
 824 654 l 1,25,-1
 725 667 l 1,26,-1
 694 835 l 1,27,-1
 383 835 l 1,28,-1
 383 503 l 1,29,-1
 560 503 l 1,30,-1
 582 583 l 1,31,-1
 680 597 l 1,32,-1
 646 298 l 1,33,-1
 555 285 l 1,34,-1
 544 410 l 1,35,-1
 383 410 l 1,36,-1
 383 96 l 1,37,-1
 728 96 l 1,38,-1
 795 276 l 1,39,-1
 889 263 l 1,40,-1
 869 0 l 1,41,-1
 44 0 l 1,42,-1
 52 74 l 1,43,-1
 189 121 l 1,44,-1
 189 809 l 1,45,-1
 37 851 l 1,22,-1
EndSplineSet
Colour: ffffff
EndChar

StartChar: egrave
Encoding: 232 232 102
Width: 802
VWidth: 0
Flags: MW
LayerCount: 2
Fore
SplineSet
275 1341 m 1,0,-1
 390 1379 l 1,1,-1
 522 1046 l 1,2,-1
 466 1011 l 1,3,-1
 275 1341 l 1,0,-1
29 851 m 1,4,-1
 40 927 l 1,5,-1
 837 927 l 1,6,-1
 816 654 l 1,7,-1
 717 667 l 1,8,-1
 686 835 l 1,9,-1
 375 835 l 1,10,-1
 375 503 l 1,11,-1
 552 503 l 1,12,-1
 574 583 l 1,13,-1
 672 597 l 1,14,-1
 638 298 l 1,15,-1
 547 285 l 1,16,-1
 536 410 l 1,17,-1
 375 410 l 1,18,-1
 375 96 l 1,19,-1
 720 96 l 1,20,-1
 787 276 l 1,21,-1
 881 263 l 1,22,-1
 861 0 l 1,23,-1
 36 0 l 1,24,-1
 44 74 l 1,25,-1
 181 121 l 1,26,-1
 181 809 l 1,27,-1
 29 851 l 1,4,-1
EndSplineSet
Colour: ffffff
EndChar

StartChar: eight
Encoding: 56 56 103
Width: 804
VWidth: 0
Flags: MW
LayerCount: 2
Back
SplineSet
494 542 m 1,0,1
 463 517 463 517 433 492 c 0,2,3
 397 461 397 461 377 438 c 0,4,5
 357 414 357 414 339 368 c 0,6,7
 324 329 324 329 324 274 c 0,8,9
 324 230 324 230 337 197 c 0,10,11
 353 157 353 157 377 129 c 0,12,13
 400 102 400 102 433 83 c 0,14,15
 466 64 466 64 502 64 c 0,16,17
 626 64 626 64 684 122 c 0,18,19
 740 178 740 178 740 272 c 0,20,21
 740 310 740 310 718 344 c 0,22,23
 689 388 689 388 662 413 c 0,24,25
 605 465 605 465 585 479 c 1,26,27
 567 493 567 493 494 542 c 1,0,1
159 236 m 0,28,29
 159 338 159 338 231 419 c 0,30,31
 303 500 303 500 443 576 c 1,32,-1
 444 585 l 1,33,34
 411 607 411 607 393 624 c 0,35,36
 360 655 360 655 340 680 c 0,37,38
 319 706 319 706 301 753 c 0,39,40
 286 792 286 792 286 836 c 0,41,42
 286 902 286 902 317 961 c 0,43,44
 349 1022 349 1022 400 1067 c 0,45,46
 451 1112 451 1112 522 1143 c 0,47,48
 591 1173 591 1173 667 1173 c 0,49,50
 730 1173 730 1173 781 1153 c 0,51,52
 832 1133 832 1133 865 1103 c 0,53,54
 897 1074 897 1074 917 1027 c 0,55,56
 935 985 935 985 935 935 c 0,57,58
 935 885 935 885 917 839 c 0,59,60
 899 794 899 794 869 751 c 0,61,62
 842 714 842 714 796 679 c 0,63,64
 759 651 759 651 707 631 c 1,65,-1
 704 621 l 1,66,67
 797 557 797 557 849 484 c 0,68,69
 903 409 903 409 903 327 c 0,70,71
 903 258 903 258 872 195 c 0,72,73
 842 133 842 133 779 81 c 0,74,75
 721 34 721 34 636 3 c 0,76,77
 555 -26 555 -26 446 -26 c 0,78,79
 384.5 -26 384.5 -26 332 -8 c 0,80,81
 275 11 275 11 241 43 c 0,82,83
 204 77 204 77 182 126 c 0,84,85
 159 177 159 177 159 236 c 0,28,29
646 661 m 1,86,87
 679 678 679 678 710 704 c 0,88,89
 738 727 738 727 755 756 c 0,90,91
 774 788 774 788 781 822 c 0,92,93
 789 862 789 862 789 907 c 0,94,95
 789 994 789 994 745 1045 c 0,96,97
 700 1098 700 1098 633 1098 c 0,98,99
 586.5 1098 586.5 1098 552 1080 c 0,100,101
 514 1060 514 1060 492 1037 c 0,102,103
 469 1013 469 1013 456 978 c 0,104,105
 443 944 443 944 443 913 c 0,106,107
 443 836 443 836 499 776 c 0,108,109
 553 718 553 718 646 661 c 1,86,87
EndSplineSet
Fore
SplineSet
249 977 m 0,0,1
 249 894 249 894 305.5 814.5 c 128,-1,2
 362 735 362 735 466 676 c 1,3,4
 492 704 492 704 507.5 727.5 c 128,-1,5
 523 751 523 751 537.5 798.5 c 128,-1,6
 552 846 552 846 552 906 c 0,7,8
 552 993 552 993 508.5 1058.5 c 128,-1,9
 465 1124 465 1124 390 1124 c 0,10,11
 331 1124 331 1124 290 1080.5 c 128,-1,12
 249 1037 249 1037 249 977 c 0,0,1
220 304 m 0,13,14
 220 212 220 212 274.5 139 c 128,-1,15
 329 66 329 66 406 66 c 0,16,17
 493 66 493 66 543.5 117 c 128,-1,18
 594 168 594 168 594 266 c 0,19,20
 594 340 594 340 525.5 408 c 128,-1,21
 457 476 457 476 330 555 c 1,22,23
 287 523 287 523 253.5 451 c 128,-1,24
 220 379 220 379 220 304 c 0,13,14
55 280 m 0,25,26
 55 454 55 454 271 589 c 1,27,-1
 271 598 l 1,28,29
 206 637 206 637 153 716 c 128,-1,30
 100 795 100 795 100 887 c 0,31,32
 100 1014 100 1014 193.5 1107.5 c 128,-1,33
 287 1201 287 1201 417 1201 c 0,34,35
 545 1201 545 1201 622.5 1129 c 128,-1,36
 700 1057 700 1057 700 943 c 0,37,38
 700 768 700 768 534 645 c 1,39,-1
 534 636 l 1,40,41
 752 500 752 500 752 308 c 0,42,43
 752 168 752 168 641 70.5 c 128,-1,44
 530 -27 530 -27 360 -27 c 0,45,46
 221 -27 221 -27 138 55.5 c 128,-1,47
 55 138 55 138 55 280 c 0,25,26
EndSplineSet
Colour: ffffff
EndChar

StartChar: emdash
Encoding: 8212 8212 104
Width: 1306
VWidth: 0
Flags: MW
LayerCount: 2
Fore
SplineSet
87 409 m 1,0,-1
 102 513 l 1,1,-1
 1223 520 l 1,2,-1
 1207 415 l 1,3,-1
 87 409 l 1,0,-1
EndSplineSet
Colour: ffffff
EndChar

StartChar: endash
Encoding: 8211 8211 105
Width: 795
VWidth: 0
Flags: MW
LayerCount: 2
Fore
SplineSet
87 409 m 1,0,-1
 102 513 l 1,1,-1
 713 520 l 1,2,-1
 697 415 l 1,3,-1
 87 409 l 1,0,-1
EndSplineSet
Colour: ffffff
EndChar

StartChar: equal
Encoding: 61 61 106
Width: 809
VWidth: 0
Flags: MW
LayerCount: 2
Back
SplineSet
162 424 m 1,0,-1
 776 424 l 1,1,-1
 748 319 l 1,2,-1
 134 319 l 1,3,-1
 162 424 l 1,0,-1
203 664 m 1,4,-1
 817 664 l 1,5,-1
 789 558 l 1,6,-1
 175 558 l 1,7,-1
 203 664 l 1,4,-1
EndSplineSet
Fore
SplineSet
95 559 m 1,0,-1
 105 663 l 1,1,-1
 721 663 l 1,2,-1
 709 559 l 1,3,-1
 95 559 l 1,0,-1
92 319 m 1,4,-1
 102 424 l 1,5,-1
 717 424 l 1,6,-1
 706 319 l 1,7,-1
 92 319 l 1,4,-1
EndSplineSet
Colour: ffffff
EndChar

StartChar: eth
Encoding: 240 240 107
Width: 1121
VWidth: 0
Flags: MW
LayerCount: 2
Fore
SplineSet
424 104 m 1,0,-1
 479 104 l 2,1,2
 664 104 664 104 758 199.5 c 128,-1,3
 852 295 852 295 852 463 c 0,4,5
 852 649 852 649 760.5 745.5 c 128,-1,6
 669 842 669 842 486 842 c 0,7,8
 444 842 444 842 424 838 c 1,9,-1
 424 507 l 1,10,-1
 632 521 l 1,11,-1
 620 430 l 1,12,-1
 424 416 l 1,13,-1
 424 104 l 1,0,-1
83 393 m 1,14,-1
 94 485 l 1,15,-1
 233 494 l 1,16,-1
 233 790 l 1,17,-1
 81 820 l 1,18,-1
 90 896 l 1,19,20
 352 945 352 945 523 945 c 0,21,22
 645 945 645 945 740 920 c 128,-1,23
 835 895 835 895 895 854 c 128,-1,24
 955 813 955 813 993.5 754 c 128,-1,25
 1032 695 1032 695 1047.5 632.5 c 128,-1,26
 1063 570 1063 570 1063 498 c 0,27,28
 1063 397 1063 397 1022.5 307 c 128,-1,29
 982 217 982 217 907 148.5 c 128,-1,30
 832 80 832 80 714 40 c 128,-1,31
 596 0 596 0 451 0 c 2,32,-1
 77 0 l 1,33,-1
 91 74 l 1,34,-1
 233 129 l 1,35,-1
 233 403 l 1,36,-1
 83 393 l 1,14,-1
EndSplineSet
Colour: ffffff
EndChar

StartChar: exclam
Encoding: 33 33 108
Width: 412
VWidth: 0
Flags: MW
LayerCount: 2
Back
SplineSet
345 363 m 1,0,-1
 344 357 l 1,1,-1
 258 377 l 1,2,-1
 258 380 l 1,3,4
 278 625 278 625 304.5 897 c 0
 331 1169 331 1169 344 1250 c 1,5,-1
 344 1253 l 1,6,7
 353 1272 353 1272 399.5 1282.5 c 0
 446 1293 446 1293 482 1293 c 0,8,9
 506 1293 506 1293 524.5 1283.5 c 0
 543 1274 543 1274 540 1253 c 0,10,11
 504 1018 504 1018 345 363 c 1,0,-1
383 91 m 1,12,13
 374 38 374 38 332 1 c 0
 290 -36 290 -36 238 -36 c 0,14,15
 186 -36 186 -36 155.5 1.5 c 0
 125 39 125 39 134 92 c 1,16,17
 141 142 141 142 183 176 c 0
 225 210 225 210 276 210 c 0,18,19
 328 210 328 210 359 175.5 c 0
 390 141 390 141 383 91 c 1,12,13
EndSplineSet
Fore
SplineSet
109 1245 m 0,0,1
 109 1270 109 1270 152 1281 c 128,-1,2
 195 1292 195 1292 240 1292 c 0,3,4
 304 1292 304 1292 304 1253 c 0,5,6
 304 1086 304 1086 249 357 c 1,7,-1
 162 376 l 1,8,9
 157 483 157 483 133 815 c 128,-1,10
 109 1147 109 1147 109 1245 c 0,0,1
83 92 m 0,11,12
 83 142 83 142 119.5 176 c 128,-1,13
 156 210 156 210 206 210 c 0,14,15
 257 210 257 210 294 175 c 128,-1,16
 331 140 331 140 331 90 c 0,17,18
 331 37 331 37 294.5 0.5 c 128,-1,19
 258 -36 258 -36 206 -36 c 128,-1,20
 154 -36 154 -36 118.5 1.5 c 128,-1,21
 83 39 83 39 83 92 c 0,11,12
EndSplineSet
Colour: ffffff
EndChar

StartChar: exclamdown
Encoding: 161 161 109
Width: 387
VWidth: 0
Flags: MW
LayerCount: 2
Back
SplineSet
284 533 m 1,0,-1
 286 540 l 1,1,-1
 372 520 l 1,2,-1
 372 517 l 1,3,4
 353 279 353 279 324 -6.5 c 0
 295 -292 295 -292 282 -375 c 1,5,-1
 282 -378 l 1,6,7
 273 -397 273 -397 226.5 -407.5 c 0
 180 -418 180 -418 144 -418 c 0,8,9
 120 -418 120 -418 101.5 -408.5 c 0
 83 -399 83 -399 86 -378 c 0,10,11
 126 -119 126 -119 284 533 c 1,0,-1
243 784 m 1,12,13
 252 837 252 837 294 874.5 c 0
 336 912 336 912 388 912 c 0,14,15
 440 912 440 912 470.5 874 c 0
 501 836 501 836 492 783 c 1,16,17
 485 733 485 733 443 699.5 c 0
 401 666 401 666 350 666 c 0,18,19
 298 666 298 666 267 700 c 0
 236 734 236 734 243 784 c 1,12,13
EndSplineSet
Fore
SplineSet
97 -378 m 0,0,1
 97 -110 97 -110 151 534 c 1,2,-1
 151 540 l 1,3,-1
 240 520 l 1,4,-1
 240 517 l 1,5,6
 294 -208 294 -208 294 -375 c 2,7,-1
 294 -378 l 1,8,9
 289 -397 289 -397 243.5 -407.5 c 128,-1,10
 198 -418 198 -418 162 -418 c 0,11,12
 137 -418 137 -418 117 -408.5 c 128,-1,13
 97 -399 97 -399 97 -378 c 0,0,1
70 784 m 0,14,15
 70 836 70 836 107 873 c 128,-1,16
 144 910 144 910 196 910 c 128,-1,17
 248 910 248 910 284 873 c 128,-1,18
 320 836 320 836 320 783 c 0,19,20
 320 734 320 734 283 700 c 128,-1,21
 246 666 246 666 196 666 c 0,22,23
 145 666 145 666 107.5 700 c 128,-1,24
 70 734 70 734 70 784 c 0,14,15
EndSplineSet
Colour: ffffff
EndChar

StartChar: f
Encoding: 102 102 110
Width: 899
VWidth: 1691
Flags: MW
LayerCount: 2
Fore
SplineSet
37 854 m 1,0,-1
 48 930 l 1,1,-1
 861 930 l 1,2,-1
 832 658 l 1,3,-1
 729 672 l 1,4,-1
 708 838 l 1,5,-1
 383 838 l 1,6,-1
 383 470 l 1,7,-1
 602 470 l 1,8,-1
 627 554 l 1,9,-1
 725 568 l 1,10,-1
 698 276 l 1,11,-1
 605 262 l 1,12,-1
 589 378 l 1,13,-1
 383 378 l 1,14,-1
 380 122 l 1,15,-1
 578 83 l 1,16,-1
 565 0 l 1,17,-1
 44 0 l 1,18,-1
 52 74 l 1,19,-1
 189 121 l 1,20,-1
 189 812 l 1,21,-1
 37 854 l 1,0,-1
EndSplineSet
Colour: ffffff
EndChar

StartChar: five
Encoding: 53 53 111
Width: 700
VWidth: 0
Flags: MW
LayerCount: 2
Back
SplineSet
266 41 m 1,0,1
 488 63 488 63 614 145 c 0,2,3
 740 227 740 227 740 358 c 0,4,5
 740 480 740 480 644 555 c 0,6,7
 549 629 549 629 327 644 c 1,8,-1
 522 1141 l 1,9,-1
 960 1169 l 1,10,-1
 915 1016 l 1,11,-1
 553 997 l 1,12,-1
 471 784 l 1,13,14
 587 776 587 776 669 748 c 0,15,16
 753 719 753 719 813 670 c 0,17,18
 869 624 869 624 898 562 c 0,19,20
 928 498 928 498 928 423 c 0,21,22
 928 343 928 343 888 261 c 0,23,24
 848 179 848 179 770 116 c 0,25,26
 692 53 692 53 565 7 c 0,27,28
 442 -38 442 -38 271 -48 c 1,29,-1
 266 41 l 1,0,1
EndSplineSet
Fore
SplineSet
-66 -159 m 0,0,1
 -66 -105 -66 -105 -38.5 -69.5 c 128,-1,2
 -11 -34 -11 -34 34 -26 c 1,3,4
 48 -56 48 -56 68 -84.5 c 128,-1,5
 88 -113 88 -113 115.5 -142 c 128,-1,6
 143 -171 143 -171 179.5 -188.5 c 128,-1,7
 216 -206 216 -206 255 -206 c 0,8,9
 357 -206 357 -206 418 -134 c 128,-1,10
 479 -62 479 -62 479 80 c 0,11,12
 479 380 479 380 76 426 c 1,13,-1
 179 934 l 1,14,-1
 623 974 l 1,15,-1
 598 811 l 1,16,-1
 240 788 l 1,17,-1
 209 570 l 1,18,19
 434 548 434 548 548.5 435.5 c 128,-1,20
 663 323 663 323 663 145 c 0,21,22
 663 42 663 42 604 -59.5 c 128,-1,23
 545 -161 545 -161 436.5 -229 c 128,-1,24
 328 -297 328 -297 202 -297 c 0,25,26
 72 -297 72 -297 3 -253.5 c 128,-1,27
 -66 -210 -66 -210 -66 -159 c 0,0,1
EndSplineSet
Colour: ffffff
EndChar

StartChar: four
Encoding: 52 52 112
Width: 940
VWidth: 0
Flags: MW
LayerCount: 2
Back
SplineSet
585 348 m 1,0,-1
 109 348 l 1,1,-1
 97 421 l 1,2,-1
 806 1166 l 1,3,-1
 865 1148 l 1,4,5
 863 1138 863 1138 858 1104 c 0
 853 1070 853 1070 849 1050 c 0,6,7
 839 994 839 994 829 931 c 0,8,9
 817 855 817 855 809 801 c 0,10,11
 798 731 798 731 791 667 c 1,12,-1
 763 467 l 1,13,-1
 1009 467 l 1,14,-1
 976 345 l 1,15,-1
 745 345 l 1,16,-1
 700 15 l 1,17,-1
 532 -12 l 1,18,-1
 585 348 l 1,0,-1
657 888 m 1,19,-1
 269 467 l 1,20,-1
 598 467 l 1,21,-1
 657 888 l 1,19,-1
EndSplineSet
Fore
SplineSet
169 211 m 1,0,-1
 499 211 l 1,1,-1
 499 676 l 1,2,-1
 169 211 l 1,0,-1
-9 164 m 1,3,-1
 618 986 l 1,4,-1
 683 968 l 1,5,6
 673 770 673 770 673 432 c 2,7,-1
 673 211 l 1,8,-1
 927 211 l 1,9,-1
 910 86 l 1,10,-1
 675 86 l 1,11,-1
 675 -267 l 1,12,-1
 500 -304 l 1,13,-1
 500 89 l 1,14,-1
 14 89 l 1,15,-1
 -9 164 l 1,3,-1
EndSplineSet
Colour: ffffff
EndChar

StartChar: g
Encoding: 103 103 113
Width: 1044
VWidth: 1691
Flags: MW
LayerCount: 2
Fore
SplineSet
39 421 m 0,0,1
 39 573 39 573 112 694.5 c 128,-1,2
 185 816 185 816 306.5 881.5 c 128,-1,3
 428 947 428 947 573 947 c 0,4,5
 772 947 772 947 895 900 c 1,6,-1
 871 608 l 1,7,-1
 764 623 l 1,8,-1
 738 788 l 1,9,10
 710 810 710 810 652 829 c 128,-1,11
 594 848 594 848 523 848 c 0,12,13
 468 848 468 848 419.5 826.5 c 128,-1,14
 371 805 371 805 330.5 762.5 c 128,-1,15
 290 720 290 720 266.5 647.5 c 128,-1,16
 243 575 243 575 243 480 c 0,17,18
 243 293 243 293 319.5 185 c 128,-1,19
 396 77 396 77 534 77 c 0,20,21
 612 77 612 77 649 84.5 c 128,-1,22
 686 92 686 92 706 112 c 1,23,-1
 706 280 l 1,24,-1
 520 318 l 1,25,-1
 532 401 l 1,26,-1
 1008 401 l 1,27,-1
 994 317 l 1,28,-1
 892 285 l 1,29,-1
 892 29 l 1,30,31
 739 -31 739 -31 491 -31 c 0,32,33
 272 -31 272 -31 155.5 95.5 c 128,-1,34
 39 222 39 222 39 421 c 0,0,1
EndSplineSet
Colour: ffffff
EndChar

StartChar: germandbls
Encoding: 223 223 114
Width: 1102
VWidth: 1691
Flags: MW
LayerCount: 2
Back
SplineSet
35 0 m 5,0,-1
 47 73 l 1,1,-1
 199 116 l 1,2,-1
 199 784 l 1,3,-1
 50 784 l 1,4,-1
 62 857 l 1,5,-1
 200 879 l 1,6,7
 212 982 212 982 252 1066 c 0
 292 1150 292 1150 347 1200.5 c 0
 402 1251 402 1251 461 1277.5 c 0
 520 1304 520 1304 575 1304 c 0,8,9
 659 1304 659 1304 710.5 1275 c 0
 762 1246 762 1246 762 1189 c 0,10,11
 762 1155 762 1155 732 1121.5 c 0
 702 1088 702 1088 673 1077 c 1,12,13
 635 1124 635 1124 587 1161 c 0
 539 1198 539 1198 497 1198 c 0,14,15
 436 1198 436 1198 403.5 1150 c 0
 371 1102 371 1102 368 981 c 2,16,-1
 366 873 l 1,17,-1
 623 873 l 1,18,-1
 611 784 l 1,19,-1
 366 784 l 1,20,-1
 366 121 l 1,21,-1
 611 83 l 1,22,-1
 604 0 l 1,23,-1
 35 0 l 5,0,-1
EndSplineSet
Fore
SplineSet
10 0 m 1,0,-1
 18 73 l 1,1,-1
 152 110 l 1,2,-1
 152 548 l 2,3,4
 152 752 152 752 284.5 850.5 c 128,-1,5
 417 949 417 949 653 949 c 0,6,7
 717 949 717 949 779.5 941 c 128,-1,8
 842 933 842 933 905 914 c 128,-1,9
 968 895 968 895 1007 857.5 c 128,-1,10
 1046 820 1046 820 1046 769 c 0,11,12
 1046 715 1046 715 1016.5 685 c 128,-1,13
 987 655 987 655 925 634 c 1,14,15
 870 843 870 843 746 843 c 0,16,17
 695 843 695 843 660 813.5 c 128,-1,18
 625 784 625 784 625 724 c 0,19,20
 625 682 625 682 650.5 645 c 128,-1,21
 676 608 676 608 716.5 580.5 c 128,-1,22
 757 553 757 553 805.5 526.5 c 128,-1,23
 854 500 854 500 903 472 c 128,-1,24
 952 444 952 444 992.5 413 c 128,-1,25
 1033 382 1033 382 1058.5 338.5 c 128,-1,26
 1084 295 1084 295 1084 244 c 0,27,28
 1084 126 1084 126 987 51 c 128,-1,29
 890 -24 890 -24 759 -24 c 0,30,31
 529 -24 529 -24 443 59 c 1,32,-1
 476 309 l 1,33,-1
 578 295 l 1,34,-1
 597 144 l 1,35,36
 632 107 632 107 667.5 91 c 128,-1,37
 703 75 703 75 773 75 c 0,38,39
 826 75 826 75 868 102 c 128,-1,40
 910 129 910 129 910 179 c 0,41,42
 910 218 910 218 877 253 c 128,-1,43
 844 288 844 288 795 313.5 c 128,-1,44
 746 339 746 339 688.5 372 c 128,-1,45
 631 405 631 405 582 438.5 c 128,-1,46
 533 472 533 472 500 525 c 128,-1,47
 467 578 467 578 467 641 c 0,48,49
 467 729 467 729 515.5 787.5 c 128,-1,50
 564 846 564 846 635 867 c 1,51,-1
 637 870 l 1,52,53
 483 880 483 880 412 810 c 128,-1,54
 341 740 341 740 341 571 c 2,55,-1
 341 0 l 1,56,-1
 10 0 l 1,0,-1
EndSplineSet
AlternateSubs2: "Alternate Substitution in Latin lookup 0-1" germandbls.alt
Colour: ffffff
EndChar

StartChar: grave
Encoding: 96 96 115
Width: 535
VWidth: 0
Flags: MW
LayerCount: 2
Fore
SplineSet
122 1659 m 1,0,-1
 237 1697 l 1,1,-1
 369 1364 l 1,2,-1
 313 1329 l 1,3,-1
 122 1659 l 1,0,-1
EndSplineSet
Colour: ffffff
EndChar

StartChar: greater
Encoding: 62 62 116
Width: 727
VWidth: 0
Flags: MW
LayerCount: 2
Back
SplineSet
718 428 m 1,0,-1
 83 -83 l 1,1,-1
 31 -13 l 1,2,-1
 487 454 l 1,3,-1
 195 902 l 1,4,-1
 263 973 l 1,5,-1
 722 456 l 1,6,-1
 718 428 l 1,0,-1
EndSplineSet
Fore
SplineSet
59 -13 m 1,0,-1
 519 434 l 1,1,-1
 79 900 l 1,2,-1
 135 973 l 1,3,-1
 755 472 l 1,4,-1
 756 415 l 1,5,-1
 122 -83 l 1,6,-1
 59 -13 l 1,0,-1
EndSplineSet
Colour: ffffff
EndChar

StartChar: guillemotleft
Encoding: 171 171 117
Width: 643
VWidth: 0
Flags: MW
LayerCount: 2
Back
SplineSet
401 469 m 1,0,-1
 725 821 l 1,1,-1
 760 761 l 1,2,-1
 547 461 l 1,3,-1
 664 140 l 1,4,-1
 601 78 l 1,5,-1
 400 449 l 1,6,-1
 401 469 l 1,0,-1
154 469 m 1,7,-1
 477 821 l 1,8,-1
 512 761 l 1,9,-1
 299 461 l 1,10,-1
 416 140 l 1,11,-1
 353 78 l 1,12,-1
 152 449 l 1,13,-1
 154 469 l 1,7,-1
EndSplineSet
Fore
SplineSet
270 469 m 1,0,-1
 538 820 l 1,1,-1
 583 761 l 1,2,-1
 418 461 l 1,3,-1
 586 141 l 1,4,-1
 534 77 l 1,5,-1
 271 449 l 1,6,-1
 270 469 l 1,0,-1
23 469 m 1,7,-1
 292 820 l 1,8,-1
 335 761 l 1,9,-1
 171 461 l 1,10,-1
 338 141 l 1,11,-1
 286 77 l 1,12,-1
 24 449 l 1,13,-1
 23 469 l 1,7,-1
EndSplineSet
Colour: ffffff
EndChar

StartChar: guillemotright
Encoding: 187 187 118
Width: 645
VWidth: 0
Flags: MW
LayerCount: 2
Fore
SplineSet
308 141 m 1,0,-1
 476 461 l 1,1,-1
 311 761 l 1,2,-1
 355 820 l 1,3,-1
 623 469 l 1,4,-1
 621 449 l 1,5,-1
 360 77 l 1,6,-1
 308 141 l 1,0,-1
61 141 m 1,7,-1
 228 461 l 1,8,-1
 64 761 l 1,9,-1
 108 820 l 1,10,-1
 376 469 l 1,11,-1
 374 449 l 1,12,-1
 113 77 l 1,13,-1
 61 141 l 1,7,-1
EndSplineSet
Colour: ffffff
EndChar

StartChar: guilsinglleft
Encoding: 8249 8249 119
Width: 396
VWidth: 0
Flags: MW
LayerCount: 2
Fore
SplineSet
23 469 m 1,0,-1
 292 820 l 1,1,-1
 335 761 l 1,2,-1
 171 461 l 1,3,-1
 338 141 l 1,4,-1
 286 77 l 1,5,-1
 24 449 l 1,6,-1
 23 469 l 1,0,-1
EndSplineSet
Colour: ffffff
EndChar

StartChar: guilsinglright
Encoding: 8250 8250 120
Width: 397
VWidth: 0
Flags: MW
LayerCount: 2
Fore
SplineSet
61 141 m 1,0,-1
 228 461 l 1,1,-1
 64 761 l 1,2,-1
 108 820 l 1,3,-1
 376 469 l 1,4,-1
 374 449 l 1,5,-1
 113 77 l 1,6,-1
 61 141 l 1,0,-1
EndSplineSet
Colour: ffffff
EndChar

StartChar: h
Encoding: 104 104 121
Width: 1195
VWidth: 1691
Flags: MW
LayerCount: 2
Fore
SplineSet
37 854 m 1,0,-1
 48 930 l 1,1,-1
 532 930 l 1,2,-1
 522 854 l 1,3,-1
 384 816 l 1,4,-1
 384 508 l 1,5,-1
 809 508 l 1,6,-1
 809 812 l 1,7,-1
 656 854 l 1,8,-1
 667 930 l 1,9,-1
 1153 930 l 1,10,-1
 1141 854 l 1,11,-1
 1004 816 l 1,12,-1
 1004 114 l 1,13,-1
 1156 80 l 1,14,-1
 1146 0 l 1,15,-1
 663 0 l 1,16,-1
 673 74 l 1,17,-1
 809 121 l 1,18,-1
 809 405 l 1,19,-1
 384 405 l 1,20,-1
 384 114 l 1,21,-1
 538 80 l 1,22,-1
 525 0 l 1,23,-1
 44 0 l 1,24,-1
 52 74 l 1,25,-1
 189 121 l 1,26,-1
 189 812 l 1,27,-1
 37 854 l 1,0,-1
EndSplineSet
Colour: ffffff
EndChar

StartChar: hyphen
Encoding: 45 45 122
Width: 581
VWidth: 0
Flags: MW
LayerCount: 2
Back
SplineSet
170 499 m 1,0,-1
 580 517 l 1,1,-1
 553 416 l 1,2,-1
 142 398 l 1,3,-1
 170 499 l 1,0,-1
EndSplineSet
Fore
SplineSet
81 398 m 1,0,-1
 92 498 l 1,1,-1
 500 517 l 1,2,-1
 489 415 l 1,3,-1
 81 398 l 1,0,-1
EndSplineSet
Colour: ffffff
EndChar

StartChar: i
Encoding: 105 105 123
Width: 574
VWidth: 1691
Flags: MW
LayerCount: 2
Fore
SplineSet
37 854 m 1,0,-1
 48 930 l 1,1,-1
 532 930 l 1,2,-1
 522 854 l 1,3,-1
 383 816 l 1,4,-1
 383 114 l 1,5,-1
 534 80 l 1,6,-1
 524 0 l 1,7,-1
 44 0 l 1,8,-1
 52 74 l 1,9,-1
 189 121 l 1,10,-1
 189 812 l 1,11,-1
 37 854 l 1,0,-1
EndSplineSet
Colour: ffffff
EndChar

StartChar: iacute
Encoding: 237 237 124
Width: 574
VWidth: 0
Flags: MW
LayerCount: 2
Fore
SplineSet
207 1055 m 1,0,-1
 330 1380 l 1,1,-1
 441 1341 l 1,2,-1
 258 1023 l 1,3,-1
 207 1055 l 1,0,-1
37 854 m 1,4,-1
 48 930 l 1,5,-1
 532 930 l 1,6,-1
 522 854 l 1,7,-1
 383 816 l 1,8,-1
 383 114 l 1,9,-1
 534 80 l 1,10,-1
 524 0 l 1,11,-1
 44 0 l 1,12,-1
 52 74 l 1,13,-1
 189 121 l 1,14,-1
 189 812 l 1,15,-1
 37 854 l 1,4,-1
EndSplineSet
Colour: ffffff
EndChar

StartChar: icircumflex
Encoding: 238 238 125
Width: 574
VWidth: 0
Flags: MW
LayerCount: 2
Fore
SplineSet
90 1057 m 1,0,-1
 258 1236 l 1,1,-1
 313 1251 l 1,2,-1
 491 1065 l 1,3,-1
 442 1028 l 1,4,-1
 279 1138 l 1,5,-1
 268 1138 l 1,6,-1
 129 1027 l 1,7,-1
 90 1057 l 1,0,-1
37 854 m 1,8,-1
 48 930 l 1,9,-1
 532 930 l 1,10,-1
 522 854 l 1,11,-1
 383 816 l 1,12,-1
 383 114 l 1,13,-1
 534 80 l 1,14,-1
 524 0 l 1,15,-1
 44 0 l 1,16,-1
 52 74 l 1,17,-1
 189 121 l 1,18,-1
 189 812 l 1,19,-1
 37 854 l 1,8,-1
EndSplineSet
Colour: ffffff
EndChar

StartChar: idieresis
Encoding: 239 239 126
Width: 574
VWidth: 0
Flags: MW
LayerCount: 2
Fore
SplineSet
345 1109 m 0,0,1
 345 1142 345 1142 371.5 1164 c 128,-1,2
 398 1186 398 1186 430 1186 c 0,3,4
 464 1186 464 1186 490.5 1164 c 128,-1,5
 517 1142 517 1142 517 1109 c 0,6,7
 517 1074 517 1074 490.5 1050.5 c 128,-1,8
 464 1027 464 1027 430 1027 c 128,-1,9
 396 1027 396 1027 370.5 1050.5 c 128,-1,10
 345 1074 345 1074 345 1109 c 0,0,1
77 1109 m 0,11,12
 77 1142 77 1142 103.5 1164 c 128,-1,13
 130 1186 130 1186 162 1186 c 0,14,15
 196 1186 196 1186 222 1164 c 128,-1,16
 248 1142 248 1142 248 1109 c 0,17,18
 248 1073 248 1073 222 1050 c 128,-1,19
 196 1027 196 1027 162 1027 c 128,-1,20
 128 1027 128 1027 102.5 1050.5 c 128,-1,21
 77 1074 77 1074 77 1109 c 0,11,12
37 854 m 1,22,-1
 48 930 l 1,23,-1
 532 930 l 1,24,-1
 522 854 l 1,25,-1
 383 816 l 1,26,-1
 383 114 l 1,27,-1
 534 80 l 1,28,-1
 524 0 l 1,29,-1
 44 0 l 1,30,-1
 52 74 l 1,31,-1
 189 121 l 1,32,-1
 189 812 l 1,33,-1
 37 854 l 1,22,-1
EndSplineSet
Colour: ffffff
EndChar

StartChar: igrave
Encoding: 236 236 127
Width: 574
VWidth: 0
Flags: MW
LayerCount: 2
Fore
SplineSet
102 1340 m 1,0,-1
 217 1378 l 1,1,-1
 349 1045 l 1,2,-1
 293 1010 l 1,3,-1
 102 1340 l 1,0,-1
37 854 m 1,4,-1
 48 930 l 1,5,-1
 532 930 l 1,6,-1
 522 854 l 1,7,-1
 383 816 l 1,8,-1
 383 114 l 1,9,-1
 534 80 l 1,10,-1
 524 0 l 1,11,-1
 44 0 l 1,12,-1
 52 74 l 1,13,-1
 189 121 l 1,14,-1
 189 812 l 1,15,-1
 37 854 l 1,4,-1
EndSplineSet
Colour: ffffff
EndChar

StartChar: j
Encoding: 106 106 128
Width: 563
VWidth: 1691
Flags: MW
LayerCount: 2
Fore
SplineSet
-51 -237 m 1,0,1
 70 -130 70 -130 127.5 -35.5 c 128,-1,2
 185 59 185 59 185 167 c 2,3,-1
 185 812 l 1,4,-1
 34 854 l 1,5,-1
 44 930 l 1,6,-1
 529 930 l 1,7,-1
 519 854 l 1,8,-1
 379 816 l 1,9,-1
 379 305 l 2,10,11
 379 194 379 194 366.5 115 c 128,-1,12
 354 36 354 36 330 -25 c 128,-1,13
 306 -86 306 -86 258 -137.5 c 128,-1,14
 210 -189 210 -189 153 -230.5 c 128,-1,15
 96 -272 96 -272 3 -326 c 1,16,-1
 -51 -237 l 1,0,1
EndSplineSet
Colour: ffffff
EndChar

StartChar: k
Encoding: 107 107 129
Width: 1115
VWidth: 1691
Flags: MW
LayerCount: 2
Fore
SplineSet
413 466 m 1,0,1
 483 534 483 534 559 616 c 2,2,-1
 744 815 l 1,3,-1
 626 854 l 1,4,-1
 634 930 l 1,5,-1
 1047 930 l 1,6,-1
 1035 851 l 1,7,-1
 895 811 l 1,8,-1
 597 492 l 1,9,-1
 766 287 l 2,10,11
 906 118 906 118 1032 83 c 2,12,-1
 1078 70 l 1,13,-1
 1068 1 l 1,14,15
 1005 -21 1005 -21 937 -21 c 0,16,17
 841 -21 841 -21 755 33.5 c 128,-1,18
 669 88 669 88 610 170 c 2,19,-1
 414 445 l 1,20,-1
 413 466 l 1,0,1
37 854 m 1,21,-1
 51 930 l 1,22,-1
 531 930 l 1,23,-1
 521 854 l 1,24,-1
 389 807 l 1,25,-1
 389 124 l 1,26,-1
 558 80 l 1,27,-1
 547 0 l 1,28,-1
 44 0 l 1,29,-1
 54 74 l 1,30,-1
 196 129 l 1,31,-1
 196 803 l 1,32,-1
 37 854 l 1,21,-1
EndSplineSet
Colour: ffffff
EndChar

StartChar: l
Encoding: 108 108 130
Width: 929
VWidth: 1691
Flags: MW
LayerCount: 2
Fore
SplineSet
37 854 m 1,0,-1
 50 930 l 1,1,-1
 550 930 l 1,2,-1
 540 854 l 1,3,-1
 389 807 l 1,4,-1
 389 96 l 1,5,-1
 695 96 l 1,6,-1
 790 295 l 1,7,-1
 892 281 l 1,8,-1
 864 0 l 1,9,-1
 50 0 l 1,10,-1
 59 74 l 1,11,-1
 195 121 l 1,12,-1
 195 803 l 1,13,-1
 37 854 l 1,0,-1
EndSplineSet
Colour: ffffff
EndChar

StartChar: less
Encoding: 60 60 131
Width: 713
VWidth: 0
Flags: MW
LayerCount: 2
Fore
SplineSet
756 -13 m 1,0,-1
 693 -83 l 1,1,-1
 59 415 l 1,2,-1
 60 472 l 1,3,-1
 680 973 l 1,4,-1
 736 900 l 1,5,-1
 296 434 l 1,6,-1
 756 -13 l 1,0,-1
EndSplineSet
Colour: ffffff
EndChar

StartChar: logicalnot
Encoding: 172 172 132
Width: 910
VWidth: 0
Flags: MW
LayerCount: 2
Back
SplineSet
200 664 m 1,0,-1
 945 664 l 1,1,-1
 897 350 l 1,2,-1
 788 332 l 1,3,-1
 824 558 l 1,4,-1
 172 558 l 1,5,-1
 200 664 l 1,0,-1
EndSplineSet
Fore
SplineSet
74 559 m 1,0,-1
 86 663 l 1,1,-1
 830 663 l 1,2,-1
 832 351 l 1,3,-1
 726 332 l 1,4,-1
 726 559 l 1,5,-1
 74 559 l 1,0,-1
EndSplineSet
Colour: ffffff
EndChar

StartChar: m
Encoding: 109 109 133
Width: 1449
VWidth: 1691
Flags: MW
LayerCount: 2
Fore
SplineSet
35 0 m 1,0,-1
 46 74 l 1,1,-1
 183 121 l 1,2,-1
 246 812 l 1,3,-1
 93 854 l 1,4,-1
 103 930 l 1,5,-1
 460 930 l 1,6,-1
 544 736 l 1,7,-1
 725 322 l 1,8,-1
 919 769 l 1,9,-1
 993 930 l 1,10,-1
 1367 930 l 1,11,-1
 1357 854 l 1,12,-1
 1219 816 l 1,13,-1
 1261 114 l 1,14,-1
 1413 80 l 1,15,-1
 1403 0 l 1,16,-1
 917 0 l 1,17,-1
 928 74 l 1,18,-1
 1074 121 l 1,19,-1
 1041 719 l 1,20,-1
 752 60 l 1,21,-1
 624 41 l 1,22,-1
 358 663 l 1,23,-1
 315 114 l 1,24,-1
 468 80 l 1,25,-1
 455 0 l 1,26,-1
 35 0 l 1,0,-1
EndSplineSet
Colour: ffffff
EndChar

StartChar: macron
Encoding: 175 175 134
Width: 637
VWidth: 0
Flags: MW
LayerCount: 2
Fore
SplineSet
92 1379 m 1,0,-1
 105 1479 l 1,1,-1
 547 1479 l 1,2,-1
 534 1379 l 1,3,-1
 92 1379 l 1,0,-1
EndSplineSet
Colour: ffffff
EndChar

StartChar: multiply
Encoding: 215 215 135
Width: 604
VWidth: 0
Flags: MW
LayerCount: 2
Fore
SplineSet
67 310 m 1,0,-1
 223 462 l 1,1,-1
 67 619 l 1,2,-1
 151 685 l 1,3,-1
 304 532 l 1,4,-1
 469 692 l 1,5,-1
 534 608 l 1,6,-1
 378 458 l 1,7,-1
 537 297 l 1,8,-1
 454 231 l 1,9,-1
 298 388 l 1,10,-1
 134 228 l 1,11,-1
 67 310 l 1,0,-1
EndSplineSet
Colour: ffffff
EndChar

StartChar: n
Encoding: 110 110 136
Width: 1120
VWidth: 1691
Flags: MW
LayerCount: 2
Fore
SplineSet
37 854 m 1,0,-1
 48 930 l 1,1,-1
 358 930 l 1,2,-1
 831 275 l 1,3,-1
 831 812 l 1,4,-1
 679 854 l 1,5,-1
 691 930 l 1,6,-1
 1133 930 l 1,7,-1
 1120 854 l 1,8,-1
 953 816 l 1,9,-1
 953 11 l 1,10,-1
 800 -20 l 1,11,-1
 317 647 l 1,12,-1
 317 114 l 1,13,-1
 471 80 l 1,14,-1
 460 0 l 1,15,-1
 44 0 l 1,16,-1
 52 74 l 1,17,-1
 189 121 l 1,18,-1
 189 803 l 1,19,-1
 37 854 l 1,0,-1
EndSplineSet
Colour: ffffff
EndChar

StartChar: nine
Encoding: 57 57 138
Width: 778
VWidth: 0
Flags: MW
LayerCount: 2
Back
SplineSet
745 562 m 1,0,1
 721 535 721 535 692 517 c 0,2,3
 655 494 655 494 626 484 c 0,4,5
 573 466 573 466 555 462 c 0,6,7
 525 456 525 456 487 456 c 0,8,9
 424 456 424 456 373 479 c 0,10,11
 320 503 320 503 289 538 c 0,12,13
 258 573 258 573 238 631 c 0,14,15
 220 684 220 684 220 740 c 0,16,17
 220 828 220 828 261 912 c 0,18,19
 298 988 298 988 365 1050 c 0,20,21
 433 1113 433 1113 509 1146 c 0,22,23
 592 1182 592 1182 662 1182 c 0,24,25
 748 1182 748 1182 806 1153 c 0,26,27
 865 1124 865 1124 903 1073 c 0,28,29
 944 1019 944 1019 960 958 c 0,30,31
 978 890 978 890 978 819 c 0,32,33
 978 669 978 669 925 527 c 0,34,35
 872 384 872 384 779 272 c 0,36,37
 683 156 683 156 555 79 c 0,38,39
 427 2 427 2 266 -26 c 1,40,-1
 253 46 l 1,41,42
 383 85 383 85 464 134 c 0,43,44
 551 186.5 551 186.5 611 251 c 0,45,46
 675 320 675 320 707 393 c 0,47,48
 741 471 741 471 761 562 c 1,49,-1
 745 562 l 1,0,1
644 1103 m 0,50,51
 577 1103 577 1103 528 1078 c 0,52,53
 481 1054 481 1054 449 1011 c 0,54,55
 418 970 418 970 403 912 c 0,56,57
 388 855 388 855 388 788 c 0,58,59
 388 743 388 743 400 704 c 0,60,61
 414 659 414 659 434 631 c 0,62,63
 455 602 455 602 492 581 c 0,64,65
 526 562 526 562 573 562 c 0,66,67
 604 562 604 562 628 568 c 0,68,69
 665 577 665 577 685 585 c 0,70,71
 716 597 716 597 737 611 c 0,72,73
 758 625 758 625 775 647 c 1,74,75
 783 669 783 669 796 723 c 0,76,77
 806 766 806 766 806 837 c 0,78,79
 806 888 806 888 794 938 c 0,80,81
 782 987 782 987 761 1022 c 0,82,83
 739 1058 739 1058 710 1080 c 0,84,85
 679 1103 679 1103 644 1103 c 0,50,51
EndSplineSet
Fore
SplineSet
208 607 m 0,0,1
 208 469 208 469 251 403.5 c 128,-1,2
 294 338 294 338 387 338 c 0,3,4
 438 338 438 338 482 362 c 128,-1,5
 526 386 526 386 550 424 c 1,6,7
 557 464 557 464 557 565 c 0,8,9
 557 649 557 649 536.5 722 c 128,-1,10
 516 795 516 795 473.5 843 c 128,-1,11
 431 891 431 891 375 891 c 0,12,13
 208 891 208 891 208 607 c 0,0,1
25 581 m 0,14,15
 25 743 25 743 134.5 857.5 c 128,-1,16
 244 972 244 972 390 972 c 0,17,18
 485 972 485 972 555.5 935 c 128,-1,19
 626 898 626 898 666 833.5 c 128,-1,20
 706 769 706 769 725 691 c 128,-1,21
 744 613 744 613 744 521 c 0,22,23
 744 356 744 356 664.5 189.5 c 128,-1,24
 585 23 585 23 447.5 -103.5 c 128,-1,25
 310 -230 310 -230 148 -282 c 1,26,-1
 125 -208 l 1,27,28
 209 -172 209 -172 276.5 -122 c 128,-1,29
 344 -72 344 -72 387.5 -20 c 128,-1,30
 431 32 431 32 463.5 96.5 c 128,-1,31
 496 161 496 161 513.5 216.5 c 128,-1,32
 531 272 531 272 544 338 c 1,33,-1
 532 338 l 1,34,35
 495 288 495 288 437 259 c 128,-1,36
 379 230 379 230 314 230 c 0,37,38
 170 230 170 230 97.5 320 c 128,-1,39
 25 410 25 410 25 581 c 0,14,15
EndSplineSet
Colour: ffffff
EndChar

StartChar: ntilde
Encoding: 241 241 139
Width: 1120
VWidth: 0
Flags: M
LayerCount: 2
Fore
SplineSet
328 1048 m 1,0,1
 330 1054 330 1054 333 1064.5 c 128,-1,2
 336 1075 336 1075 348 1101 c 128,-1,3
 360 1127 360 1127 374.5 1146 c 128,-1,4
 389 1165 389 1165 413 1179 c 128,-1,5
 437 1193 437 1193 464 1190 c 2,6,-1
 690 1161 l 2,7,8
 701 1160 701 1160 715.5 1170 c 128,-1,9
 730 1180 730 1180 738 1190 c 2,10,-1
 746 1201 l 1,11,-1
 795 1199 l 1,12,13
 790.5 1185.5 l 130,-1,14
 786 1172 786 1172 772.5 1145.5 c 128,-1,15
 759 1119 759 1119 743.5 1100 c 128,-1,16
 728 1081 728 1081 703 1066.5 c 128,-1,17
 678 1052 678 1052 651 1056 c 2,18,-1
 426 1088 l 2,19,20
 414 1090 414 1090 399 1077.5 c 128,-1,21
 384 1065 384 1065 376 1052 c 2,22,-1
 367 1039 l 1,23,-1
 328 1048 l 1,0,1
37 854 m 1,24,-1
 48 930 l 1,25,-1
 358 930 l 1,26,-1
 831 275 l 1,27,-1
 831 812 l 1,28,-1
 679 854 l 1,29,-1
 691 930 l 1,30,-1
 1133 930 l 1,31,-1
 1120 854 l 1,32,-1
 953 816 l 1,33,-1
 953 11 l 1,34,-1
 800 -20 l 1,35,-1
 317 647 l 1,36,-1
 317 114 l 1,37,-1
 471 80 l 1,38,-1
 460 0 l 1,39,-1
 44 0 l 1,40,-1
 52 74 l 1,41,-1
 189 121 l 1,42,-1
 189 803 l 1,43,-1
 37 854 l 1,24,-1
EndSplineSet
Colour: ffffff
EndChar

StartChar: numbersign
Encoding: 35 35 140
Width: 859
VWidth: 0
Flags: MW
LayerCount: 2
Fore
SplineSet
63 561 m 1,0,-1
 97 686 l 1,1,-1
 276 686 l 1,2,-1
 315 941 l 1,3,-1
 426 951 l 1,4,-1
 386 686 l 1,5,-1
 550 686 l 1,6,-1
 589 941 l 1,7,-1
 700 950 l 1,8,-1
 660 686 l 1,9,-1
 846 686 l 1,10,-1
 815 561 l 1,11,-1
 641 561 l 1,12,-1
 612 368 l 1,13,-1
 789 368 l 1,14,-1
 758 243 l 1,15,-1
 593 243 l 1,16,-1
 553 -19 l 1,17,-1
 443 -26 l 1,18,-1
 484 243 l 1,19,-1
 319 243 l 1,20,-1
 280 -19 l 1,21,-1
 168 -26 l 1,22,-1
 209 243 l 1,23,-1
 10 243 l 1,24,-1
 43 368 l 1,25,-1
 228 368 l 1,26,-1
 257 561 l 1,27,-1
 63 561 l 1,0,-1
367 561 m 1,28,-1
 338 368 l 1,29,-1
 502 368 l 1,30,-1
 532 561 l 1,31,-1
 367 561 l 1,28,-1
EndSplineSet
Colour: ffffff
EndChar

StartChar: o
Encoding: 111 111 141
Width: 1034
VWidth: 1691
Flags: MW
LayerCount: 2
Fore
SplineSet
245 515 m 0,0,1
 245 431 245 431 261.5 355.5 c 128,-1,2
 278 280 278 280 310.5 217 c 128,-1,3
 343 154 343 154 399 116.5 c 128,-1,4
 455 79 455 79 528 79 c 0,5,6
 781 79 781 79 781 412 c 0,7,8
 781 493 781 493 764.5 568 c 128,-1,9
 748 643 748 643 716 708 c 128,-1,10
 684 773 684 773 628 812 c 128,-1,11
 572 851 572 851 500 851 c 0,12,13
 245 851 245 851 245 515 c 0,0,1
38 458 m 0,14,15
 38 677 38 677 173.5 812 c 128,-1,16
 309 947 309 947 538 947 c 0,17,18
 677 947 677 947 782.5 879 c 128,-1,19
 888 811 888 811 941.5 701 c 128,-1,20
 995 591 995 591 995 458 c 0,21,22
 995 360 995 360 961 273 c 128,-1,23
 927 186 927 186 864 118.5 c 128,-1,24
 801 51 801 51 703.5 12 c 128,-1,25
 606 -27 606 -27 488 -27 c 0,26,27
 289 -27 289 -27 163.5 112 c 128,-1,28
 38 251 38 251 38 458 c 0,14,15
EndSplineSet
Colour: ffffff
EndChar

StartChar: oacute
Encoding: 243 243 142
Width: 1034
VWidth: 0
Flags: MW
LayerCount: 2
Fore
SplineSet
458 1051 m 1,0,-1
 581 1376 l 1,1,-1
 692 1337 l 1,2,-1
 509 1019 l 1,3,-1
 458 1051 l 1,0,-1
245 515 m 0,4,5
 245 431 245 431 261.5 355.5 c 128,-1,6
 278 280 278 280 310.5 217 c 128,-1,7
 343 154 343 154 399 116.5 c 128,-1,8
 455 79 455 79 528 79 c 0,9,10
 781 79 781 79 781 412 c 0,11,12
 781 493 781 493 764.5 568 c 128,-1,13
 748 643 748 643 716 708 c 128,-1,14
 684 773 684 773 628 812 c 128,-1,15
 572 851 572 851 500 851 c 0,16,17
 245 851 245 851 245 515 c 0,4,5
38 458 m 0,18,19
 38 677 38 677 173.5 812 c 128,-1,20
 309 947 309 947 538 947 c 0,21,22
 677 947 677 947 782.5 879 c 128,-1,23
 888 811 888 811 941.5 701 c 128,-1,24
 995 591 995 591 995 458 c 0,25,26
 995 360 995 360 961 273 c 128,-1,27
 927 186 927 186 864 118.5 c 128,-1,28
 801 51 801 51 703.5 12 c 128,-1,29
 606 -27 606 -27 488 -27 c 0,30,31
 289 -27 289 -27 163.5 112 c 128,-1,32
 38 251 38 251 38 458 c 0,18,19
EndSplineSet
Colour: ffffff
EndChar

StartChar: ocircumflex
Encoding: 244 244 143
Width: 1034
VWidth: 0
Flags: MW
LayerCount: 2
Fore
SplineSet
323 1049 m 1,0,-1
 491 1228 l 1,1,-1
 546 1243 l 1,2,-1
 724 1057 l 1,3,-1
 675 1020 l 1,4,-1
 512 1130 l 1,5,-1
 501 1130 l 1,6,-1
 362 1019 l 1,7,-1
 323 1049 l 1,0,-1
245 515 m 0,8,9
 245 431 245 431 261.5 355.5 c 128,-1,10
 278 280 278 280 310.5 217 c 128,-1,11
 343 154 343 154 399 116.5 c 128,-1,12
 455 79 455 79 528 79 c 0,13,14
 781 79 781 79 781 412 c 0,15,16
 781 493 781 493 764.5 568 c 128,-1,17
 748 643 748 643 716 708 c 128,-1,18
 684 773 684 773 628 812 c 128,-1,19
 572 851 572 851 500 851 c 0,20,21
 245 851 245 851 245 515 c 0,8,9
38 458 m 0,22,23
 38 677 38 677 173.5 812 c 128,-1,24
 309 947 309 947 538 947 c 0,25,26
 677 947 677 947 782.5 879 c 128,-1,27
 888 811 888 811 941.5 701 c 128,-1,28
 995 591 995 591 995 458 c 0,29,30
 995 360 995 360 961 273 c 128,-1,31
 927 186 927 186 864 118.5 c 128,-1,32
 801 51 801 51 703.5 12 c 128,-1,33
 606 -27 606 -27 488 -27 c 0,34,35
 289 -27 289 -27 163.5 112 c 128,-1,36
 38 251 38 251 38 458 c 0,22,23
EndSplineSet
Colour: ffffff
EndChar

StartChar: odieresis
Encoding: 246 246 144
Width: 1034
VWidth: 0
Flags: MW
LayerCount: 2
Fore
SplineSet
574 1121 m 0,0,1
 574 1154 574 1154 600.5 1176 c 128,-1,2
 627 1198 627 1198 659 1198 c 0,3,4
 693 1198 693 1198 719.5 1176 c 128,-1,5
 746 1154 746 1154 746 1121 c 0,6,7
 746 1086 746 1086 719.5 1062.5 c 128,-1,8
 693 1039 693 1039 659 1039 c 128,-1,9
 625 1039 625 1039 599.5 1062.5 c 128,-1,10
 574 1086 574 1086 574 1121 c 0,0,1
306 1121 m 0,11,12
 306 1154 306 1154 332.5 1176 c 128,-1,13
 359 1198 359 1198 391 1198 c 0,14,15
 425 1198 425 1198 451 1176 c 128,-1,16
 477 1154 477 1154 477 1121 c 0,17,18
 477 1085 477 1085 451 1062 c 128,-1,19
 425 1039 425 1039 391 1039 c 128,-1,20
 357 1039 357 1039 331.5 1062.5 c 128,-1,21
 306 1086 306 1086 306 1121 c 0,11,12
245 515 m 0,22,23
 245 431 245 431 261.5 355.5 c 128,-1,24
 278 280 278 280 310.5 217 c 128,-1,25
 343 154 343 154 399 116.5 c 128,-1,26
 455 79 455 79 528 79 c 0,27,28
 781 79 781 79 781 412 c 0,29,30
 781 493 781 493 764.5 568 c 128,-1,31
 748 643 748 643 716 708 c 128,-1,32
 684 773 684 773 628 812 c 128,-1,33
 572 851 572 851 500 851 c 0,34,35
 245 851 245 851 245 515 c 0,22,23
38 458 m 0,36,37
 38 677 38 677 173.5 812 c 128,-1,38
 309 947 309 947 538 947 c 0,39,40
 677 947 677 947 782.5 879 c 128,-1,41
 888 811 888 811 941.5 701 c 128,-1,42
 995 591 995 591 995 458 c 0,43,44
 995 360 995 360 961 273 c 128,-1,45
 927 186 927 186 864 118.5 c 128,-1,46
 801 51 801 51 703.5 12 c 128,-1,47
 606 -27 606 -27 488 -27 c 0,48,49
 289 -27 289 -27 163.5 112 c 128,-1,50
 38 251 38 251 38 458 c 0,36,37
EndSplineSet
Colour: ffffff
EndChar

StartChar: ograve
Encoding: 242 242 145
Width: 1034
VWidth: 0
Flags: MW
LayerCount: 2
Fore
SplineSet
325 1346 m 1,0,-1
 440 1384 l 1,1,-1
 572 1051 l 1,2,-1
 516 1016 l 1,3,-1
 325 1346 l 1,0,-1
245 515 m 0,4,5
 245 431 245 431 261.5 355.5 c 128,-1,6
 278 280 278 280 310.5 217 c 128,-1,7
 343 154 343 154 399 116.5 c 128,-1,8
 455 79 455 79 528 79 c 0,9,10
 781 79 781 79 781 412 c 0,11,12
 781 493 781 493 764.5 568 c 128,-1,13
 748 643 748 643 716 708 c 128,-1,14
 684 773 684 773 628 812 c 128,-1,15
 572 851 572 851 500 851 c 0,16,17
 245 851 245 851 245 515 c 0,4,5
38 458 m 0,18,19
 38 677 38 677 173.5 812 c 128,-1,20
 309 947 309 947 538 947 c 0,21,22
 677 947 677 947 782.5 879 c 128,-1,23
 888 811 888 811 941.5 701 c 128,-1,24
 995 591 995 591 995 458 c 0,25,26
 995 360 995 360 961 273 c 128,-1,27
 927 186 927 186 864 118.5 c 128,-1,28
 801 51 801 51 703.5 12 c 128,-1,29
 606 -27 606 -27 488 -27 c 0,30,31
 289 -27 289 -27 163.5 112 c 128,-1,32
 38 251 38 251 38 458 c 0,18,19
EndSplineSet
Colour: ffffff
EndChar

StartChar: one
Encoding: 49 49 146
Width: 588
VWidth: 0
Flags: MW
LayerCount: 2
Back
SplineSet
599 111 m 1,0,-1
 860 81 l 1,1,-1
 841 0 l 1,2,-1
 130 0 l 1,3,-1
 149 73 l 1,4,-1
 431 117 l 1,5,-1
 557 1006 l 1,6,-1
 292 1006 l 1,7,-1
 309 1082 l 1,8,-1
 720 1156 l 1,9,-1
 746 1156 l 1,10,-1
 599 111 l 1,0,-1
EndSplineSet
Fore
SplineSet
35 0 m 1,0,-1
 44 74 l 1,1,-1
 228 121 l 1,2,-1
 228 802 l 1,3,-1
 55 805 l 1,4,-1
 64 882 l 1,5,-1
 368 956 l 1,6,-1
 396 956 l 1,7,-1
 396 114 l 1,8,-1
 585 80 l 1,9,-1
 575 0 l 1,10,-1
 35 0 l 1,0,-1
EndSplineSet
Colour: ffffff
EndChar

StartChar: onehalf
Encoding: 189 189 147
Width: 1736
VWidth: 0
Flags: MW
LayerCount: 2
Fore
SplineSet
784 2 m 1,0,-1
 792 109 l 1,1,-1
 947 232 l 1,2,3
 1130 382 1130 382 1130 476 c 0,4,5
 1130 507 1130 507 1126 530.5 c 128,-1,6
 1122 554 1122 554 1111 576.5 c 128,-1,7
 1100 599 1100 599 1077.5 611.5 c 128,-1,8
 1055 624 1055 624 1021 624 c 0,9,10
 985 624 985 624 957 607.5 c 128,-1,11
 929 591 929 591 917 566 c 1,12,-1
 895 437 l 1,13,-1
 827 442 l 1,14,-1
 812 612 l 1,15,16
 841 666 841 666 921.5 697 c 128,-1,17
 1002 728 1002 728 1085 728 c 0,18,19
 1200 728 1200 728 1263 679.5 c 128,-1,20
 1326 631 1326 631 1326 542 c 0,21,22
 1326 487 1326 487 1302 435.5 c 128,-1,23
 1278 384 1278 384 1230 336 c 128,-1,24
 1182 288 1182 288 1133.5 250.5 c 128,-1,25
 1085 213 1085 213 1015 167 c 2,26,-1
 948 123 l 1,27,-1
 1218 123 l 1,28,-1
 1297 276 l 1,29,-1
 1354 255 l 1,30,-1
 1335 2 l 1,31,-1
 784 2 l 1,0,-1
139 -10 m 1,32,-1
 546 588 l 1,33,-1
 937 1210 l 1,34,-1
 1113 1207 l 1,35,-1
 1111 1178 l 1,36,-1
 710 591 l 1,37,-1
 339 -32 l 1,38,-1
 139 -10 l 1,32,-1
-52 531 m 1,39,-1
 -48 605 l 1,40,-1
 105 630 l 1,41,-1
 105 1122 l 1,42,-1
 -40 1122 l 1,43,-1
 -36 1199 l 1,44,-1
 266 1245 l 1,45,-1
 285 1245 l 1,46,-1
 285 627 l 1,47,-1
 437 614 l 1,48,-1
 431 531 l 1,49,-1
 -52 531 l 1,39,-1
EndSplineSet
Colour: ffffff
EndChar

StartChar: onequarter
Encoding: 188 188 148
Width: 1736
VWidth: 0
Flags: MW
LayerCount: 2
Fore
SplineSet
800 272 m 1,0,-1
 990 272 l 1,1,-1
 990 508 l 1,2,-1
 800 272 l 1,0,-1
693 270 m 1,3,-1
 1103 737 l 1,4,-1
 1160 726 l 1,5,6
 1151 598 1151 598 1151 430 c 2,7,-1
 1151 272 l 1,8,-1
 1299 272 l 1,9,-1
 1290 175 l 1,10,-1
 1151 175 l 1,11,-1
 1151 83 l 1,12,-1
 1272 65 l 1,13,-1
 1266 0 l 1,14,-1
 852 0 l 1,15,-1
 856 58 l 1,16,-1
 993 85 l 1,17,-1
 993 178 l 1,18,-1
 706 178 l 1,19,-1
 693 270 l 1,3,-1
159 -10 m 1,20,-1
 566 588 l 1,21,-1
 957 1210 l 1,22,-1
 1113 1207 l 1,23,-1
 1111 1178 l 1,24,-1
 710 591 l 1,25,-1
 339 -32 l 1,26,-1
 159 -10 l 1,20,-1
-52 531 m 1,27,-1
 -48 605 l 1,28,-1
 105 630 l 1,29,-1
 105 1122 l 1,30,-1
 -40 1122 l 1,31,-1
 -36 1199 l 1,32,-1
 266 1245 l 1,33,-1
 285 1245 l 1,34,-1
 285 627 l 1,35,-1
 437 614 l 1,36,-1
 431 531 l 1,37,-1
 -52 531 l 1,27,-1
EndSplineSet
Colour: ffffff
EndChar

StartChar: one.superior
Encoding: 185 185 149
Width: 512
VWidth: 0
Flags: MW
LayerCount: 2
Fore
SplineSet
23 531 m 1,0,-1
 27 605 l 1,1,-1
 180 630 l 1,2,-1
 180 1122 l 1,3,-1
 35 1122 l 1,4,-1
 39 1199 l 1,5,-1
 341 1245 l 1,6,-1
 360 1245 l 1,7,-1
 360 627 l 1,8,-1
 512 614 l 1,9,-1
 506 531 l 1,10,-1
 23 531 l 1,0,-1
EndSplineSet
Colour: ffffff
EndChar

StartChar: ordfeminine
Encoding: 170 170 150
Width: 830
VWidth: 0
Flags: MW
LayerCount: 2
Back
SplineSet
128.2 378.4 m 0,0,1
 128.2 423.961 128.2 423.961 149.722 465.334 c 0
 171.244 506.706 171.244 506.706 214.228 542.116 c 0
 257.213 577.526 257.213 577.526 329.922 601.434 c 0
 402.631 625.342 402.631 625.342 497 632 c 1,2,-1
 497 676 l 2,3,4
 497 719.329 497 719.329 490.124 755.409 c 0
 483.247 791.489 483.247 791.489 467.876 822.828 c 0
 452.506 854.168 452.506 854.168 423.824 871.884 c 0
 395.141 889.6 395.141 889.6 355.4 889.6 c 0,5,6
 341.31 889.6 341.31 889.6 330.764 888.173 c 0
 320.217 886.747 320.217 886.747 311.793 881.305 c 0
 303.369 875.863 303.369 875.863 297.753 871.604 c 0
 292.138 867.345 292.138 867.345 287.525 854.964 c 0
 282.911 842.582 282.911 842.582 280.398 834.441 c 0
 277.885 826.299 277.885 826.299 275.254 805.928 c 0
 272.623 785.558 272.623 785.558 271.383 772.484 c 0
 270.143 759.41 270.143 759.41 267.691 730.448 c 0
 266.975 721.959 266.975 721.959 266.6 717.6 c 1,7,8
 250.085 717.6 250.085 717.6 238.327 718.463 c 0
 226.569 719.325 226.569 719.325 209.568 723.899 c 0
 192.567 728.473 192.567 728.473 181.904 736.677 c 0
 171.242 744.881 171.242 744.881 163.321 761.121 c 0
 155.4 777.362 155.4 777.362 155.4 800 c 0,9,10
 155.4 841.391 155.4 841.391 200.947 880.415 c 0
 246.494 919.438 246.494 919.438 309.853 941.719 c 0
 373.212 964 373.212 964 429 964 c 0,11,12
 534.545 964 534.545 964 580.572 905.3 c 0
 626.6 846.601 626.6 846.601 626.6 718.4 c 2,13,-1
 626.6 428 l 2,14,15
 626.6 372.07 626.6 372.07 643.842 350.88 c 0
 661.083 329.69 661.083 329.69 716.2 320.8 c 1,16,-1
 756.2 313.6 l 1,17,-1
 745.8 244.8 l 1,18,19
 739.768 244.03 739.768 244.03 702.34 236.815 c 0
 664.912 229.6 664.912 229.6 637 229.6 c 0,20,21
 573.523 229.6 573.523 229.6 543.262 262.202 c 0
 513 294.803 513 294.803 513 336.8 c 2,22,-1
 513 348.8 l 1,23,-1
 504.2 348.8 l 1,24,25
 494.61 329.976 494.61 329.976 478.54 311.05 c 0
 462.47 292.125 462.47 292.125 436.448 271.387 c 0
 410.426 250.65 410.426 250.65 370.815 237.725 c 0
 331.204 224.8 331.204 224.8 285 224.8 c 0,26,27
 219.136 224.8 219.136 224.8 173.668 266.307 c 0
 128.2 307.815 128.2 307.815 128.2 378.4 c 0,0,1
268.2 416 m 0,28,29
 268.2 382.021 268.2 382.021 292.44 352.611 c 0
 316.679 323.2 316.679 323.2 357.8 323.2 c 0,30,31
 395.929 323.2 395.929 323.2 434.523 345.411 c 0
 473.118 367.623 473.118 367.623 497 394.4 c 1,32,-1
 497 586.4 l 1,33,34
 372.352 561.813 372.352 561.813 320.276 519.594 c 0
 268.2 477.374 268.2 477.374 268.2 416 c 0,28,29
EndSplineSet
Fore
SplineSet
293 716 m 0,0,1
 293 681 293 681 314.5 654 c 128,-1,2
 336 627 336 627 379 627 c 0,3,4
 407 627 407 627 432 640 c 128,-1,5
 457 653 457 653 465 661 c 128,-1,6
 473 669 473 669 496 694 c 1,7,-1
 496 873 l 1,8,9
 386 853 386 853 339.5 814.5 c 128,-1,10
 293 776 293 776 293 716 c 0,0,1
125 668 m 0,11,12
 125 716 125 716 144 760 c 128,-1,13
 163 804 163 804 203.5 844 c 128,-1,14
 244 884 244 884 319.5 908 c 128,-1,15
 395 932 395 932 496 932 c 1,16,-1
 496 966 l 2,17,18
 496 1014 496 1014 493 1044.5 c 128,-1,19
 490 1075 490 1075 479.5 1107 c 128,-1,20
 469 1139 469 1139 446 1154.5 c 128,-1,21
 423 1170 423 1170 386 1170 c 0,22,23
 336 1170 336 1170 319 1129.5 c 128,-1,24
 302 1089 302 1089 292 978 c 1,25,26
 231 972 231 972 192.5 1004.5 c 128,-1,27
 154 1037 154 1037 154 1100 c 0,28,29
 154 1161 154 1161 251 1207.5 c 128,-1,30
 348 1254 348 1254 444 1254 c 0,31,32
 556 1254 556 1254 605 1195 c 128,-1,33
 654 1136 654 1136 654 1008 c 2,34,-1
 654 748 l 2,35,36
 654 692 654 692 673.5 668.5 c 128,-1,37
 693 645 693 645 749 635 c 2,38,-1
 792 628 l 1,39,-1
 781 566 l 1,40,41
 751 539 751 539 727 529.5 c 128,-1,42
 703 520 703 520 665 520 c 0,43,44
 596 520 596 520 555 553.5 c 128,-1,45
 514 587 514 587 514 627 c 2,46,-1
 514 639 l 1,47,-1
 504 639 l 1,48,49
 436 515 436 515 291 515 c 0,50,51
 221 515 221 515 173 556 c 128,-1,52
 125 597 125 597 125 668 c 0,11,12
EndSplineSet
Colour: ffffff
EndChar

StartChar: ordmasculine
Encoding: 186 186 151
Width: 934
VWidth: 0
Flags: MW
LayerCount: 2
Fore
SplineSet
286 933 m 0,0,1
 286 880 286 880 291 834 c 128,-1,2
 296 788 296 788 310.5 742 c 128,-1,3
 325 696 325 696 347.5 664 c 128,-1,4
 370 632 370 632 407 612 c 128,-1,5
 444 592 444 592 492 592 c 0,6,7
 549 592 549 592 585.5 627.5 c 128,-1,8
 622 663 622 663 635 712 c 128,-1,9
 648 761 648 761 648 823 c 0,10,11
 648 888 648 888 639 945.5 c 128,-1,12
 630 1003 630 1003 609 1057 c 128,-1,13
 588 1111 588 1111 547 1142.5 c 128,-1,14
 506 1174 506 1174 448 1174 c 0,15,16
 286 1174 286 1174 286 933 c 0,0,1
114 876 m 0,17,18
 114 1050 114 1050 223.5 1154 c 128,-1,19
 333 1258 333 1258 484 1258 c 0,20,21
 639 1258 639 1258 729.5 1156.5 c 128,-1,22
 820 1055 820 1055 820 888 c 0,23,24
 820 723 820 723 717.5 618.5 c 128,-1,25
 615 514 615 514 464 514 c 0,26,27
 300 514 300 514 207 615.5 c 128,-1,28
 114 717 114 717 114 876 c 0,17,18
EndSplineSet
Colour: ffffff
EndChar

StartChar: oslash
Encoding: 248 248 152
Width: 933
VWidth: 0
Flags: MW
LayerCount: 2
Fore
SplineSet
16 458 m 0,0,1
 16 677 16 677 151.5 812 c 128,-1,2
 287 947 287 947 516 947 c 0,3,4
 661 947 661 947 771 872 c 1,5,-1
 828 947 l 1,6,-1
 983 954 l 1,7,-1
 860 792 l 1,8,9
 915 726 915 726 944 639.5 c 128,-1,10
 973 553 973 553 973 458 c 0,11,12
 973 360 973 360 939 273 c 128,-1,13
 905 186 905 186 842 118.5 c 128,-1,14
 779 51 779 51 681.5 12 c 128,-1,15
 584 -27 584 -27 466 -27 c 0,16,17
 342 -27 342 -27 242 31 c 1,18,-1
 187 -41 l 1,19,-1
 24 -46 l 1,20,-1
 149 104 l 1,21,22
 85 170 85 170 50.5 261.5 c 128,-1,23
 16 353 16 353 16 458 c 0,0,1
322 167 m 1,24,25
 394 79 394 79 506 79 c 0,26,27
 759 79 759 79 759 412 c 0,28,29
 759 546 759 546 719 653 c 1,30,-1
 322 167 l 1,24,25
284 226 m 1,31,-1
 685 723 l 1,32,33
 609 851 609 851 478 851 c 0,34,35
 223 851 223 851 223 515 c 0,36,37
 223 343 223 343 284 226 c 1,31,-1
EndSplineSet
Colour: ffffff
EndChar

StartChar: otilde
Encoding: 245 245 153
Width: 1034
VWidth: 0
Flags: MW
LayerCount: 2
Fore
SplineSet
279 1048 m 1,0,1
 281 1054 281 1054 284 1064.5 c 128,-1,2
 287 1075 287 1075 299 1101 c 128,-1,3
 311 1127 311 1127 325.5 1146 c 128,-1,4
 340 1165 340 1165 364 1179 c 128,-1,5
 388 1193 388 1193 415 1190 c 2,6,-1
 641 1161 l 2,7,8
 652 1160 652 1160 666 1170 c 128,-1,9
 680 1180 680 1180 688 1190 c 2,10,-1
 697 1201 l 1,11,-1
 746 1199 l 1,12,13
 741.5 1185.5 l 130,-1,14
 737 1172 737 1172 723.5 1145.5 c 128,-1,15
 710 1119 710 1119 694.5 1100 c 128,-1,16
 679 1081 679 1081 654 1066.5 c 128,-1,17
 629 1052 629 1052 602 1056 c 2,18,-1
 377 1088 l 2,19,20
 365 1090 365 1090 349.5 1077.5 c 128,-1,21
 334 1065 334 1065 326 1052 c 2,22,-1
 318 1039 l 1,23,-1
 279 1048 l 1,0,1
245 515 m 0,24,25
 245 431 245 431 261.5 355.5 c 128,-1,26
 278 280 278 280 310.5 217 c 128,-1,27
 343 154 343 154 399 116.5 c 128,-1,28
 455 79 455 79 528 79 c 0,29,30
 781 79 781 79 781 412 c 0,31,32
 781 493 781 493 764.5 568 c 128,-1,33
 748 643 748 643 716 708 c 128,-1,34
 684 773 684 773 628 812 c 128,-1,35
 572 851 572 851 500 851 c 0,36,37
 245 851 245 851 245 515 c 0,24,25
38 458 m 0,38,39
 38 677 38 677 173.5 812 c 128,-1,40
 309 947 309 947 538 947 c 0,41,42
 677 947 677 947 782.5 879 c 128,-1,43
 888 811 888 811 941.5 701 c 128,-1,44
 995 591 995 591 995 458 c 0,45,46
 995 360 995 360 961 273 c 128,-1,47
 927 186 927 186 864 118.5 c 128,-1,48
 801 51 801 51 703.5 12 c 128,-1,49
 606 -27 606 -27 488 -27 c 0,50,51
 289 -27 289 -27 163.5 112 c 128,-1,52
 38 251 38 251 38 458 c 0,38,39
EndSplineSet
Colour: ffffff
EndChar

StartChar: p
Encoding: 112 112 154
Width: 908
VWidth: 1691
Flags: MW
LayerCount: 2
Fore
SplineSet
37 0 m 1,0,-1
 48 74 l 1,1,-1
 185 121 l 1,2,-1
 185 796 l 1,3,-1
 44 826 l 1,4,-1
 54 903 l 1,5,6
 323 947 323 947 480 947 c 0,7,8
 895 947 895 947 895 654 c 0,9,10
 895 547 895 547 830 467.5 c 128,-1,11
 765 388 765 388 665.5 351.5 c 128,-1,12
 566 315 566 315 451 319 c 1,13,-1
 433 402 l 1,14,-1
 486 403 l 2,15,16
 583 405 583 405 639 466 c 128,-1,17
 695 527 695 527 695 628 c 0,18,19
 695 732 695 732 632.5 798 c 128,-1,20
 570 864 570 864 439 864 c 1,21,-1
 377 860 l 1,22,-1
 377 122 l 1,23,-1
 574 83 l 1,24,-1
 560 0 l 1,25,-1
 37 0 l 1,0,-1
EndSplineSet
Colour: ffffff
EndChar

StartChar: paragraph
Encoding: 182 182 155
Width: 1289
VWidth: 0
Flags: MW
LayerCount: 2
Back
SplineSet
307.25 1058.08 m 0,0,1
 307.25 1166.82 307.25 1166.82 356.879 1262.02 c 0
 406.507 1357.23 406.507 1357.23 489.013 1422.18 c 0
 571.519 1487.14 571.519 1487.14 679.899 1524.41 c 0
 788.279 1561.69 788.279 1561.69 904.456 1561.69 c 2,2,-1
 1133.37 1561.69 l 1,3,-1
 1133.37 1.01758 l 1,4,-1
 728.449 1.01758 l 1,5,-1
 735.57 52.9043 l 1,6,-1
 1007.21 91.5645 l 1,7,-1
 1007.21 1486.4 l 1,8,9
 955.327 1489.46 955.327 1489.46 915.647 1489.46 c 0,10,11
 679.698 1489.46 679.698 1489.46 576.392 1384.11 c 0
 473.085 1278.75 473.085 1278.75 473.085 1053 c 0,12,13
 473.085 972.472 473.085 972.472 503.138 901.386 c 0
 533.192 830.3 533.192 830.3 587.771 777.161 c 0
 642.35 724.021 642.35 724.021 724.579 693.17 c 0
 806.808 662.319 806.808 662.319 905.475 662.319 c 1,14,-1
 883.092 599.24 l 1,15,16
 779.706 599.24 779.706 599.24 697.207 611.554 c 0
 614.708 623.868 614.708 623.868 539.903 655.514 c 0
 465.098 687.16 465.098 687.16 415.301 738.101 c 0
 365.503 789.042 365.503 789.042 336.376 869.963 c 0
 307.25 950.884 307.25 950.884 307.25 1058.08 c 0,0,1
1203.57 1561.69 m 1,17,-1
 1559.65 1561.69 l 1,18,-1
 1553.55 1514.89 l 1,19,-1
 1332.78 1485.38 l 1,20,-1
 1332.78 80.373 l 1,21,-1
 1572.88 57.9912 l 1,22,-1
 1560.67 -2.03418 l 1,23,-1
 1203.57 1.01758 l 1,24,-1
 1203.57 1561.69 l 1,17,-1
EndSplineSet
Fore
SplineSet
920 0 m 1,0,-1
 920 930 l 1,1,-1
 1211 930 l 1,2,-1
 1201 853 l 1,3,-1
 1061 815 l 1,4,-1
 1061 114 l 1,5,-1
 1212 80 l 1,6,-1
 1202 0 l 1,7,-1
 920 0 l 1,0,-1
164 593 m 0,8,9
 164 701 164 701 225 778.5 c 128,-1,10
 286 856 286 856 383.5 893 c 128,-1,11
 481 930 481 930 601 930 c 2,12,-1
 841 930 l 1,13,-1
 841 0 l 1,14,-1
 467 0 l 1,15,-1
 474 74 l 1,16,-1
 683 121 l 1,17,-1
 683 838 l 1,18,19
 603 840 603 840 601 840 c 0,20,21
 556 840 556 840 517.5 830.5 c 128,-1,22
 479 821 479 821 443 799.5 c 128,-1,23
 407 778 407 778 386 734 c 128,-1,24
 365 690 365 690 365 629 c 0,25,26
 365 520 365 520 424.5 456.5 c 128,-1,27
 484 393 484 393 605 389 c 1,28,-1
 587 291 l 1,29,30
 392 291 392 291 278 365.5 c 128,-1,31
 164 440 164 440 164 593 c 0,8,9
EndSplineSet
Colour: ffffff
EndChar

StartChar: parenleft
Encoding: 40 40 156
Width: 477
VWidth: 0
Flags: MW
LayerCount: 2
Back
SplineSet
401 -317 m 1,0,-1
 322 -375 l 1,1,2
 304 -355 304 -355 292.5 -341 c 0
 281 -327 281 -327 250 -282 c 0
 219 -237 219 -237 198.5 -193.5 c 0
 178 -150 178 -150 153.5 -78.5 c 0
 129 -7 129 -7 117.5 67 c 0
 106 141 106 141 105 240.5 c 0
 104 340 104 340 121 446 c 0,3,4
 203 966 203 966 585 1255 c 1,5,-1
 624 1189 l 1,6,7
 576 1138 576 1138 537.5 1084 c 0
 499 1030 499 1030 451 942.5 c 0
 403 855 403 855 364 730.5 c 0
 325 606 325 606 301 456 c 0,8,9
 236 48 236 48 401 -317 c 1,0,-1
EndSplineSet
Fore
SplineSet
49 445 m 0,0,1
 49 553 49 553 65 652.5 c 128,-1,2
 81 752 81 752 103.5 825 c 128,-1,3
 126 898 126 898 161.5 967 c 128,-1,4
 197 1036 197 1036 225 1078 c 128,-1,5
 253 1120 253 1120 291 1162 c 128,-1,6
 329 1204 329 1204 346 1219.5 c 128,-1,7
 363 1235 363 1235 386 1255 c 1,8,-1
 436 1189 l 1,9,10
 405 1148 405 1148 380.5 1109.5 c 128,-1,11
 356 1071 356 1071 325.5 1004 c 128,-1,12
 295 937 295 937 275 864 c 128,-1,13
 255 791 255 791 241 684 c 128,-1,14
 227 577 227 577 227 455 c 0,15,16
 227 51 227 51 449 -317 c 1,17,-1
 381 -375 l 1,18,19
 360 -355 360 -355 346 -341 c 128,-1,20
 332 -327 332 -327 294 -282 c 128,-1,21
 256 -237 256 -237 228.5 -194 c 128,-1,22
 201 -151 201 -151 165 -79.5 c 128,-1,23
 129 -8 129 -8 105.5 66 c 128,-1,24
 82 140 82 140 65.5 239.5 c 128,-1,25
 49 339 49 339 49 445 c 0,0,1
EndSplineSet
Colour: ffffff
EndChar

StartChar: parenright
Encoding: 41 41 157
Width: 477
VWidth: 0
Flags: MW
LayerCount: 2
Back
SplineSet
-25 -317 m 1,0,-1
 35 -375 l 1,1,2
 58 -356 58 -356 75.5 -341 c 0
 93 -326 93 -326 137.5 -281.5 c 0
 182 -237 182 -237 217 -193.5 c 0
 252 -150 252 -150 299 -78.5 c 0
 346 -7 346 -7 381 67 c 0
 416 141 416 141 448 240.5 c 0
 480 340 480 340 497 446 c 0,3,4
 514 554 514 554 514 653.5 c 0
 514 753 514 753 502.5 826 c 0
 491 899 491 899 467 967.5 c 0
 443 1036 443 1036 421 1078 c 0
 399 1120 399 1120 368 1162 c 0
 337 1204 337 1204 322 1220 c 0
 307 1236 307 1236 287 1255 c 1,5,-1
 228 1189 l 1,6,7
 253 1148 253 1148 271 1110 c 0
 289 1072 289 1072 309 1005 c 0
 329 938 329 938 337.5 865 c 0
 346 792 346 792 342.5 685 c 0
 339 578 339 578 320 456 c 0,8,9
 255 48 255 48 -25 -317 c 1,0,-1
EndSplineSet
Fore
SplineSet
30 -317 m 1,0,1
 253 53 253 53 253 455 c 0,2,3
 253 577 253 577 239 684 c 128,-1,4
 225 791 225 791 205 864 c 128,-1,5
 185 937 185 937 154.5 1004 c 128,-1,6
 124 1071 124 1071 99.5 1109.5 c 128,-1,7
 75 1148 75 1148 44 1189 c 1,8,-1
 93 1255 l 1,9,10
 116 1235 116 1235 133 1219.5 c 128,-1,11
 150 1204 150 1204 188 1162 c 128,-1,12
 226 1120 226 1120 254.5 1078 c 128,-1,13
 283 1036 283 1036 318 967 c 128,-1,14
 353 898 353 898 376 825 c 128,-1,15
 399 752 399 752 415 652.5 c 128,-1,16
 431 553 431 553 431 445 c 0,17,18
 431 339 431 339 414.5 239.5 c 128,-1,19
 398 140 398 140 374.5 66 c 128,-1,20
 351 -8 351 -8 315 -79.5 c 128,-1,21
 279 -151 279 -151 251.5 -194 c 128,-1,22
 224 -237 224 -237 186 -282 c 128,-1,23
 148 -327 148 -327 134 -341 c 128,-1,24
 120 -355 120 -355 99 -375 c 1,25,-1
 30 -317 l 1,0,1
EndSplineSet
Colour: ffffff
EndChar

StartChar: percent
Encoding: 37 37 158
Width: 1046
VWidth: 0
Flags: MW
LayerCount: 2
Fore
SplineSet
739 220 m 0,0,1
 739 144 739 144 763.5 91.5 c 128,-1,2
 788 39 788 39 835 39 c 0,3,4
 927 39 927 39 927 222 c 0,5,6
 927 303 927 303 904.5 357 c 128,-1,7
 882 411 882 411 834 411 c 0,8,9
 739 411 739 411 739 220 c 0,0,1
590 220 m 0,10,11
 590 323 590 323 668 396.5 c 128,-1,12
 746 470 746 470 834 470 c 0,13,14
 932 470 932 470 1001.5 399 c 128,-1,15
 1071 328 1071 328 1071 217 c 0,16,17
 1071 115 1071 115 995 42.5 c 128,-1,18
 919 -30 919 -30 835 -30 c 0,19,20
 741 -30 741 -30 665.5 38 c 128,-1,21
 590 106 590 106 590 220 c 0,10,11
46 -9 m 1,22,-1
 434 440 l 1,23,-1
 750 847 l 1,24,25
 566 853 566 853 381 859 c 1,26,27
 412 831 412 831 430.5 775.5 c 128,-1,28
 449 720 449 720 449 683 c 0,29,30
 449 579 449 579 370 505 c 128,-1,31
 291 431 291 431 206 431 c 0,32,33
 113 431 113 431 39 500 c 128,-1,34
 -35 569 -35 569 -35 683 c 0,35,36
 -35 786 -35 786 43.5 860 c 128,-1,37
 122 934 122 934 210 934 c 0,38,39
 228 934 228 934 236 931 c 1,40,-1
 245 862 l 1,41,42
 221 873 221 873 204 873 c 0,43,44
 171 873 171 873 149.5 843.5 c 128,-1,45
 128 814 128 814 121 774 c 128,-1,46
 114 734 114 734 114 683 c 0,47,48
 114 605 114 605 136.5 552 c 128,-1,49
 159 499 159 499 206 499 c 0,50,51
 300 499 300 499 300 683 c 0,52,53
 300 824 300 824 266 922 c 1,54,-1
 816 932 l 1,55,-1
 989 929 l 1,56,-1
 988 904 l 1,57,-1
 597 443 l 1,58,-1
 241 -27 l 1,59,-1
 46 -9 l 1,22,-1
EndSplineSet
Colour: ffffff
EndChar

StartChar: period
Encoding: 46 46 159
Width: 383
VWidth: 0
Flags: MW
LayerCount: 2
Back
SplineSet
235 215 m 3,0,1
 280 215 280 215 307.5 182.5 c 0
 335 150 335 150 335 107 c 0,2,3
 335 45 335 45 295.5 6 c 0
 256 -33 256 -33 198 -33 c 0,4,5
 159 -33 159 -33 125.5 1 c 0
 92 35 92 35 92 74 c 0,6,7
 92 133 92 133 134 174 c 0
 176 215 176 215 235 215 c 3,0,1
EndSplineSet
Fore
SplineSet
73 92 m 0,0,1
 73 140 73 140 108 172.5 c 128,-1,2
 143 205 143 205 191 205 c 0,3,4
 241 205 241 205 277 171.5 c 128,-1,5
 313 138 313 138 313 90 c 0,6,7
 313 40 313 40 277 4.5 c 128,-1,8
 241 -31 241 -31 191 -31 c 0,9,10
 142 -31 142 -31 107.5 5 c 128,-1,11
 73 41 73 41 73 92 c 0,0,1
EndSplineSet
Colour: ffffff
EndChar

StartChar: periodcentered
Encoding: 183 183 160
Width: 406
VWidth: 0
Flags: MW
LayerCount: 2
Back
SplineSet
390 1237 m 0,0,1
 348 1237 348 1237 320.5 1204 c 0
 293 1171 293 1171 286 1125 c 0,2,3
 278 1075 278 1075 297.5 1035.5 c 0
 317 996 317 996 362 996 c 0,4,5
 402 996 402 996 428.5 1025.5 c 0
 455 1055 455 1055 464 1110 c 0,6,7
 472 1161 472 1161 453.5 1199 c 0
 435 1237 435 1237 390 1237 c 0,0,1
408 1285 m 0,8,9
 479 1285 479 1285 514 1240 c 0
 549 1195 549 1195 538 1123 c 1,10,11
 526 1052 526 1052 471 1000 c 0
 416 948 416 948 342 948 c 0,12,13
 272 948 272 948 236 992.5 c 0
 200 1037 200 1037 213 1113 c 0,14,15
 224 1183 224 1183 281 1234 c 0
 338 1285 338 1285 408 1285 c 0,8,9
EndSplineSet
Fore
SplineSet
83 504 m 0,0,1
 83 551 83 551 118.5 584.5 c 128,-1,2
 154 618 154 618 203 618 c 0,3,4
 253 618 253 618 289 585 c 128,-1,5
 325 552 325 552 325 504 c 0,6,7
 325 454 325 454 289 417.5 c 128,-1,8
 253 381 253 381 203 381 c 0,9,10
 154 381 154 381 118.5 417.5 c 128,-1,11
 83 454 83 454 83 504 c 0,0,1
EndSplineSet
Colour: ffffff
EndChar

StartChar: plus
Encoding: 43 43 161
Width: 648
VWidth: 0
Flags: MW
LayerCount: 2
Back
SplineSet
477 410 m 1,0,-1
 443 173 l 1,1,-1
 334 185 l 1,2,-1
 368 410 l 1,3,-1
 147 410 l 1,4,-1
 175 510 l 1,5,-1
 385 510 l 1,6,-1
 421 742 l 1,7,-1
 527 730 l 1,8,-1
 494 510 l 1,9,-1
 713 510 l 1,10,-1
 685 410 l 1,11,-1
 477 410 l 1,0,-1
EndSplineSet
Fore
SplineSet
50 409 m 1,0,-1
 62 510 l 1,1,-1
 271 510 l 1,2,-1
 271 741 l 1,3,-1
 380 729 l 1,4,-1
 381 510 l 1,5,-1
 601 510 l 1,6,-1
 589 409 l 1,7,-1
 381 409 l 1,8,-1
 383 174 l 1,9,-1
 271 185 l 1,10,-1
 271 409 l 1,11,-1
 50 409 l 1,0,-1
EndSplineSet
Colour: ffffff
EndChar

StartChar: plusminus
Encoding: 177 177 162
Width: 737
VWidth: 0
Flags: MW
LayerCount: 2
Back
SplineSet
117 117 m 5,0,-1
 730 124 l 1,1,-1
 697 20 l 1,2,-1
 84 13 l 1,3,-1
 117 117 l 5,0,-1
576.938 476 m 1,4,-1
 505.4 239 l 1,5,-1
 398.301 251 l 1,6,-1
 467.938 476 l 1,7,-1
 246.938 476 l 1,8,-1
 290.775 576 l 1,9,-1
 500.775 576 l 1,10,-1
 573.521 808 l 1,11,-1
 677.62 796 l 1,12,-1
 609.775 576 l 1,13,-1
 828.775 576 l 1,14,-1
 784.938 476 l 1,15,-1
 576.938 476 l 1,4,-1
EndSplineSet
Fore
SplineSet
83 475 m 1,0,-1
 95 575 l 1,1,-1
 304 575 l 1,2,-1
 304 807 l 1,3,-1
 412 795 l 1,4,-1
 414 575 l 1,5,-1
 633 575 l 1,6,-1
 621 475 l 1,7,-1
 414 475 l 1,8,-1
 415 240 l 1,9,-1
 304 251 l 1,10,-1
 304 475 l 1,11,-1
 83 475 l 1,0,-1
58 13 m 1,12,-1
 74 117 l 1,13,-1
 686 123 l 1,14,-1
 670 19 l 1,15,-1
 58 13 l 1,12,-1
EndSplineSet
Colour: ffffff
EndChar

StartChar: q
Encoding: 113 113 163
Width: 1027
VWidth: 1691
Flags: MW
LayerCount: 2
Fore
SplineSet
240 526 m 0,0,1
 240 406 240 406 274.5 304.5 c 128,-1,2
 309 203 309 203 384.5 135.5 c 128,-1,3
 460 68 460 68 564 67 c 1,4,5
 784 127 784 127 784 418 c 0,6,7
 784 525 784 525 748.5 624 c 128,-1,8
 713 723 713 723 644 788 c 128,-1,9
 575 853 575 853 489 853 c 0,10,11
 372 853 372 853 306 767 c 128,-1,12
 240 681 240 681 240 526 c 0,0,1
38 455 m 0,13,14
 38 671 38 671 175.5 809 c 128,-1,15
 313 947 313 947 536 947 c 0,16,17
 676 947 676 947 780.5 883 c 128,-1,18
 885 819 885 819 936.5 715 c 128,-1,19
 988 611 988 611 988 483 c 0,20,21
 988 309 988 309 892.5 172.5 c 128,-1,22
 797 36 797 36 633 -6 c 1,23,24
 725 -211 725 -211 965 -205 c 1,25,26
 965 -254 965 -254 956 -281 c 1,27,28
 878 -327 878 -327 787 -327 c 0,29,30
 665 -327 665 -327 594 -242 c 128,-1,31
 523 -157 523 -157 532 -30 c 1,32,33
 416 -34 416 -34 321 3.5 c 128,-1,34
 226 41 226 41 165 108.5 c 128,-1,35
 104 176 104 176 71 265 c 128,-1,36
 38 354 38 354 38 455 c 0,13,14
EndSplineSet
Colour: ffffff
EndChar

StartChar: question
Encoding: 63 63 164
Width: 642
VWidth: 0
Flags: MW
LayerCount: 2
Fore
SplineSet
159 92 m 0,0,1
 159 142 159 142 195.5 176 c 128,-1,2
 232 210 232 210 282 210 c 0,3,4
 333 210 333 210 369.5 175 c 128,-1,5
 406 140 406 140 406 90 c 0,6,7
 406 37 406 37 370 0.5 c 128,-1,8
 334 -36 334 -36 282 -36 c 128,-1,9
 230 -36 230 -36 194.5 1.5 c 128,-1,10
 159 39 159 39 159 92 c 0,0,1
47 1152 m 0,11,12
 47 1203 47 1203 92.5 1245 c 128,-1,13
 138 1287 138 1287 243 1287 c 0,14,15
 301 1287 301 1287 362 1255.5 c 128,-1,16
 423 1224 423 1224 473 1169.5 c 128,-1,17
 523 1115 523 1115 555 1033 c 128,-1,18
 587 951 587 951 587 860 c 0,19,20
 587 812 587 812 571 774 c 128,-1,21
 555 736 555 736 529.5 712 c 128,-1,22
 504 688 504 688 473.5 669 c 128,-1,23
 443 650 443 650 412.5 634 c 128,-1,24
 382 618 382 618 356.5 601.5 c 128,-1,25
 331 585 331 585 315 561.5 c 128,-1,26
 299 538 299 538 299 508 c 0,27,28
 299 455 299 455 321 383 c 1,29,-1
 246 366 l 1,30,31
 219 405 219 405 194 468.5 c 128,-1,32
 169 532 169 532 169 585 c 0,33,34
 169 630 169 630 186 664 c 128,-1,35
 203 698 203 698 230 718 c 128,-1,36
 257 738 257 738 289.5 753.5 c 128,-1,37
 322 769 322 769 355 784.5 c 128,-1,38
 388 800 388 800 415 818 c 128,-1,39
 442 836 442 836 459 867 c 128,-1,40
 476 898 476 898 476 939 c 0,41,42
 476 1004 476 1004 419 1058.5 c 128,-1,43
 362 1113 362 1113 313 1113 c 0,44,45
 255 1113 255 1113 204 1094 c 128,-1,46
 153 1075 153 1075 121 1041 c 1,47,48
 93 1052 93 1052 70 1083 c 128,-1,49
 47 1114 47 1114 47 1152 c 0,11,12
EndSplineSet
Colour: ffffff
EndChar

StartChar: questiondown
Encoding: 191 191 165
Width: 636
VWidth: 0
Flags: MW
LayerCount: 2
Fore
SplineSet
233 810 m 0,0,1
 233 862 233 862 269.5 899 c 128,-1,2
 306 936 306 936 359 936 c 0,3,4
 411 936 411 936 446.5 898 c 128,-1,5
 482 860 482 860 482 807 c 0,6,7
 482 757 482 757 445.5 723.5 c 128,-1,8
 409 690 409 690 359 690 c 0,9,10
 308 690 308 690 270.5 725 c 128,-1,11
 233 760 233 760 233 810 c 0,0,1
53 40 m 0,12,13
 53 96 53 96 74.5 138 c 128,-1,14
 96 180 96 180 128 203.5 c 128,-1,15
 160 227 160 227 197 249 c 128,-1,16
 234 271 234 271 266 287 c 128,-1,17
 298 303 298 303 319.5 330 c 128,-1,18
 341 357 341 357 341 391 c 0,19,20
 341 445 341 445 319 517 c 1,21,-1
 393 534 l 1,22,23
 420 495 420 495 445 431.5 c 128,-1,24
 470 368 470 368 470 314 c 0,25,26
 470 269 470 269 453 235 c 128,-1,27
 436 201 436 201 409 181 c 128,-1,28
 382 161 382 161 349.5 145.5 c 128,-1,29
 317 130 317 130 284.5 114.5 c 128,-1,30
 252 99 252 99 225 81 c 128,-1,31
 198 63 198 63 181 32 c 128,-1,32
 164 1 164 1 164 -40 c 0,33,34
 164 -104 164 -104 221.5 -158.5 c 128,-1,35
 279 -213 279 -213 328 -213 c 0,36,37
 453 -213 453 -213 519 -142 c 1,38,39
 547 -153 547 -153 570 -184 c 128,-1,40
 593 -215 593 -215 593 -253 c 0,41,42
 593 -304 593 -304 547 -346 c 128,-1,43
 501 -388 501 -388 396 -388 c 0,44,45
 338 -388 338 -388 277 -356 c 128,-1,46
 216 -324 216 -324 166 -269.5 c 128,-1,47
 116 -215 116 -215 84.5 -133.5 c 128,-1,48
 53 -52 53 -52 53 40 c 0,12,13
EndSplineSet
Colour: ffffff
EndChar

StartChar: quotedbl
Encoding: 34 34 166
Width: 497
VWidth: 0
Flags: MW
LayerCount: 2
Back
SplineSet
497 1303 m 1,0,-1
 677 1286 l 1,1,-1
 581 903 l 1,2,-1
 486 892 l 1,3,-1
 497 1303 l 1,0,-1
289 1303 m 1,4,-1
 469 1286 l 1,5,-1
 373 903 l 1,6,-1
 277 892 l 1,7,-1
 289 1303 l 1,4,-1
EndSplineSet
Fore
SplineSet
258 1302 m 1,0,-1
 442 1286 l 1,1,-1
 406 903 l 1,2,-1
 311 892 l 1,3,-1
 258 1302 l 1,0,-1
50 1302 m 1,4,-1
 233 1286 l 1,5,-1
 197 903 l 1,6,-1
 104 892 l 1,7,-1
 50 1302 l 1,4,-1
EndSplineSet
Colour: ffffff
EndChar

StartChar: quotedblleft
Encoding: 8220 8220 167
Width: 736
VWidth: 0
Flags: MW
LayerCount: 2
Fore
SplineSet
369 964 m 0,0,1
 369 997 369 997 374.5 1027 c 128,-1,2
 380 1057 380 1057 398.5 1097 c 128,-1,3
 417 1137 417 1137 447.5 1170 c 128,-1,4
 478 1203 478 1203 534.5 1235 c 128,-1,5
 591 1267 591 1267 666 1287 c 1,6,-1
 688 1219 l 1,7,8
 596 1195 596 1195 551.5 1146.5 c 128,-1,9
 507 1098 507 1098 507 1045 c 0,10,11
 507 1001 507 1001 539.5 969.5 c 128,-1,12
 572 938 572 938 623 938 c 0,13,14
 632 938 632 938 652 940 c 1,15,16
 666 903 666 903 666 878 c 0,17,18
 666 823 666 823 626.5 789.5 c 128,-1,19
 587 756 587 756 544 756 c 0,20,21
 516 756 516 756 487 768 c 128,-1,22
 458 780 458 780 430.5 803 c 128,-1,23
 403 826 403 826 386 868 c 128,-1,24
 369 910 369 910 369 964 c 0,0,1
54 964 m 0,25,26
 54 997 54 997 59.5 1027 c 128,-1,27
 65 1057 65 1057 83.5 1097 c 128,-1,28
 102 1137 102 1137 132.5 1170 c 128,-1,29
 163 1203 163 1203 219.5 1235 c 128,-1,30
 276 1267 276 1267 351 1287 c 1,31,-1
 372 1219 l 1,32,33
 280 1195 280 1195 235.5 1146.5 c 128,-1,34
 191 1098 191 1098 191 1045 c 0,35,36
 191 1002 191 1002 224 970 c 128,-1,37
 257 938 257 938 308 938 c 0,38,39
 318 938 318 938 338 940 c 1,40,41
 352 903 352 903 352 878 c 0,42,43
 352 823 352 823 312.5 789.5 c 128,-1,44
 273 756 273 756 230 756 c 0,45,46
 202 756 202 756 172.5 768 c 128,-1,47
 143 780 143 780 116 803 c 128,-1,48
 89 826 89 826 71.5 868 c 128,-1,49
 54 910 54 910 54 964 c 0,25,26
EndSplineSet
Colour: ffffff
EndChar

StartChar: quotedblright
Encoding: 8221 8221 168
Width: 741
VWidth: 0
Flags: MW
LayerCount: 2
Fore
SplineSet
380 824 m 1,0,1
 472 848 472 848 516.5 896.5 c 128,-1,2
 561 945 561 945 561 998 c 0,3,4
 561 1041 561 1041 528.5 1072.5 c 128,-1,5
 496 1104 496 1104 445 1104 c 0,6,7
 425 1104 425 1104 415 1103 c 1,8,9
 400 1142 400 1142 400 1166 c 0,10,11
 400 1221 400 1221 440 1253.5 c 128,-1,12
 480 1286 480 1286 523 1286 c 0,13,14
 551 1286 551 1286 580 1274 c 128,-1,15
 609 1262 609 1262 636.5 1239 c 128,-1,16
 664 1216 664 1216 681 1174 c 128,-1,17
 698 1132 698 1132 698 1078 c 0,18,19
 698 834 698 834 402 755 c 1,20,-1
 380 824 l 1,0,1
62 824 m 1,21,22
 154 848 154 848 198.5 896.5 c 128,-1,23
 243 945 243 945 243 998 c 0,24,25
 243 1042 243 1042 211 1073 c 128,-1,26
 179 1104 179 1104 128 1104 c 0,27,28
 108 1104 108 1104 98 1103 c 1,29,30
 83 1142 83 1142 83 1166 c 0,31,32
 83 1221 83 1221 123 1253.5 c 128,-1,33
 163 1286 163 1286 206 1286 c 0,34,35
 234 1286 234 1286 263 1274 c 128,-1,36
 292 1262 292 1262 319.5 1239 c 128,-1,37
 347 1216 347 1216 364 1174 c 128,-1,38
 381 1132 381 1132 381 1078 c 0,39,40
 381 834 381 834 85 755 c 1,41,-1
 62 824 l 1,21,22
EndSplineSet
Colour: ffffff
EndChar

StartChar: quoteleft
Encoding: 8216 8216 169
Width: 419
VWidth: 0
Flags: MW
LayerCount: 2
Fore
SplineSet
53 961 m 0,0,1
 53 1205 53 1205 349 1284 c 1,2,-1
 372 1215 l 1,3,4
 280 1191 280 1191 235 1142.5 c 128,-1,5
 190 1094 190 1094 190 1041 c 0,6,7
 190 997 190 997 222.5 965.5 c 128,-1,8
 255 934 255 934 306 934 c 0,9,10
 310 934 310 934 315 934.5 c 128,-1,11
 320 935 320 935 326 936 c 128,-1,12
 332 937 332 937 335 937 c 1,13,14
 351 895 351 895 351 875 c 0,15,16
 351 820 351 820 311 786.5 c 128,-1,17
 271 753 271 753 228 753 c 0,18,19
 200 753 200 753 171 765 c 128,-1,20
 142 777 142 777 114.5 800 c 128,-1,21
 87 823 87 823 70 865 c 128,-1,22
 53 907 53 907 53 961 c 0,0,1
EndSplineSet
Colour: ffffff
EndChar

StartChar: quoteright
Encoding: 8217 8217 170
Width: 425
VWidth: 0
Flags: MW
LayerCount: 2
Fore
SplineSet
62 819 m 1,0,1
 154 843 154 843 198.5 891 c 128,-1,2
 243 939 243 939 243 992 c 0,3,4
 243 1036 243 1036 211 1068 c 128,-1,5
 179 1100 179 1100 128 1100 c 0,6,7
 124 1100 124 1100 119 1099.5 c 128,-1,8
 114 1099 114 1099 107.5 1098 c 128,-1,9
 101 1097 101 1097 98 1097 c 1,10,11
 83 1136 83 1136 83 1160 c 0,12,13
 83 1215 83 1215 123 1248 c 128,-1,14
 163 1281 163 1281 206 1281 c 0,15,16
 234 1281 234 1281 263 1269 c 128,-1,17
 292 1257 292 1257 319.5 1234 c 128,-1,18
 347 1211 347 1211 364 1169 c 128,-1,19
 381 1127 381 1127 381 1073 c 0,20,21
 381 829 381 829 85 750 c 1,22,-1
 62 819 l 1,0,1
EndSplineSet
Colour: ffffff
EndChar

StartChar: quotesinglbase
Encoding: 8218 8218 171
Width: 434
VWidth: 0
Flags: MW
LayerCount: 2
Fore
SplineSet
54 -244 m 1,0,1
 146 -220 146 -220 191 -171.5 c 128,-1,2
 236 -123 236 -123 236 -70 c 0,3,4
 236 -27 236 -27 203.5 4.5 c 128,-1,5
 171 36 171 36 120 36 c 0,6,7
 110 36 110 36 90 34 c 1,8,9
 76 71 76 71 76 97 c 0,10,11
 76 152 76 152 115.5 185 c 128,-1,12
 155 218 155 218 198 218 c 0,13,14
 226 218 226 218 255 206 c 128,-1,15
 284 194 284 194 311 171 c 128,-1,16
 338 148 338 148 355 106 c 128,-1,17
 372 64 372 64 372 10 c 0,18,19
 372 -234 372 -234 77 -313 c 1,20,-1
 54 -244 l 1,0,1
EndSplineSet
Colour: ffffff
EndChar

StartChar: quotesingle
Encoding: 39 39 172
Width: 289
VWidth: 0
Flags: MW
LayerCount: 2
Back
SplineSet
306 1303 m 1,0,-1
 486 1286 l 1,1,-1
 390 903 l 1,2,-1
 294 892 l 1,3,-1
 306 1303 l 1,0,-1
EndSplineSet
Fore
SplineSet
50 1302 m 1,0,-1
 233 1286 l 1,1,-1
 197 903 l 1,2,-1
 104 892 l 1,3,-1
 50 1302 l 1,0,-1
EndSplineSet
Colour: ffffff
EndChar

StartChar: r
Encoding: 114 114 173
Width: 1045
VWidth: 1691
Flags: MW
LayerCount: 2
Fore
SplineSet
374 459 m 1,0,-1
 573 459 l 1,1,2
 624 474 624 474 658 525 c 128,-1,3
 692 576 692 576 692 652 c 0,4,5
 692 746 692 746 629.5 804.5 c 128,-1,6
 567 863 567 863 457 863 c 1,7,-1
 374 858 l 1,8,-1
 374 459 l 1,0,-1
37 0 m 1,9,-1
 48 74 l 1,10,-1
 195 121 l 1,11,-1
 195 794 l 1,12,-1
 44 824 l 1,13,-1
 54 901 l 1,14,15
 328 947 328 947 480 947 c 0,16,17
 674 947 674 947 777.5 879.5 c 128,-1,18
 881 812 881 812 881 688 c 0,19,20
 881 603 881 603 824 533.5 c 128,-1,21
 767 464 767 464 686 431 c 1,22,-1
 686 430 l 1,23,-1
 780 299 l 2,24,25
 904 125 904 125 1025 90 c 1,26,-1
 1058 80 l 1,27,-1
 1043 10 l 1,28,29
 980 -10 980 -10 913 -10 c 0,30,31
 805 -10 805 -10 718.5 66.5 c 128,-1,32
 632 143 632 143 583 274 c 2,33,-1
 548 368 l 1,34,-1
 374 368 l 1,35,-1
 374 126 l 1,36,-1
 551 83 l 1,37,-1
 541 0 l 1,38,-1
 37 0 l 1,9,-1
EndSplineSet
Colour: ffffff
EndChar

StartChar: registered
Encoding: 174 174 174
Width: 1257
VWidth: 0
Flags: MW
LayerCount: 2
Fore
SplineSet
587 1068 m 1,0,-1
 666 1068 l 1,1,2
 737 1098 737 1098 737 1170 c 0,3,4
 737 1217 737 1217 706.5 1244.5 c 128,-1,5
 676 1272 676 1272 621 1272 c 0,6,7
 613 1272 613 1272 605.5 1271.5 c 128,-1,8
 598 1271 598 1271 593 1270.5 c 128,-1,9
 588 1270 588 1270 587 1270 c 1,10,-1
 587 1068 l 1,0,-1
373 777 m 1,11,-1
 380 825 l 1,12,-1
 460 853 l 1,13,-1
 460 1248 l 1,14,-1
 379 1266 l 1,15,-1
 384 1319 l 1,16,17
 529 1341 529 1341 629 1341 c 0,18,19
 750 1341 750 1341 812 1307.5 c 128,-1,20
 874 1274 874 1274 874 1194 c 0,21,22
 874 1142 874 1142 837 1093.5 c 128,-1,23
 800 1045 800 1045 749 1028 c 1,24,-1
 748 1026 l 1,25,-1
 826 935 l 2,26,27
 863 892 863 892 885 874 c 128,-1,28
 907 856 907 856 945 839 c 1,29,-1
 962 832 l 1,30,-1
 951 777 l 1,31,32
 916 766 916 766 869 766 c 0,33,34
 806 766 806 766 767.5 802 c 128,-1,35
 729 838 729 838 687 918 c 2,36,-1
 643 1001 l 1,37,-1
 587 1001 l 1,38,-1
 587 857 l 1,39,-1
 661 830 l 1,40,-1
 656 777 l 1,41,-1
 373 777 l 1,11,-1
261 1036 m 0,42,43
 261 845 261 845 371.5 730.5 c 128,-1,44
 482 616 482 616 650 616 c 0,45,46
 823 616 823 616 941 730 c 128,-1,47
 1059 844 1059 844 1059 1016 c 0,48,49
 1059 1210 1059 1210 942.5 1328 c 128,-1,50
 826 1446 826 1446 652 1446 c 0,51,52
 480 1446 480 1446 370.5 1337.5 c 128,-1,53
 261 1229 261 1229 261 1036 c 0,42,43
173 1022 m 0,54,55
 173 1256 173 1256 308.5 1389 c 128,-1,56
 444 1522 444 1522 652 1522 c 0,57,58
 756 1522 756 1522 845.5 1490 c 128,-1,59
 935 1458 935 1458 1002.5 1397 c 128,-1,60
 1070 1336 1070 1336 1108.5 1240.5 c 128,-1,61
 1147 1145 1147 1145 1147 1026 c 0,62,63
 1147 875 1147 875 1079 763.5 c 128,-1,64
 1011 652 1011 652 897.5 596 c 128,-1,65
 784 540 784 540 642 540 c 0,66,67
 511 540 511 540 405 597.5 c 128,-1,68
 299 655 299 655 236 766 c 128,-1,69
 173 877 173 877 173 1022 c 0,54,55
EndSplineSet
Colour: ffffff
EndChar

StartChar: ring
Encoding: 730 730 175
Width: 491
VWidth: 0
Flags: MW
LayerCount: 2
Fore
SplineSet
160 1538 m 0,0,1
 160 1487 160 1487 185 1448.5 c 128,-1,2
 210 1410 210 1410 255 1410 c 0,3,4
 296 1410 296 1410 318.5 1440 c 128,-1,5
 341 1470 341 1470 341 1524 c 0,6,7
 341 1574 341 1574 315 1612 c 128,-1,8
 289 1650 289 1650 245 1650 c 0,9,10
 204 1650 204 1650 182 1617 c 128,-1,11
 160 1584 160 1584 160 1538 c 0,0,1
89 1527 m 0,12,13
 89 1597 89 1597 138 1648 c 128,-1,14
 187 1699 187 1699 256 1699 c 0,15,16
 327 1699 327 1699 369.5 1653 c 128,-1,17
 412 1607 412 1607 412 1536 c 0,18,19
 412 1466 412 1466 364.5 1413.5 c 128,-1,20
 317 1361 317 1361 243 1361 c 0,21,22
 174 1361 174 1361 131.5 1406 c 128,-1,23
 89 1451 89 1451 89 1527 c 0,12,13
EndSplineSet
Colour: ffffff
EndChar

StartChar: s
Encoding: 115 115 176
Width: 714
VWidth: 1691
Flags: MW
LayerCount: 2
Fore
SplineSet
37 59 m 1,0,-1
 70 309 l 1,1,-1
 172 295 l 1,2,-1
 191 144 l 1,3,4
 226 107 226 107 261.5 91 c 128,-1,5
 297 75 297 75 367 75 c 0,6,7
 420 75 420 75 462 102 c 128,-1,8
 504 129 504 129 504 179 c 0,9,10
 504 218 504 218 479.5 250.5 c 128,-1,11
 455 283 455 283 416 307.5 c 128,-1,12
 377 332 377 332 329.5 356 c 128,-1,13
 282 380 282 380 235 408.5 c 128,-1,14
 188 437 188 437 149 470.5 c 128,-1,15
 110 504 110 504 85.5 554 c 128,-1,16
 61 604 61 604 61 665 c 0,17,18
 61 794 61 794 159 870.5 c 128,-1,19
 257 947 257 947 390 947 c 0,20,21
 519 947 519 947 614 897 c 1,22,-1
 592 635 l 1,23,-1
 493 647 l 1,24,-1
 478 796 l 1,25,26
 463 824 463 824 430 843.5 c 128,-1,27
 397 863 397 863 357 863 c 0,28,29
 219 863 219 863 219 734 c 0,30,31
 219 692 219 692 244.5 656 c 128,-1,32
 270 620 270 620 310.5 593 c 128,-1,33
 351 566 351 566 399.5 540.5 c 128,-1,34
 448 515 448 515 497 487.5 c 128,-1,35
 546 460 546 460 586.5 428.5 c 128,-1,36
 627 397 627 397 652.5 352.5 c 128,-1,37
 678 308 678 308 678 254 c 0,38,39
 678 132 678 132 581 54 c 128,-1,40
 484 -24 484 -24 353 -24 c 0,41,42
 123 -24 123 -24 37 59 c 1,0,-1
EndSplineSet
Colour: ffffff
EndChar

StartChar: section
Encoding: 167 167 177
Width: 889
VWidth: 0
Flags: MW
LayerCount: 2
Fore
SplineSet
83 916 m 0,0,1
 83 1025 83 1025 139.5 1107 c 128,-1,2
 196 1189 196 1189 282.5 1229 c 128,-1,3
 369 1269 369 1269 470 1269 c 0,4,5
 633 1269 633 1269 753 1169 c 1,6,-1
 731 887 l 1,7,-1
 632 899 l 1,8,-1
 606 1090 l 1,9,10
 590 1122 590 1122 541.5 1153.5 c 128,-1,11
 493 1185 493 1185 438 1185 c 0,12,13
 358 1185 358 1185 306 1136.5 c 128,-1,14
 254 1088 254 1088 254 995 c 0,15,16
 254 935 254 935 289.5 886 c 128,-1,17
 325 837 325 837 381 801.5 c 128,-1,18
 437 766 437 766 504 732 c 128,-1,19
 571 698 571 698 635 659 c 128,-1,20
 699 620 699 620 749 573.5 c 128,-1,21
 799 527 799 527 824 457 c 128,-1,22
 849 387 849 387 835 300 c 1,23,-1
 429 527 l 2,24,25
 292 604 292 604 253 631 c 0,26,27
 111 730 111 730 88 857 c 0,28,29
 83 886 83 886 83 916 c 0,0,1
55 -236 m 1,30,-1
 68 31 l 1,31,-1
 172 16 l 1,32,-1
 209 -172 l 1,33,34
 238 -218 238 -218 293.5 -250 c 128,-1,35
 349 -282 349 -282 415 -282 c 0,36,37
 471 -282 471 -282 523.5 -261 c 128,-1,38
 576 -240 576 -240 614.5 -190.5 c 128,-1,39
 653 -141 653 -141 653 -71 c 0,40,41
 653 -18 653 -18 618 27.5 c 128,-1,42
 583 73 583 73 528.5 107.5 c 128,-1,43
 474 142 474 142 408 176 c 128,-1,44
 342 210 342 210 279.5 249.5 c 128,-1,45
 217 289 217 289 167.5 336 c 128,-1,46
 118 383 118 383 94 452.5 c 128,-1,47
 70 522 70 522 83 606 c 1,48,-1
 439 406 l 2,49,50
 462 393 462 393 504.5 370.5 c 128,-1,51
 547 348 547 348 574 334 c 128,-1,52
 601 320 601 320 639.5 296 c 128,-1,53
 678 272 678 272 702.5 252.5 c 128,-1,54
 727 233 727 233 755 203.5 c 128,-1,55
 783 174 783 174 799 145 c 128,-1,56
 815 116 815 116 825.5 77.5 c 128,-1,57
 836 39 836 39 836 -4 c 0,58,59
 836 -115 836 -115 772.5 -203 c 128,-1,60
 709 -291 709 -291 608.5 -337 c 128,-1,61
 508 -383 508 -383 393 -383 c 0,62,63
 290 -383 290 -383 198 -341 c 128,-1,64
 106 -299 106 -299 55 -236 c 1,30,-1
EndSplineSet
Colour: ffffff
EndChar

StartChar: semicolon
Encoding: 59 59 178
Width: 462
VWidth: 0
Flags: MW
LayerCount: 2
Back
SplineSet
342 852 m 0,0,1
 388 852 388 852 415.5 821 c 0
 443 790 443 790 436 745 c 0,2,3
 429 697 429 697 390.5 663 c 0
 352 629 352 629 306 629 c 0,4,5
 259 629 259 629 232 663.5 c 0
 205 698 205 698 213 746 c 0,6,7
 220 791 220 791 258 821.5 c 0
 296 852 296 852 342 852 c 0,0,1
243 225 m 0,8,9
 289 225 289 225 316.5 193 c 0
 344 161 344 161 337 117 c 0,10,11
 330 69 330 69 291 35.5 c 0
 252 2 252 2 206 2 c 0,12,13
 159 2 159 2 131.5 36.5 c 0
 104 71 104 71 112 119 c 0,14,15
 119 163 119 163 158 194 c 0
 197 225 197 225 243 225 c 0,8,9
EndSplineSet
Fore
SplineSet
126 744 m 0,0,1
 126 790 126 790 159.5 821.5 c 128,-1,2
 193 853 193 853 240 853 c 0,3,4
 288 853 288 853 322 821 c 128,-1,5
 356 789 356 789 356 743 c 0,6,7
 356 694 356 694 322 660 c 128,-1,8
 288 626 288 626 240 626 c 128,-1,9
 192 626 192 626 159 660.5 c 128,-1,10
 126 695 126 695 126 744 c 0,0,1
77 -230 m 1,11,12
 163 -207 163 -207 204.5 -163.5 c 128,-1,13
 246 -120 246 -120 246 -70 c 0,14,15
 246 -29 246 -29 216 1 c 128,-1,16
 186 31 186 31 138 31 c 0,17,18
 137 31 137 31 110 28 c 1,19,20
 96 61 96 61 96 87 c 0,21,22
 96 138 96 138 132.5 168.5 c 128,-1,23
 169 199 169 199 210 199 c 0,24,25
 268 199 268 199 320 149.5 c 128,-1,26
 372 100 372 100 372 6 c 0,27,28
 372 -223 372 -223 98 -295 c 1,29,-1
 77 -230 l 1,11,12
EndSplineSet
Colour: ffffff
EndChar

StartChar: seven
Encoding: 55 55 179
Width: 706
VWidth: 0
Flags: MW
LayerCount: 2
Back
SplineSet
390 1006 m 1,0,-1
 320 872 l 1,1,-1
 254 885 l 1,2,-1
 315 1154 l 1,3,-1
 1070 1154 l 1,4,-1
 1065 1103 l 1,5,-1
 486 -33 l 1,6,-1
 398 -3 l 1,7,-1
 892 1006 l 1,8,-1
 390 1006 l 1,0,-1
EndSplineSet
Fore
SplineSet
15 617 m 1,0,-1
 55 945 l 1,1,-1
 693 945 l 1,2,-1
 706 850 l 1,3,4
 521 515 521 515 458 383 c 0,5,6
 301 52 301 52 257 -256 c 0,7,8
 254 -275 254 -275 252 -295 c 1,9,10
 247 -295 247 -295 229 -299.5 c 128,-1,11
 211 -304 211 -304 206 -304 c 0,12,13
 145 -304 145 -304 114.5 -272 c 128,-1,14
 84 -240 84 -240 84 -189 c 0,15,16
 84 -19 84 -19 565 786 c 1,17,-1
 147 786 l 1,18,-1
 83 604 l 1,19,-1
 15 617 l 1,0,-1
EndSplineSet
Colour: ffffff
EndChar

StartChar: six
Encoding: 54 54 180
Width: 796
VWidth: 0
Flags: MW
LayerCount: 2
Back
SplineSet
398 595 m 1,0,1
 410 607 410 607 446 631 c 0,2,3
 474 650 474 650 509 662 c 0,4,5
 562 680 562 680 580 684 c 0,6,7
 620 692 620 692 657 692 c 0,8,9
 724 692 724 692 773 667 c 0,10,11
 824 641 824 641 859 598 c 0,12,13
 894 555 894 555 912 502 c 0,14,15
 930 448 930 448 930 386 c 0,16,17
 930 306 930 306 892 230 c 0,18,19
 853 151 853 151 793 99 c 0,20,21
 729 43 729 43 651 12 c 0,22,23
 568 -21 568 -21 484 -21 c 0,24,25
 393 -21 393 -21 337 7 c 0,26,27
 278 37 278 37 238 84 c 0,28,29
 201 128 201 128 182 197 c 0,30,31
 165 258 165 258 165 334 c 0,32,33
 165 420 165 420 193 515 c 0,34,35
 217 598 217 598 271 692 c 0,36,37
 316 771 316 771 390 855 c 0,38,39
 466 941 466 941 535 997 c 0,40,41
 625 1070 625 1070 700 1110 c 0,42,43
 798 1162 798 1162 874 1186 c 1,44,-1
 902 1130 l 1,45,46
 801 1085 801 1085 717 1024 c 0,47,48
 628 959 628 959 568 892 c 0,49,50
 506 823 506 823 459 743 c 0,51,52
 412 664 412 664 388 595 c 1,53,-1
 398 595 l 1,0,1
504 59 m 0,54,55
 578 59 578 59 628 88 c 0,56,57
 678 117 678 117 704 160 c 0,58,59
 729 202 729 202 740 258 c 0,60,61
 748 299 748 299 748 362 c 0,62,63
 748 402 748 402 737 446 c 0,64,65
 726 489 726 489 705 519 c 0,66,67
 681 552 681 552 651 571 c 0,68,69
 619 591 619 591 573 591 c 0,70,71
 539 591 539 591 515 585 c 0,72,73
 480 576 480 576 457 566 c 0,74,75
 421 550 421 550 406 542 c 0,76,77
 392 535 392 535 375 515 c 1,78,79
 372 503 372 503 366 475 c 0
 360 447 360 447 357 434 c 0,80,81
 347 390 347 390 347 335 c 0,82,83
 347 280 347 280 357 233 c 0,84,85
 368 181 368 181 386 145 c 0,86,87
 406 106 406 106 436 83 c 0,88,89
 468 59 468 59 504 59 c 0,54,55
EndSplineSet
Fore
SplineSet
232 406 m 0,0,1
 232 316 232 316 249.5 240 c 128,-1,2
 267 164 267 164 306.5 112.5 c 128,-1,3
 346 61 346 61 402 61 c 0,4,5
 480 61 480 61 526 136 c 128,-1,6
 572 211 572 211 572 328 c 0,7,8
 572 383 572 383 564 430.5 c 128,-1,9
 556 478 556 478 537.5 521.5 c 128,-1,10
 519 565 519 565 483 590 c 128,-1,11
 447 615 447 615 396 615 c 128,-1,12
 345 615 345 615 302.5 590 c 128,-1,13
 260 565 260 565 239 534 c 1,14,15
 232 457 232 457 232 406 c 0,0,1
37 421 m 0,16,17
 37 585 37 585 118.5 754 c 128,-1,18
 200 923 200 923 336.5 1051 c 128,-1,19
 473 1179 473 1179 628 1229 c 1,20,-1
 663 1171 l 1,21,22
 569 1128 569 1128 493.5 1063 c 128,-1,23
 418 998 418 998 369 923 c 128,-1,24
 320 848 320 848 289 772.5 c 128,-1,25
 258 697 258 697 242 618 c 1,26,-1
 252 618 l 1,27,28
 295 668 295 668 353.5 695 c 128,-1,29
 412 722 412 722 475 722 c 0,30,31
 605 722 605 722 682 628 c 128,-1,32
 759 534 759 534 759 390 c 0,33,34
 759 282 759 282 708 187 c 128,-1,35
 657 92 657 92 570.5 35.5 c 128,-1,36
 484 -21 484 -21 385 -21 c 0,37,38
 292 -21 292 -21 223 14.5 c 128,-1,39
 154 50 154 50 114.5 113 c 128,-1,40
 75 176 75 176 56 252.5 c 128,-1,41
 37 329 37 329 37 421 c 0,16,17
EndSplineSet
Colour: ffffff
EndChar

StartChar: slash
Encoding: 47 47 181
Width: 676
VWidth: 0
Flags: MW
LayerCount: 2
Fore
SplineSet
44 -363 m 1,0,-1
 506 1235 l 1,1,-1
 638 1244 l 1,2,-1
 172 -355 l 1,3,-1
 44 -363 l 1,0,-1
EndSplineSet
Colour: ffffff
EndChar

StartChar: softhyphen
Encoding: 173 173 182
Width: 580
VWidth: 0
Flags: MW
LayerCount: 2
Back
SplineSet
170 522 m 1,0,-1
 588 581 l 1,1,-1
 562 466 l 1,2,-1
 144 406 l 1,3,-1
 170 522 l 1,0,-1
EndSplineSet
Fore
SplineSet
85 406 m 1,0,-1
 92 521 l 1,1,-1
 500 581 l 1,2,-1
 492 465 l 1,3,-1
 85 406 l 1,0,-1
EndSplineSet
Colour: ffffff
EndChar

StartChar: sterling
Encoding: 163 163 184
Width: 1283
VWidth: 0
Flags: MW
LayerCount: 2
Back
SplineSet
1093 1211 m 1,0,-1
 1012 895 l 1,1,-1
 928 908 l 1,2,-1
 922 1121 l 1,3,4
 884 1144 884 1144 841 1144 c 0,5,6
 719 1144 719 1144 663.5 1053 c 0
 608 962 608 962 563 704 c 1,7,-1
 557 656 l 1,8,-1
 778 669 l 1,9,-1
 750 568 l 1,10,-1
 538 555 l 1,11,-1
 530 515 l 1,12,13
 476 208 476 208 405 99 c 1,14,-1
 864 96 l 1,15,-1
 1034 348 l 1,16,-1
 1118 330 l 1,17,-1
 1027 0 l 1,18,-1
 38 0 l 1,19,-1
 58 74 l 1,20,-1
 233 121 l 1,21,22
 266 191 266 191 284.5 262.5 c 0
 303 334 303 334 325 461 c 1,23,-1
 342 548 l 1,24,-1
 162 538 l 1,25,-1
 188 639 l 1,26,-1
 360 649 l 1,27,-1
 385 786 l 1,28,29
 429 1018 429 1018 558.5 1134 c 0
 688 1250 688 1250 867 1250 c 0,30,31
 1006 1250 1006 1250 1093 1211 c 1,0,-1
EndSplineSet
Fore
SplineSet
110 0 m 1,0,-1
 116 74 l 1,1,-1
 284 113 l 1,2,3
 324 194 324 194 324 334 c 2,4,-1
 324 406 l 1,5,-1
 146 396 l 1,6,-1
 158 488 l 1,7,-1
 328 498 l 1,8,-1
 330 611 l 1,9,10
 334 776 334 776 426.5 862.5 c 128,-1,11
 519 949 519 949 682 948 c 0,12,13
 821 947 821 947 892 900.5 c 128,-1,14
 963 854 963 854 963 771 c 0,15,16
 963 717 963 717 917 684 c 128,-1,17
 871 651 871 651 814 647 c 1,18,19
 797 761 797 761 763 812 c 128,-1,20
 729 863 729 863 664 863 c 0,21,22
 623 863 623 863 596.5 853 c 128,-1,23
 570 843 570 843 553 824 c 128,-1,24
 536 805 536 805 528 765.5 c 128,-1,25
 520 726 520 726 517 681 c 128,-1,26
 514 636 514 636 514 560 c 2,27,-1
 514 506 l 1,28,-1
 751 520 l 1,29,-1
 741 429 l 1,30,-1
 512 412 l 1,31,-1
 512 388 l 2,32,33
 512 176 512 176 448 98 c 1,34,-1
 821 98 l 1,35,-1
 928 334 l 1,36,-1
 1010 313 l 1,37,-1
 985 0 l 1,38,-1
 110 0 l 1,0,-1
EndSplineSet
Colour: ffffff
EndChar

StartChar: t
Encoding: 116 116 185
Width: 936
VWidth: 1691
Flags: MW
LayerCount: 2
Fore
SplineSet
41 930 m 1,0,-1
 897 930 l 1,1,-1
 867 641 l 1,2,-1
 772 656 l 1,3,-1
 733 838 l 1,4,-1
 563 838 l 1,5,-1
 563 114 l 1,6,-1
 728 80 l 1,7,-1
 714 0 l 1,8,-1
 225 0 l 1,9,-1
 232 74 l 1,10,-1
 371 121 l 1,11,-1
 371 838 l 1,12,-1
 185 838 l 1,13,-1
 138 645 l 1,14,-1
 47 658 l 1,15,-1
 41 930 l 1,0,-1
EndSplineSet
Colour: ffffff
EndChar

StartChar: thorn
Encoding: 254 254 186
Width: 977
VWidth: 1691
Flags: MW
LayerCount: 2
Fore
SplineSet
80 854 m 1,0,-1
 91 930 l 1,1,-1
 582 930 l 1,2,-1
 572 854 l 1,3,-1
 426 816 l 1,4,-1
 426 766 l 1,5,6
 477 769 477 769 523 769 c 0,7,8
 918 769 918 769 918 496 c 0,9,10
 918 395 918 395 853 320.5 c 128,-1,11
 788 246 788 246 688 211.5 c 128,-1,12
 588 177 588 177 474 181 c 1,13,-1
 456 264 l 1,14,-1
 509 265 l 2,15,16
 605 267 605 267 661 322.5 c 128,-1,17
 717 378 717 378 717 470 c 0,18,19
 717 565 717 565 659.5 625.5 c 128,-1,20
 602 686 602 686 482 686 c 0,21,22
 462 686 462 686 426 683 c 1,23,-1
 426 114 l 1,24,-1
 577 80 l 1,25,-1
 567 0 l 1,26,-1
 87 0 l 1,27,-1
 95 74 l 1,28,-1
 232 121 l 1,29,-1
 232 812 l 1,30,-1
 80 854 l 1,0,-1
EndSplineSet
Colour: ffffff
EndChar

StartChar: three
Encoding: 51 51 187
Width: 692
VWidth: 0
Flags: MW
LayerCount: 2
Back
SplineSet
258 208 m 1,0,1
 258 196 258 196 271 168 c 0,2,3
 285 139 285 139 304 117 c 0,4,5
 325 93 325 93 357 74 c 0,6,7
 387 56 387 56 421 56 c 0,8,9
 511 56 511 56 565 86 c 0,10,11
 620 116 620 116 647 159 c 0,12,13
 672 198 672 198 680 243 c 0,14,15
 689 293 689 293 689 310 c 0,16,17
 689 347 689 347 670 391 c 0,18,19
 649 441 649 441 621 466 c 0,20,21
 583 501 583 501 537 519 c 0,22,23
 484 540 484 540 424 540 c 2,24,-1
 408 540 l 1,25,-1
 408 604 l 1,26,27
 416 606 416 606 446 618 c 0,28,29
 475 629 475 629 509 647 c 0,30,31
 555 671 555 671 583 690 c 0,32,33
 626 719 626 719 654 750 c 0,34,35
 692 791 692 791 707 822 c 0,36,37
 727 862 727 862 727 913 c 0,38,39
 727 940 727 940 720 964 c 0,40,41
 712 992 712 992 694 1011 c 0,42,43
 674 1033 674 1033 649 1044 c 0,44,45
 624 1055 624 1055 580 1055 c 0,46,47
 503 1055 503 1055 451 1014 c 0,48,49
 400 974 400 974 363 907 c 1,50,-1
 294 931 l 1,51,52
 306 969 306 969 340 1014 c 0,53,54
 377 1062 377 1062 423 1097 c 0,55,56
 470 1133 470 1133 532 1159 c 0,57,58
 591 1184 591 1184 657 1184 c 0,59,60
 714 1184 714 1184 755 1168 c 0,61,62
 808 1148 808 1148 836 1123 c 0,63,64
 867 1096 867 1096 888 1054 c 0,65,66
 908 1014 908 1014 908 964 c 0,67,68
 908 896 908 896 885 849 c 0,69,70
 860 798 860 798 822 758 c 0,71,72
 787 721 787 721 735 690 c 0,73,74
 684 659 684 659 634 642 c 1,75,-1
 633 631 l 1,76,77
 692 624 692 624 737 598 c 0,78,79
 780 574 780 574 811 538 c 0,80,81
 840 505 840 505 855 462 c 0,82,83
 870 420 870 420 870 377 c 0,84,85
 870 293 870 293 829 220 c 0,86,87
 785 141 785 141 718 89 c 0,88,89
 648 34 648 34 555 3 c 0,90,91
 456 -30 456 -30 358 -30 c 0,92,93
 298 -30 298 -30 253 -18 c 0,94,95
 208 -6 208 -6 178 12 c 0,96,97
 150 29 150 29 134 53 c 0,98,99
 119 76 119 76 119 99 c 0,100,101
 119 138 119 138 155 168 c 0,102,103
 194 201 194 201 258 208 c 1,0,1
EndSplineSet
Fore
SplineSet
-44 -159 m 0,0,1
 -44 -119 -44 -119 -5.5 -81.5 c 128,-1,2
 33 -44 33 -44 92 -38 c 1,3,4
 96 -67 96 -67 109.5 -102.5 c 128,-1,5
 123 -138 123 -138 157 -174 c 128,-1,6
 191 -210 191 -210 235 -210 c 0,7,8
 301 -210 301 -210 348.5 -189.5 c 128,-1,9
 396 -169 396 -169 420.5 -133 c 128,-1,10
 445 -97 445 -97 455.5 -57 c 128,-1,11
 466 -17 466 -17 466 30 c 0,12,13
 466 133 466 133 388.5 216 c 128,-1,14
 311 299 311 299 179 303 c 1,15,-1
 169 370 l 1,16,17
 221 387 221 387 265.5 412.5 c 128,-1,18
 310 438 310 438 350 475.5 c 128,-1,19
 390 513 390 513 413 567.5 c 128,-1,20
 436 622 436 622 436 687 c 0,21,22
 436 759 436 759 404.5 808 c 128,-1,23
 373 857 373 857 310 857 c 0,24,25
 235 857 235 857 189 815.5 c 128,-1,26
 143 774 143 774 112 698 c 1,27,-1
 34 725 l 1,28,29
 44 780 44 780 88 840 c 128,-1,30
 132 900 132 900 208 945.5 c 128,-1,31
 284 991 284 991 368 991 c 0,32,33
 480 991 480 991 551.5 919.5 c 128,-1,34
 623 848 623 848 623 739 c 0,35,36
 623 683 623 683 598 627.5 c 128,-1,37
 573 572 573 572 534.5 530 c 128,-1,38
 496 488 496 488 456 457.5 c 128,-1,39
 416 427 416 427 381 412 c 1,40,-1
 381 401 l 1,41,42
 494 388 494 388 574 294.5 c 128,-1,43
 654 201 654 201 654 83 c 0,44,45
 654 -63 654 -63 524.5 -180 c 128,-1,46
 395 -297 395 -297 215 -297 c 0,47,48
 93 -297 93 -297 24.5 -255.5 c 128,-1,49
 -44 -214 -44 -214 -44 -159 c 0,0,1
EndSplineSet
Colour: ffffff
EndChar

StartChar: threequarters
Encoding: 190 190 188
Width: 1736
VWidth: 0
Flags: MW
LayerCount: 2
Fore
SplineSet
800 272 m 1,0,-1
 990 272 l 1,1,-1
 990 508 l 1,2,-1
 800 272 l 1,0,-1
693 270 m 1,3,-1
 1103 737 l 1,4,-1
 1160 726 l 1,5,6
 1151 598 1151 598 1151 430 c 2,7,-1
 1151 272 l 1,8,-1
 1299 272 l 1,9,-1
 1290 175 l 1,10,-1
 1151 175 l 1,11,-1
 1151 83 l 1,12,-1
 1272 65 l 1,13,-1
 1266 0 l 1,14,-1
 852 0 l 1,15,-1
 856 58 l 1,16,-1
 993 85 l 1,17,-1
 993 178 l 1,18,-1
 706 178 l 1,19,-1
 693 270 l 1,3,-1
173 -10 m 1,20,-1
 580 588 l 1,21,-1
 971 1210 l 1,22,-1
 1147 1207 l 1,23,-1
 1145 1178 l 1,24,-1
 744 591 l 1,25,-1
 373 -32 l 1,26,-1
 173 -10 l 1,20,-1
-31 546 m 1,27,-1
 -1 745 l 1,28,-1
 74 737 l 1,29,-1
 82 602 l 1,30,31
 116 562 116 562 181 562 c 0,32,33
 251 562 251 562 291.5 600 c 128,-1,34
 332 638 332 638 332 702 c 0,35,36
 332 756 332 756 274.5 794 c 128,-1,37
 217 832 217 832 128 832 c 1,38,-1
 112 891 l 1,39,40
 132 897 132 897 150 904 c 128,-1,41
 168 911 168 911 196.5 926 c 128,-1,42
 225 941 225 941 245.5 957.5 c 128,-1,43
 266 974 266 974 281 999.5 c 128,-1,44
 296 1025 296 1025 296 1053 c 0,45,46
 296 1100 296 1100 268 1136 c 128,-1,47
 240 1172 240 1172 189 1172 c 0,48,49
 130 1172 130 1172 106 1150 c 1,50,-1
 82 993 l 1,51,-1
 6 999 l 1,52,-1
 -6 1170 l 1,53,54
 18 1204 18 1204 93 1233 c 128,-1,55
 168 1262 168 1262 243 1262 c 0,56,57
 348 1262 348 1262 415.5 1219.5 c 128,-1,58
 483 1177 483 1177 483 1100 c 0,59,60
 483 962 483 962 304 910 c 1,61,-1
 304 903 l 1,62,63
 412 892 412 892 467 844.5 c 128,-1,64
 522 797 522 797 522 719 c 0,65,66
 522 618 522 618 420.5 548 c 128,-1,67
 319 478 319 478 177 478 c 0,68,69
 103 478 103 478 43.5 496.5 c 128,-1,70
 -16 515 -16 515 -31 546 c 1,27,-1
EndSplineSet
Colour: ffffff
EndChar

StartChar: three.superior
Encoding: 179 179 189
Width: 635
VWidth: 0
Flags: MW
LayerCount: 2
Fore
SplineSet
21 563 m 1,0,-1
 51 762 l 1,1,-1
 126 754 l 1,2,-1
 134 619 l 1,3,4
 168 579 168 579 233 579 c 0,5,6
 303 579 303 579 343.5 617 c 128,-1,7
 384 655 384 655 384 719 c 0,8,9
 384 773 384 773 326.5 811 c 128,-1,10
 269 849 269 849 180 849 c 1,11,-1
 164 908 l 1,12,13
 348 966 348 966 348 1070 c 0,14,15
 348 1117 348 1117 320 1153 c 128,-1,16
 292 1189 292 1189 241 1189 c 0,17,18
 182 1189 182 1189 158 1167 c 1,19,-1
 134 1010 l 1,20,-1
 58 1016 l 1,21,-1
 46 1187 l 1,22,23
 70 1221 70 1221 145 1250 c 128,-1,24
 220 1279 220 1279 295 1279 c 0,25,26
 400 1279 400 1279 467.5 1236.5 c 128,-1,27
 535 1194 535 1194 535 1117 c 0,28,29
 535 979 535 979 356 927 c 1,30,-1
 356 920 l 1,31,32
 464 909 464 909 519 861.5 c 128,-1,33
 574 814 574 814 574 736 c 0,34,35
 574 635 574 635 472.5 565 c 128,-1,36
 371 495 371 495 229 495 c 0,37,38
 155 495 155 495 95.5 513.5 c 128,-1,39
 36 532 36 532 21 563 c 1,0,-1
EndSplineSet
Colour: ffffff
EndChar

StartChar: tilde
Encoding: 732 732 190
Width: 649
VWidth: 0
Flags: MW
LayerCount: 2
Fore
SplineSet
92 1379 m 1,0,1
 94 1385 94 1385 97 1395.5 c 128,-1,2
 100 1406 100 1406 112 1432 c 128,-1,3
 124 1458 124 1458 138.5 1477 c 128,-1,4
 153 1496 153 1496 177 1510 c 128,-1,5
 201 1524 201 1524 228 1521 c 2,6,-1
 454 1492 l 2,7,8
 465 1491 465 1491 479.5 1501.5 c 128,-1,9
 494 1512 494 1512 502 1522 c 2,10,-1
 510 1532 l 1,11,-1
 559 1530 l 1,12,13
 554.5 1516.5 l 130,-1,14
 550 1503 550 1503 536.5 1476.5 c 128,-1,15
 523 1450 523 1450 507.5 1431 c 128,-1,16
 492 1412 492 1412 467 1397.5 c 128,-1,17
 442 1383 442 1383 415 1387 c 2,18,-1
 190 1419 l 2,19,20
 178 1421 178 1421 163 1408.5 c 128,-1,21
 148 1396 148 1396 140 1383 c 2,22,-1
 131 1370 l 1,23,-1
 92 1379 l 1,0,1
EndSplineSet
Colour: ffffff
EndChar

StartChar: two
Encoding: 50 50 191
Width: 791
VWidth: 0
Flags: MW
LayerCount: 2
Back
SplineSet
94 2 m 1,0,-1
 102 102 l 1,1,-1
 363 302 l 2,2,3
 431 354 431 354 509 418 c 0,4,5
 586 481 586 481 644 548 c 0,6,7
 705 618 705 618 742 694 c 0,8,9
 779 769 779 769 779 857 c 0,10,11
 779 901 779 901 770 931 c 0,12,13
 758 971 758 971 742 993 c 0,14,15
 725 1017 725 1017 689 1034 c 0,16,17
 657 1049 657 1049 606 1049 c 0,18,19
 558 1049 558 1049 512 1026 c 0,20,21
 468 1004 468 1004 433 966 c 0,22,23
 389 919 389 919 367 885 c 0,24,25
 337 840 337 840 315 799 c 1,26,-1
 239 829 l 1,27,28
 262 891 262 891 307 953 c 0,29,30
 356 1019 356 1019 410 1067 c 0,31,32
 466 1116 466 1116 538 1149 c 0,33,34
 608 1181 608 1181 684 1181 c 0,35,36
 824 1181 824 1181 892 1110 c 0,37,38
 961 1038 961 1038 961 907 c 0,39,40
 961 789 961 789 898 685 c 0,41,42
 844 595 844 595 746 499 c 0,43,44
 667 422 667 422 555 340 c 0,45,46
 440 256 440 256 381 208 c 1,47,-1
 296 135 l 1,48,-1
 750 135 l 1,49,-1
 867 306 l 1,50,-1
 935 296 l 1,51,-1
 839 0 l 1,52,-1
 94 2 l 1,0,-1
EndSplineSet
Fore
SplineSet
40 102 m 1,0,-1
 295 300 l 1,1,2
 497 459 497 459 497 658 c 0,3,4
 497 759 497 759 455.5 813 c 128,-1,5
 414 867 414 867 343 867 c 0,6,7
 279 867 279 867 218.5 811.5 c 128,-1,8
 158 756 158 756 133 675 c 1,9,-1
 58 704 l 1,10,11
 64 742 64 742 92 789 c 128,-1,12
 120 836 120 836 164.5 881.5 c 128,-1,13
 209 927 209 927 276 958.5 c 128,-1,14
 343 990 343 990 417 991 c 0,15,16
 553 993 553 993 627.5 910.5 c 128,-1,17
 702 828 702 828 702 703 c 0,18,19
 702 633 702 633 672.5 565 c 128,-1,20
 643 497 643 497 586.5 433.5 c 128,-1,21
 530 370 530 370 470 318 c 128,-1,22
 410 266 410 266 328 206 c 1,23,-1
 244 147 l 1,24,-1
 615 147 l 1,25,-1
 693 301 l 1,26,-1
 764 292 l 1,27,-1
 710 0 l 1,28,-1
 47 0 l 1,29,-1
 40 102 l 1,0,-1
EndSplineSet
Colour: ffffff
EndChar

StartChar: two.superior
Encoding: 178 178 192
Width: 622
VWidth: 0
Flags: MW
LayerCount: 2
Fore
SplineSet
27 531 m 1,0,-1
 35 638 l 1,1,-1
 190 761 l 1,2,3
 373 911 373 911 373 1005 c 0,4,5
 373 1036 373 1036 369 1059.5 c 128,-1,6
 365 1083 365 1083 354 1105.5 c 128,-1,7
 343 1128 343 1128 320.5 1140.5 c 128,-1,8
 298 1153 298 1153 264 1153 c 0,9,10
 228 1153 228 1153 200 1136.5 c 128,-1,11
 172 1120 172 1120 160 1095 c 1,12,-1
 138 966 l 1,13,-1
 70 971 l 1,14,-1
 55 1141 l 1,15,16
 84 1195 84 1195 164.5 1226 c 128,-1,17
 245 1257 245 1257 328 1257 c 0,18,19
 443 1257 443 1257 506 1208.5 c 128,-1,20
 569 1160 569 1160 569 1071 c 0,21,22
 569 1016 569 1016 545 964.5 c 128,-1,23
 521 913 521 913 473 865 c 128,-1,24
 425 817 425 817 376.5 779.5 c 128,-1,25
 328 742 328 742 258 696 c 2,26,-1
 191 652 l 1,27,-1
 461 652 l 1,28,-1
 540 805 l 1,29,-1
 597 784 l 1,30,-1
 578 531 l 1,31,-1
 27 531 l 1,0,-1
EndSplineSet
Colour: ffffff
EndChar

StartChar: u
Encoding: 117 117 193
Width: 1152
VWidth: 1691
Flags: MW
LayerCount: 2
Fore
SplineSet
46 854 m 1,0,-1
 59 930 l 1,1,-1
 541 930 l 1,2,-1
 532 854 l 1,3,-1
 393 816 l 1,4,-1
 393 360 l 2,5,6
 393 105 393 105 612 105 c 0,7,8
 724 105 724 105 780.5 155 c 128,-1,9
 837 205 837 205 838 332 c 2,10,-1
 841 812 l 1,11,-1
 688 854 l 1,12,-1
 698 930 l 1,13,-1
 1116 930 l 1,14,-1
 1105 854 l 1,15,-1
 969 816 l 1,16,-1
 964 365 l 2,17,18
 962 157 962 157 860 65 c 128,-1,19
 758 -27 758 -27 562 -27 c 0,20,21
 200 -27 200 -27 200 319 c 2,22,-1
 200 812 l 1,23,-1
 46 854 l 1,0,-1
EndSplineSet
Colour: ffffff
EndChar

StartChar: uacute
Encoding: 250 250 194
Width: 1152
VWidth: 0
Flags: MW
LayerCount: 2
Fore
SplineSet
540 1054 m 1,0,-1
 664 1379 l 1,1,-1
 774 1340 l 1,2,-1
 592 1022 l 1,3,-1
 540 1054 l 1,0,-1
46 854 m 1,4,-1
 59 930 l 1,5,-1
 541 930 l 1,6,-1
 532 854 l 1,7,-1
 393 816 l 1,8,-1
 393 360 l 2,9,10
 393 105 393 105 612 105 c 0,11,12
 724 105 724 105 780.5 155 c 128,-1,13
 837 205 837 205 838 332 c 2,14,-1
 841 812 l 1,15,-1
 688 854 l 1,16,-1
 698 930 l 1,17,-1
 1116 930 l 1,18,-1
 1105 854 l 1,19,-1
 969 816 l 1,20,-1
 964 365 l 2,21,22
 962 157 962 157 860 65 c 128,-1,23
 758 -27 758 -27 562 -27 c 0,24,25
 200 -27 200 -27 200 319 c 2,26,-1
 200 812 l 1,27,-1
 46 854 l 1,4,-1
EndSplineSet
Colour: ffffff
EndChar

StartChar: ucircumflex
Encoding: 251 251 195
Width: 1152
VWidth: 0
Flags: MW
LayerCount: 2
Fore
SplineSet
391 1055 m 1,0,-1
 559 1234 l 1,1,-1
 614 1249 l 1,2,-1
 792 1063 l 1,3,-1
 743 1026 l 1,4,-1
 580 1136 l 1,5,-1
 569 1136 l 1,6,-1
 430 1025 l 1,7,-1
 391 1055 l 1,0,-1
46 854 m 1,8,-1
 59 930 l 1,9,-1
 541 930 l 1,10,-1
 532 854 l 1,11,-1
 393 816 l 1,12,-1
 393 360 l 2,13,14
 393 105 393 105 612 105 c 0,15,16
 724 105 724 105 780.5 155 c 128,-1,17
 837 205 837 205 838 332 c 2,18,-1
 841 812 l 1,19,-1
 688 854 l 1,20,-1
 698 930 l 1,21,-1
 1116 930 l 1,22,-1
 1105 854 l 1,23,-1
 969 816 l 1,24,-1
 964 365 l 2,25,26
 962 157 962 157 860 65 c 128,-1,27
 758 -27 758 -27 562 -27 c 0,28,29
 200 -27 200 -27 200 319 c 2,30,-1
 200 812 l 1,31,-1
 46 854 l 1,8,-1
EndSplineSet
Colour: ffffff
EndChar

StartChar: udieresis
Encoding: 252 252 196
Width: 1152
VWidth: 0
Flags: MW
LayerCount: 2
Fore
SplineSet
650 1141 m 0,0,1
 650 1174 650 1174 676.5 1196 c 128,-1,2
 703 1218 703 1218 735 1218 c 0,3,4
 769 1218 769 1218 795.5 1196 c 128,-1,5
 822 1174 822 1174 822 1141 c 0,6,7
 822 1106 822 1106 795.5 1082.5 c 128,-1,8
 769 1059 769 1059 735 1059 c 128,-1,9
 701 1059 701 1059 675.5 1082.5 c 128,-1,10
 650 1106 650 1106 650 1141 c 0,0,1
382 1141 m 0,11,12
 382 1174 382 1174 408.5 1196 c 128,-1,13
 435 1218 435 1218 467 1218 c 0,14,15
 501 1218 501 1218 527 1196 c 128,-1,16
 553 1174 553 1174 553 1141 c 0,17,18
 553 1105 553 1105 527 1082 c 128,-1,19
 501 1059 501 1059 467 1059 c 128,-1,20
 433 1059 433 1059 407.5 1082.5 c 128,-1,21
 382 1106 382 1106 382 1141 c 0,11,12
46 854 m 1,22,-1
 59 930 l 1,23,-1
 541 930 l 1,24,-1
 532 854 l 1,25,-1
 393 816 l 1,26,-1
 393 360 l 2,27,28
 393 105 393 105 612 105 c 0,29,30
 724 105 724 105 780.5 155 c 128,-1,31
 837 205 837 205 838 332 c 2,32,-1
 841 812 l 1,33,-1
 688 854 l 1,34,-1
 698 930 l 1,35,-1
 1116 930 l 1,36,-1
 1105 854 l 1,37,-1
 969 816 l 1,38,-1
 964 365 l 2,39,40
 962 157 962 157 860 65 c 128,-1,41
 758 -27 758 -27 562 -27 c 0,42,43
 200 -27 200 -27 200 319 c 2,44,-1
 200 812 l 1,45,-1
 46 854 l 1,22,-1
EndSplineSet
Colour: ffffff
EndChar

StartChar: ugrave
Encoding: 249 249 197
Width: 1152
VWidth: 0
Flags: M
LayerCount: 2
Fore
SplineSet
392 1342 m 1,0,-1
 506 1380 l 1,1,-1
 638 1047 l 1,2,-1
 582 1012 l 1,3,-1
 392 1342 l 1,0,-1
46 854 m 1,4,-1
 59 930 l 1,5,-1
 541 930 l 1,6,-1
 532 854 l 1,7,-1
 393 816 l 1,8,-1
 393 360 l 2,9,10
 393 105 393 105 612 105 c 0,11,12
 724 105 724 105 780.5 155 c 128,-1,13
 837 205 837 205 838 332 c 2,14,-1
 841 812 l 1,15,-1
 688 854 l 1,16,-1
 698 930 l 1,17,-1
 1116 930 l 1,18,-1
 1105 854 l 1,19,-1
 969 816 l 1,20,-1
 964 365 l 2,21,22
 962 157 962 157 860 65 c 128,-1,23
 758 -27 758 -27 562 -27 c 0,24,25
 200 -27 200 -27 200 319 c 2,26,-1
 200 812 l 1,27,-1
 46 854 l 1,4,-1
EndSplineSet
Colour: ffffff
EndChar

